{"glyphs":{"0":{"ha":997,"x_min":17,"x_max":989,"o":"m 276 918 q 268 931 271 926 q 265 935 267 933 q 264 938 264 936 q 266 944 264 940 q 269 949 268 947 q 290 978 276 964 q 303 994 297 985 q 317 1010 310 1003 q 324 1013 319 1011 q 331 1017 328 1015 q 336 1020 333 1018 q 342 1024 339 1022 q 356 1024 347 1025 q 371 1021 364 1022 q 385 1018 378 1019 q 400 1015 392 1017 q 443 1017 421 1014 q 486 1024 465 1019 q 526 1032 506 1028 q 568 1036 547 1036 q 578 1035 572 1035 q 588 1035 583 1036 q 614 1024 603 1032 q 635 1003 626 1017 q 656 981 644 989 q 682 964 667 971 q 715 951 697 956 q 749 939 732 947 q 757 934 751 936 q 765 929 763 932 q 770 921 768 926 q 774 911 772 915 q 775 907 774 908 q 776 903 776 906 q 775 900 776 901 q 772 897 774 899 q 766 888 769 894 q 758 881 763 882 q 753 878 757 879 q 747 878 750 878 q 736 876 742 876 q 725 875 731 875 q 679 883 701 878 q 636 899 657 889 q 586 926 610 911 q 535 946 563 940 q 495 949 515 950 q 456 944 475 947 q 429 942 443 943 q 404 936 415 940 q 377 921 389 931 q 351 907 365 911 q 336 901 346 904 q 319 899 326 899 q 298 904 310 899 q 276 918 286 910 m 819 869 q 832 876 825 872 q 844 879 839 879 q 849 877 846 879 q 856 875 853 875 q 864 871 858 872 q 872 867 869 869 q 878 862 875 865 q 882 856 881 858 q 922 815 901 836 q 950 768 942 793 q 953 757 951 763 q 957 746 956 751 q 958 736 958 742 q 957 726 957 731 q 957 721 957 725 q 957 715 957 717 q 952 710 956 713 q 947 707 949 708 q 941 701 946 706 q 935 697 936 697 q 928 701 932 697 q 922 706 924 706 q 902 724 911 714 q 882 742 893 735 q 853 758 868 750 q 825 776 838 767 q 819 781 822 779 q 813 786 815 783 q 810 793 811 789 q 806 800 808 797 q 802 808 804 804 q 800 814 800 811 q 799 822 799 818 q 800 829 800 825 q 799 836 800 832 q 800 844 799 840 q 808 857 801 850 q 819 869 814 864 m 240 860 q 235 858 238 858 q 229 856 232 857 q 225 854 225 854 q 226 858 225 854 q 228 871 228 867 q 229 875 229 875 q 232 872 229 875 q 240 860 240 864 m 926 164 q 920 152 924 158 q 914 142 917 146 q 905 134 910 138 q 896 128 900 131 q 869 108 882 118 q 846 83 857 97 q 815 32 829 60 q 772 -10 801 4 q 721 -21 749 -22 q 668 -28 693 -19 q 661 -30 665 -29 q 654 -32 657 -31 q 638 -47 646 -37 q 622 -64 629 -56 q 618 -70 621 -67 q 613 -75 615 -74 q 605 -80 610 -78 q 596 -83 600 -82 q 590 -87 593 -85 q 585 -89 588 -89 q 580 -88 583 -89 q 574 -87 576 -87 q 565 -87 569 -87 q 556 -85 560 -86 q 542 -76 549 -82 q 529 -68 536 -71 q 503 -65 515 -64 q 489 -69 496 -65 q 475 -75 482 -74 q 446 -83 461 -81 q 415 -81 431 -85 q 364 -49 385 -72 q 314 -17 343 -26 q 285 -11 300 -12 q 256 -4 269 -10 q 230 10 242 0 q 207 29 218 21 q 167 52 189 43 q 131 78 146 61 q 113 102 121 89 q 99 128 106 115 q 76 171 88 149 q 61 217 65 193 q 58 247 58 232 q 54 276 57 261 q 39 335 49 307 q 28 394 29 364 q 32 441 28 418 q 36 486 36 464 q 26 546 35 517 q 18 606 17 575 q 22 642 18 624 q 31 676 26 660 q 41 717 36 697 q 56 756 46 736 q 69 778 61 767 q 85 800 76 789 q 95 815 89 807 q 108 829 101 824 q 117 837 113 833 q 128 843 122 840 q 131 847 129 844 q 133 849 132 849 q 136 844 133 849 q 143 837 139 842 q 147 829 147 832 q 146 823 147 826 q 144 818 144 819 q 141 805 143 811 q 138 792 139 799 q 128 751 133 771 q 114 710 122 731 q 93 667 104 689 q 79 621 82 644 q 89 576 78 596 q 111 535 100 557 q 124 506 118 522 q 129 475 129 490 q 121 441 129 457 q 104 407 113 425 q 100 399 103 404 q 97 390 97 394 q 97 383 96 388 q 97 375 97 379 q 99 368 99 372 q 99 361 99 364 q 103 351 100 356 q 108 340 107 346 q 124 311 115 326 q 135 279 132 296 q 135 235 140 257 q 132 190 131 213 q 149 148 135 167 q 181 117 163 129 q 294 69 232 79 q 326 66 310 67 q 357 63 342 65 q 400 49 379 58 q 443 36 421 39 q 474 35 458 33 q 504 38 489 38 q 534 35 519 38 q 564 31 549 32 q 610 36 588 31 q 654 46 632 42 q 684 50 668 49 q 715 57 700 51 q 762 95 746 68 q 797 147 778 122 q 817 172 806 160 q 842 192 828 183 q 883 208 860 204 q 890 211 886 210 q 897 213 894 213 q 906 210 901 213 q 915 206 911 207 q 920 204 918 204 q 922 201 922 204 q 924 198 924 200 q 925 194 925 196 q 929 181 928 188 q 926 164 931 174 m 396 599 q 415 642 406 619 q 435 686 424 664 q 454 721 443 706 q 458 725 457 722 q 461 729 460 728 q 468 733 464 732 q 475 736 472 735 q 481 740 478 738 q 488 743 485 742 q 496 742 492 743 q 504 740 500 740 q 512 740 507 740 q 519 738 517 739 q 526 734 522 736 q 532 731 529 732 q 579 672 564 711 q 590 611 590 642 q 592 549 589 581 q 605 489 594 518 q 619 431 615 460 q 610 340 626 385 q 589 299 601 321 q 557 265 576 278 q 486 249 526 244 q 424 283 446 254 q 396 340 403 304 q 388 411 389 375 q 386 468 388 447 q 382 531 383 499 q 396 599 381 564 m 951 579 q 946 540 949 560 q 939 500 943 519 q 933 488 938 493 q 925 476 929 482 q 924 473 925 475 q 921 469 924 471 q 911 469 918 468 q 900 469 904 469 q 896 469 896 469 q 892 474 894 469 q 888 482 889 479 q 874 517 878 497 q 871 556 869 536 q 878 590 872 572 q 899 619 885 608 q 905 625 901 621 q 911 631 908 629 q 917 630 914 631 q 922 628 921 629 q 931 628 925 628 q 938 626 936 628 q 941 622 939 625 q 943 617 943 618 q 949 608 946 613 q 951 599 951 603 q 952 591 953 596 q 951 579 951 586 m 492 354 q 503 350 496 353 q 515 347 511 347 q 526 351 521 347 q 538 356 532 354 q 541 357 539 357 q 544 358 543 357 q 546 363 546 361 q 546 367 546 365 q 549 376 547 371 q 551 386 551 382 q 549 410 553 397 q 543 432 546 422 q 530 475 536 453 q 525 519 524 497 q 530 549 526 535 q 535 579 533 564 q 537 594 536 588 q 535 607 538 600 q 531 617 533 610 q 526 625 529 624 q 519 627 525 626 q 510 628 513 628 q 504 629 508 628 q 499 629 500 631 q 492 626 496 629 q 486 621 488 622 q 479 616 483 618 q 474 611 475 614 q 461 591 465 603 q 454 568 457 579 q 453 524 449 546 q 460 479 457 501 q 459 435 461 457 q 463 392 457 413 q 465 385 464 389 q 468 378 465 381 q 478 367 471 372 q 492 354 485 361 m 943 372 q 953 365 947 368 q 963 357 958 361 q 975 338 969 349 q 983 318 981 328 q 987 310 985 314 q 989 303 989 307 q 988 292 989 299 q 986 282 986 286 q 985 278 985 279 q 985 275 986 276 q 980 271 983 272 q 975 268 976 269 q 968 263 972 267 q 960 258 964 258 q 956 259 958 258 q 953 260 954 260 q 942 262 949 261 q 932 265 936 263 q 926 270 929 267 q 922 276 924 274 q 917 282 919 279 q 913 288 914 285 q 910 294 911 290 q 908 301 908 299 q 903 326 904 313 q 907 353 901 340 q 910 360 908 357 q 913 368 911 364 q 913 372 913 369 q 915 375 914 374 q 919 376 917 376 q 924 375 921 375 q 932 374 928 375 q 943 372 936 374 z "},"1":{"ha":774,"x_min":42,"x_max":728,"o":"m 446 967 q 496 975 469 974 q 546 967 522 976 q 554 963 549 964 q 563 958 560 961 q 565 953 564 957 q 568 947 567 950 q 572 940 569 944 q 575 933 575 936 q 573 927 575 931 q 571 922 571 924 q 567 914 568 919 q 563 906 565 908 q 559 903 561 904 q 556 901 557 903 q 546 896 551 899 q 536 892 540 893 q 528 890 532 890 q 521 889 524 889 q 491 888 506 888 q 463 890 476 888 q 449 894 456 893 q 438 901 443 896 q 428 908 435 904 q 419 917 421 913 q 419 920 418 918 q 419 924 419 922 q 419 935 419 928 q 421 946 418 942 q 423 949 421 947 q 426 951 425 950 q 435 958 431 954 q 446 967 439 963 m 704 931 q 710 919 707 925 q 715 906 714 913 q 717 897 717 901 q 717 888 717 892 q 717 881 717 885 q 717 875 718 878 q 713 871 717 874 q 708 867 710 868 q 703 859 707 864 q 697 854 700 854 q 692 856 696 854 q 686 857 688 857 q 678 859 683 858 q 671 861 674 860 q 660 871 665 864 q 651 882 654 878 q 643 894 647 886 q 639 910 639 903 q 638 917 638 913 q 639 924 639 921 q 639 931 639 926 q 640 939 639 936 q 646 944 642 942 q 653 950 650 947 q 657 953 654 950 q 661 957 660 957 q 667 956 663 957 q 672 954 671 954 q 681 952 676 953 q 690 949 686 951 q 697 942 693 947 q 704 931 700 936 m 57 729 q 76 769 67 749 q 100 807 85 790 q 144 844 118 829 q 192 875 169 858 q 219 901 206 888 q 250 925 233 915 q 278 941 264 935 q 308 950 292 947 q 322 951 315 950 q 333 947 328 951 q 342 942 336 946 q 349 936 349 939 q 347 928 350 935 q 343 919 344 921 q 337 908 342 913 q 326 899 332 904 q 308 883 318 890 q 292 865 299 875 q 265 833 278 850 q 239 801 253 815 q 190 769 217 782 q 143 732 163 756 q 122 703 131 718 q 101 675 114 688 q 95 668 99 672 q 89 663 92 664 q 79 659 85 660 q 68 657 74 658 q 65 656 67 657 q 61 656 63 656 q 58 658 58 657 q 56 663 57 660 q 48 669 53 665 q 42 678 43 674 q 42 683 42 679 q 44 689 43 688 q 57 729 47 708 m 721 753 q 725 740 722 747 q 728 726 728 732 q 723 718 726 722 q 718 711 719 714 q 715 706 717 710 q 711 701 713 701 q 706 703 710 700 q 701 706 701 706 q 692 710 697 708 q 683 714 686 711 q 681 717 682 715 q 679 721 681 719 q 673 731 676 726 q 668 742 669 736 q 667 753 667 747 q 667 764 668 760 q 667 768 667 767 q 667 772 667 769 q 669 778 667 775 q 674 785 672 782 q 677 790 675 786 q 681 794 679 794 q 686 792 682 794 q 690 789 690 790 q 699 786 694 788 q 706 782 703 785 q 714 769 710 778 q 721 753 718 761 m 706 615 q 706 605 706 610 q 707 596 706 600 q 708 592 707 594 q 707 588 708 590 q 701 586 706 588 q 696 585 697 585 q 690 581 694 583 q 682 579 685 579 q 680 582 681 581 q 678 586 679 583 q 669 594 675 589 q 664 603 664 599 q 664 614 663 607 q 667 625 665 621 q 667 628 667 626 q 668 632 667 631 q 673 634 668 633 q 679 636 678 635 q 685 638 681 636 q 690 639 689 639 q 693 635 692 638 q 694 632 694 633 q 700 625 697 629 q 706 615 703 621 m 529 7 q 530 -3 529 3 q 531 -12 531 -8 q 531 -16 531 -14 q 531 -21 532 -18 q 526 -28 531 -24 q 518 -35 521 -32 q 514 -40 517 -36 q 510 -43 511 -43 q 502 -43 507 -44 q 494 -40 497 -42 q 488 -40 492 -40 q 481 -39 483 -39 q 465 -31 472 -36 q 449 -24 457 -26 q 437 -19 443 -21 q 424 -14 431 -17 q 371 1 397 -6 q 322 26 344 8 q 316 31 319 28 q 311 36 313 33 q 307 42 308 38 q 304 49 306 46 q 299 55 301 51 q 296 63 297 58 q 292 92 292 76 q 294 124 293 108 q 297 169 296 146 q 303 215 297 193 q 311 244 306 229 q 317 275 317 260 q 311 304 317 290 q 301 332 306 318 q 300 365 299 349 q 305 394 300 379 q 311 422 310 408 q 314 449 314 436 q 314 475 314 461 q 314 487 314 481 q 314 500 314 493 q 314 506 314 503 q 314 511 314 510 q 308 519 313 515 q 301 526 304 524 q 299 531 300 529 q 297 533 299 532 q 292 533 296 533 q 286 531 288 532 q 276 530 282 531 q 267 528 271 529 q 258 521 263 525 q 249 514 253 517 q 224 488 235 504 q 208 463 214 476 q 192 438 201 449 q 186 433 190 435 q 179 428 182 431 q 175 424 178 426 q 171 419 172 421 q 162 419 167 419 q 154 418 157 419 q 148 417 151 418 q 142 417 144 417 q 135 420 139 418 q 126 424 131 422 q 90 455 103 433 q 71 500 78 476 q 70 512 69 506 q 72 524 71 518 q 72 528 72 526 q 72 532 71 531 q 78 538 74 535 q 83 542 82 540 q 88 546 85 543 q 92 550 90 549 q 100 549 94 550 q 108 546 106 547 q 140 543 124 543 q 147 542 143 543 q 153 543 150 542 q 159 547 156 543 q 164 551 163 550 q 181 567 174 558 q 199 582 189 575 q 268 613 226 603 q 342 603 310 622 q 378 558 369 586 q 378 549 379 554 q 379 540 378 544 q 379 504 381 522 q 379 468 378 486 q 381 438 379 453 q 382 407 383 422 q 379 376 382 392 q 375 346 376 361 q 376 317 375 332 q 378 288 376 301 q 382 235 379 261 q 390 185 385 210 q 394 156 393 171 q 401 128 396 142 q 406 114 403 122 q 414 101 410 106 q 419 97 417 99 q 425 92 422 94 q 458 72 440 81 q 492 53 476 64 q 504 44 497 49 q 515 33 511 39 q 523 22 519 29 q 529 7 526 15 m 713 475 q 715 456 714 468 q 716 452 715 454 q 717 449 717 450 q 713 444 715 446 q 708 439 710 442 q 703 433 707 438 q 697 428 700 428 q 692 428 696 426 q 685 431 688 431 q 677 433 682 432 q 669 435 672 433 q 667 438 668 436 q 665 442 667 440 q 660 451 664 446 q 656 460 657 456 q 656 470 654 464 q 658 481 658 476 q 658 484 658 482 q 660 489 658 486 q 666 493 661 490 q 674 497 671 496 q 678 501 675 499 q 683 504 681 504 q 688 503 685 506 q 693 499 692 500 q 699 496 696 497 q 706 492 703 494 q 713 475 708 489 m 703 303 q 710 303 706 303 q 713 301 713 301 q 708 301 713 301 q 701 300 703 300 q 703 303 699 303 m 700 181 q 686 189 693 185 q 681 190 683 189 q 678 192 679 190 q 678 201 676 194 q 679 211 679 208 q 678 215 679 213 q 679 218 678 217 q 682 219 679 218 q 692 223 686 221 q 701 224 699 225 q 707 219 704 224 q 711 211 710 214 q 715 207 713 210 q 718 203 718 204 q 717 199 718 200 q 714 196 715 197 q 708 188 711 192 q 700 181 706 183 m 697 107 q 704 96 700 101 q 710 85 708 90 q 711 69 711 79 q 710 54 711 60 q 699 26 707 38 q 692 19 696 22 q 685 14 688 17 q 681 9 683 11 q 676 6 678 7 q 669 3 674 4 q 661 1 665 3 q 608 4 633 -7 q 599 8 604 7 q 590 13 594 10 q 584 21 588 15 q 578 31 581 26 q 575 33 576 32 q 574 36 574 35 q 574 41 574 39 q 576 44 575 43 q 578 54 576 49 q 581 64 579 60 q 588 69 583 67 q 593 72 592 71 q 613 84 603 79 q 633 94 624 89 q 646 103 640 99 q 658 111 651 108 q 667 113 663 113 q 675 115 671 114 q 681 116 676 115 q 686 117 685 117 q 697 107 690 117 z "},"2":{"ha":978,"x_min":24,"x_max":946,"o":"m 943 35 q 935 23 939 29 q 928 14 932 17 q 920 9 925 11 q 911 4 915 7 q 878 -9 896 -4 q 846 -21 861 -14 q 819 -35 832 -28 q 792 -46 807 -43 q 761 -46 776 -49 q 731 -42 746 -43 q 685 -42 706 -39 q 632 -53 658 -44 q 578 -64 606 -61 q 547 -64 563 -67 q 524 -60 536 -62 q 500 -56 513 -57 q 494 -55 497 -56 q 489 -54 492 -54 q 483 -56 486 -54 q 479 -58 481 -58 q 447 -72 461 -67 q 440 -74 444 -72 q 433 -76 436 -76 q 403 -75 418 -79 q 389 -68 396 -72 q 375 -61 382 -64 q 367 -58 371 -60 q 358 -57 363 -57 q 352 -55 356 -56 q 346 -54 349 -54 q 335 -57 342 -54 q 325 -61 329 -60 q 294 -73 310 -67 q 261 -81 278 -79 q 235 -80 249 -82 q 210 -76 222 -78 q 173 -68 192 -74 q 138 -54 154 -62 q 105 -31 119 -44 q 78 -3 90 -17 q 61 15 69 6 q 47 33 53 24 q 28 83 32 57 q 25 135 24 108 q 28 174 25 154 q 36 213 31 194 q 51 246 42 229 q 68 278 60 263 q 91 314 79 294 q 121 344 103 333 q 150 353 135 351 q 178 361 165 356 q 203 376 192 367 q 228 393 215 385 q 254 408 240 401 q 279 424 268 414 q 301 444 292 432 q 322 465 311 456 q 334 474 328 469 q 346 482 340 478 q 372 497 358 489 q 396 514 385 504 q 426 555 414 532 q 446 601 438 578 q 457 635 453 621 q 459 642 457 638 q 461 650 461 647 q 458 658 461 653 q 453 667 454 663 q 452 670 453 668 q 450 672 451 672 q 447 672 449 674 q 443 668 446 669 q 433 663 439 665 q 424 656 428 660 q 410 639 417 649 q 399 621 404 629 q 376 590 389 606 q 344 565 363 574 q 290 547 324 550 q 222 548 256 544 q 167 553 188 551 q 140 553 154 553 q 114 556 126 553 q 106 556 110 556 q 97 558 101 557 q 91 563 94 560 q 85 567 88 565 q 78 572 82 569 q 72 576 75 574 q 69 583 71 579 q 65 589 67 586 q 43 642 51 611 q 34 682 38 661 q 33 722 31 703 q 52 783 36 754 q 82 839 68 811 q 102 880 92 860 q 126 918 113 900 q 229 979 168 967 q 282 985 256 986 q 335 988 308 983 q 344 990 339 989 q 353 992 349 990 q 382 1004 368 996 q 410 1017 396 1013 q 441 1018 425 1019 q 472 1018 457 1017 q 485 1019 478 1018 q 499 1022 492 1021 q 529 1028 514 1024 q 561 1031 544 1033 q 604 1011 585 1026 q 644 986 624 996 q 672 976 658 981 q 700 971 685 972 q 729 969 714 969 q 758 961 744 968 q 764 956 761 958 q 769 950 767 953 q 795 921 785 938 q 819 890 806 904 q 843 869 831 879 q 868 851 856 860 q 894 835 881 843 q 915 814 907 826 q 923 801 919 810 q 928 788 926 793 q 933 747 933 768 q 933 707 933 726 q 935 650 935 679 q 931 593 936 621 q 908 535 924 563 q 876 479 893 507 q 858 451 868 465 q 836 428 849 438 q 816 413 826 419 q 796 401 806 407 q 790 398 793 400 q 786 394 788 396 q 782 386 783 392 q 779 378 781 381 q 777 372 779 376 q 775 367 775 368 q 778 363 775 365 q 783 358 782 360 q 788 351 785 356 q 794 346 792 347 q 802 345 797 344 q 810 346 807 346 q 832 346 819 346 q 854 344 844 346 q 893 316 875 338 q 924 268 911 294 q 940 221 936 242 q 943 181 944 199 q 942 175 942 179 q 942 169 943 171 q 935 164 940 167 q 925 158 929 161 q 922 157 922 157 q 919 159 921 157 q 917 163 918 161 q 910 169 914 165 q 903 175 906 172 q 896 190 899 182 q 889 204 893 197 q 881 217 886 210 q 871 229 876 225 q 846 240 860 238 q 839 240 843 240 q 831 239 835 239 q 810 235 821 238 q 788 232 799 232 q 758 233 775 231 q 744 238 751 235 q 729 240 736 240 q 700 239 715 242 q 672 230 685 236 q 643 225 658 224 q 635 227 639 225 q 629 229 632 229 q 598 249 611 235 q 581 281 585 263 q 580 290 579 285 q 581 299 581 294 q 583 319 581 308 q 592 338 586 329 q 603 347 596 342 q 617 356 611 353 q 644 367 629 363 q 672 379 660 371 q 680 385 676 382 q 688 390 683 388 q 713 417 701 403 q 736 444 724 432 q 772 474 753 461 q 806 506 790 488 q 835 557 825 528 q 851 614 844 586 q 862 655 857 633 q 864 696 867 676 q 864 705 864 700 q 863 714 864 710 q 858 720 861 717 q 854 725 856 724 q 828 751 843 740 q 801 779 813 763 q 785 820 790 797 q 767 863 781 843 q 726 890 751 883 q 675 901 701 897 q 628 911 649 904 q 606 919 617 915 q 585 926 596 924 q 578 928 582 926 q 571 929 574 929 q 542 921 556 929 q 514 910 528 913 q 506 908 510 908 q 497 907 501 907 q 491 906 494 907 q 485 906 488 904 q 480 907 483 906 q 475 910 476 908 q 466 913 471 911 q 457 917 461 915 q 447 928 451 921 q 438 940 443 936 q 430 942 435 942 q 422 942 425 942 q 417 942 421 942 q 411 943 413 943 q 409 940 410 942 q 407 936 408 939 q 399 928 403 932 q 392 919 396 924 q 342 889 369 896 q 277 889 310 882 q 214 890 244 896 q 161 861 185 885 q 146 843 153 853 q 132 824 139 833 q 105 769 117 799 q 93 710 93 740 q 92 698 93 704 q 93 686 92 692 q 95 677 93 682 q 99 668 97 672 q 99 663 99 667 q 101 657 100 660 q 104 655 103 656 q 107 653 106 654 q 116 645 111 650 q 125 639 121 640 q 133 638 128 638 q 140 638 138 638 q 177 635 158 635 q 214 635 196 636 q 247 632 231 633 q 281 633 264 631 q 332 661 310 639 q 353 686 344 672 q 371 713 361 700 q 403 746 385 731 q 444 767 422 761 q 504 766 472 775 q 544 726 536 757 q 547 703 549 715 q 544 681 546 692 q 536 641 542 661 q 525 601 531 621 q 503 544 515 572 q 475 489 490 517 q 460 463 468 476 q 443 439 453 450 q 409 410 428 422 q 372 385 390 399 q 349 367 360 376 q 325 349 338 357 q 299 335 313 340 q 271 325 285 331 q 236 307 253 317 q 203 289 219 297 q 183 280 193 285 q 165 269 174 275 q 140 236 147 256 q 126 196 132 217 q 111 131 118 167 q 119 67 104 96 q 124 60 121 64 q 129 54 126 57 q 134 47 132 50 q 139 40 136 43 q 194 17 161 21 q 256 22 228 13 q 287 42 272 29 q 318 63 301 54 q 324 67 321 64 q 331 71 328 69 q 340 72 335 72 q 350 72 344 72 q 385 69 368 75 q 421 61 403 64 q 466 57 443 57 q 511 49 489 57 q 554 31 533 40 q 599 21 575 21 q 633 30 617 22 q 664 44 649 38 q 674 51 669 47 q 685 56 679 54 q 717 57 700 60 q 731 52 724 56 q 744 46 738 49 q 753 45 749 46 q 763 44 758 44 q 768 42 765 43 q 774 43 771 42 q 788 47 781 43 q 801 53 796 50 q 815 60 808 57 q 829 68 822 64 q 910 90 869 88 q 923 88 918 90 q 933 81 928 85 q 940 78 936 81 q 944 75 943 76 q 944 69 944 74 q 944 64 944 65 q 946 50 946 57 q 943 35 946 43 z "},"3":{"ha":985,"x_min":-3,"x_max":961,"o":"m 901 149 q 891 116 896 132 q 879 85 886 100 q 876 76 878 81 q 872 67 875 71 q 867 62 869 64 q 861 57 864 60 q 828 38 846 44 q 794 21 811 31 q 770 3 782 13 q 744 -12 758 -6 q 719 -26 732 -19 q 692 -40 706 -33 q 667 -56 679 -47 q 640 -68 654 -65 q 596 -62 615 -72 q 556 -40 576 -51 q 500 -24 529 -28 q 469 -21 485 -21 q 439 -19 454 -21 q 383 -15 418 -18 q 312 -8 347 -12 q 256 4 276 -4 q 213 19 233 10 q 171 39 192 29 q 128 56 150 49 q 89 78 107 63 q 57 122 69 96 q 33 171 44 147 q 14 206 24 188 q 0 243 4 224 q -2 260 -1 250 q -1 275 -3 269 q 2 283 0 279 q 6 289 4 286 q 8 296 7 292 q 11 303 10 300 q 34 321 19 314 q 63 331 49 328 q 107 335 83 336 q 153 336 131 335 q 199 343 176 339 q 246 349 222 347 q 301 347 274 350 q 356 340 329 343 q 382 335 369 338 q 407 331 394 333 q 424 324 415 328 q 442 321 432 321 q 451 319 446 319 q 460 318 456 318 q 465 317 463 318 q 468 317 467 315 q 465 319 468 317 q 460 329 461 326 q 442 344 454 339 q 421 357 431 350 q 400 369 411 363 q 378 379 389 375 q 314 396 347 390 q 258 428 281 401 q 253 434 257 431 q 249 440 250 438 q 247 446 247 443 q 246 451 246 449 q 243 460 244 456 q 242 469 242 465 q 243 479 242 474 q 246 490 244 485 q 255 515 249 503 q 267 538 261 526 q 281 565 274 551 q 293 594 288 579 q 298 608 296 601 q 301 622 300 615 q 303 628 301 625 q 303 633 304 631 q 301 642 303 638 q 299 650 300 646 q 297 656 297 651 q 294 661 296 660 q 288 665 293 664 q 281 668 283 667 q 261 676 271 674 q 240 681 251 679 q 199 688 219 685 q 156 692 178 692 q 126 692 140 692 q 97 694 111 692 q 89 696 93 696 q 82 697 85 696 q 72 704 76 700 q 63 711 67 708 q 60 713 61 713 q 57 715 58 714 q 55 719 56 717 q 54 724 54 721 q 50 733 53 728 q 47 743 47 738 q 49 752 47 747 q 50 763 50 757 q 61 799 54 781 q 72 835 68 817 q 80 884 78 860 q 85 932 82 908 q 88 960 86 946 q 97 988 90 975 q 126 1020 106 1007 q 167 1036 146 1033 q 206 1034 186 1038 q 246 1028 226 1031 q 271 1025 258 1026 q 294 1022 283 1024 q 322 1019 308 1021 q 347 1017 335 1017 q 377 1019 363 1017 q 407 1022 392 1021 q 453 1021 431 1022 q 500 1022 476 1019 q 532 1026 517 1024 q 564 1031 547 1029 q 619 1027 592 1032 q 676 1024 647 1022 q 710 1026 693 1024 q 744 1026 728 1028 q 783 1019 764 1025 q 821 1007 803 1013 q 858 995 839 1003 q 889 974 876 988 q 908 937 904 957 q 914 896 913 917 q 908 853 914 875 q 897 810 903 831 q 879 756 889 783 q 857 703 869 728 q 840 675 849 689 q 825 647 832 661 q 821 639 824 643 q 817 631 818 635 q 817 622 817 626 q 818 615 818 618 q 817 607 818 611 q 818 600 817 603 q 821 594 818 597 q 825 588 824 590 q 828 580 826 583 q 832 574 831 576 q 857 556 843 563 q 883 539 871 549 q 918 490 906 521 q 935 447 928 469 q 946 401 942 424 q 947 368 947 385 q 950 333 947 351 q 957 292 953 314 q 958 251 961 271 q 950 228 956 239 q 938 207 944 217 q 920 179 929 193 q 901 149 911 165 m 876 363 q 881 390 878 375 q 882 418 883 406 q 861 453 876 439 q 829 479 846 468 q 792 502 810 490 q 754 525 774 514 q 721 544 738 533 q 693 569 704 554 q 689 577 690 574 q 686 585 688 581 q 683 591 685 588 q 679 599 681 594 q 678 606 678 601 q 678 614 678 610 q 677 621 678 617 q 678 628 676 625 q 679 633 678 631 q 682 639 681 636 q 685 648 683 643 q 689 656 688 653 q 695 661 692 658 q 701 667 699 664 q 723 683 711 675 q 744 701 735 692 q 771 734 760 717 q 794 768 782 751 q 822 810 808 789 q 839 856 835 831 q 844 882 842 868 q 846 908 847 896 q 844 916 846 913 q 842 924 843 919 q 840 931 840 926 q 838 939 839 936 q 828 943 835 942 q 818 946 822 944 q 785 951 803 951 q 749 951 767 950 q 717 953 733 951 q 683 954 700 956 q 654 951 669 954 q 624 950 639 949 q 574 956 603 950 q 517 964 546 961 q 467 960 488 967 q 439 947 451 956 q 404 918 419 935 q 364 900 389 901 q 355 901 360 900 q 346 903 350 903 q 302 919 325 907 q 256 944 279 932 q 211 956 232 956 q 201 958 207 957 q 189 957 194 958 q 181 955 185 957 q 172 951 176 953 q 166 949 169 950 q 161 947 163 949 q 157 939 158 944 q 153 931 156 933 q 151 925 153 928 q 149 919 149 922 q 149 906 147 914 q 153 893 151 899 q 153 876 154 885 q 153 858 153 867 q 149 834 151 846 q 144 811 146 822 q 143 803 144 807 q 143 796 142 799 q 145 790 143 793 q 147 785 147 788 q 151 776 150 782 q 156 768 153 771 q 163 765 158 767 q 169 763 167 764 q 200 751 185 754 q 232 747 215 749 q 269 746 250 746 q 306 749 288 746 q 344 757 325 751 q 383 763 363 763 q 390 763 386 763 q 399 763 394 763 q 408 758 403 761 q 417 754 413 756 q 423 752 419 753 q 429 749 426 751 q 434 744 432 747 q 439 739 436 742 q 445 733 442 736 q 451 725 449 729 q 458 713 454 719 q 463 701 461 707 q 465 692 464 697 q 465 683 465 688 q 464 661 467 672 q 462 652 463 657 q 458 644 461 647 q 454 639 457 642 q 449 633 451 636 q 419 609 435 618 q 386 589 403 600 q 340 535 356 567 q 329 497 332 517 q 328 492 329 496 q 328 486 326 489 q 331 481 328 485 q 335 476 333 478 q 338 469 336 474 q 343 463 340 465 q 353 460 347 461 q 363 458 358 460 q 393 456 378 456 q 424 454 408 456 q 457 444 442 451 q 488 428 472 436 q 517 414 501 421 q 544 394 533 407 q 564 356 560 379 q 564 311 568 332 q 546 259 560 285 q 513 217 532 233 q 507 211 510 214 q 501 206 504 208 q 492 203 497 204 q 483 200 488 201 q 478 199 482 200 q 474 197 475 197 q 467 199 471 197 q 463 200 464 200 q 453 203 458 201 q 444 206 449 204 q 421 226 431 213 q 397 246 411 239 q 369 253 385 253 q 338 254 353 253 q 303 256 321 254 q 267 258 285 258 q 214 260 240 260 q 161 260 188 261 q 153 260 157 260 q 144 260 149 260 q 136 256 140 258 q 128 251 132 253 q 122 250 125 251 q 117 247 118 249 q 115 242 115 246 q 114 235 114 238 q 111 227 113 232 q 108 219 110 222 q 110 203 108 213 q 114 189 113 194 q 125 159 118 174 q 143 133 132 144 q 164 117 151 124 q 188 106 176 111 q 220 89 204 97 q 253 76 236 81 q 298 66 275 69 q 343 58 321 63 q 379 52 361 56 q 415 46 397 49 q 477 40 446 43 q 539 32 508 36 q 580 26 558 29 q 621 26 601 22 q 667 44 644 31 q 708 71 689 58 q 731 85 719 78 q 753 99 742 92 q 779 112 765 106 q 804 126 793 118 q 835 159 822 140 q 860 194 847 178 q 873 213 867 204 q 885 232 879 222 q 888 238 886 235 q 892 246 890 242 q 892 251 892 247 q 892 257 892 254 q 892 266 892 261 q 892 275 892 271 q 887 290 890 283 q 881 304 883 297 q 876 319 879 311 q 874 333 874 326 q 874 347 872 340 q 876 363 875 354 z "},"4":{"ha":1021,"x_min":-29,"x_max":1004,"o":"m 993 239 q 989 211 992 225 q 979 185 986 197 q 947 152 967 165 q 913 121 928 139 q 897 96 903 110 q 882 68 890 82 q 856 30 869 49 q 829 -10 842 11 q 815 -37 822 -22 q 796 -61 807 -51 q 789 -65 793 -64 q 781 -68 785 -67 q 774 -73 778 -71 q 767 -76 771 -75 q 758 -78 763 -78 q 749 -78 753 -78 q 679 -68 710 -83 q 642 -41 658 -57 q 603 -18 626 -25 q 558 -14 582 -12 q 514 -6 535 -15 q 469 39 485 8 q 463 61 465 49 q 456 85 460 74 q 453 92 454 88 q 451 100 453 96 q 446 106 449 103 q 440 110 443 108 q 433 117 436 114 q 425 122 431 121 q 365 140 404 133 q 287 147 326 146 q 226 147 247 149 q 174 142 206 144 q 112 145 143 140 q 60 167 81 150 q 24 213 36 185 q 1 265 13 240 q -19 308 -8 286 q -25 356 -29 331 q -15 378 -22 367 q -1 401 -8 390 q 26 440 11 421 q 57 476 40 460 q 92 506 74 492 q 122 539 110 519 q 146 578 136 557 q 168 619 156 600 q 215 683 189 651 q 257 746 240 715 q 274 794 268 769 q 289 843 279 819 q 298 866 293 854 q 311 886 303 878 q 347 914 325 904 q 388 935 368 924 q 417 954 403 943 q 447 969 431 965 q 458 974 453 971 q 469 976 464 976 q 477 976 472 976 q 485 975 482 975 q 492 975 488 975 q 497 974 496 975 q 507 967 503 972 q 515 958 511 961 q 519 956 517 957 q 521 953 521 956 q 521 950 522 951 q 519 946 519 949 q 517 935 518 942 q 515 925 517 929 q 509 919 513 922 q 503 915 506 917 q 485 900 494 907 q 467 886 475 893 q 443 866 454 876 q 419 847 432 856 q 385 819 403 833 q 353 789 368 806 q 325 750 338 772 q 297 708 313 728 q 258 661 278 685 q 228 608 238 638 q 211 543 217 576 q 193 479 206 510 q 184 458 189 468 q 172 439 179 447 q 149 418 163 426 q 122 403 136 410 q 109 398 117 400 q 94 392 101 396 q 56 346 65 375 q 54 339 54 343 q 54 331 54 335 q 60 278 50 304 q 92 238 71 253 q 144 218 115 219 q 201 215 174 217 q 267 208 232 213 q 335 206 303 203 q 384 210 356 207 q 442 214 413 214 q 492 207 471 214 q 518 194 506 203 q 539 172 531 185 q 544 158 542 167 q 549 143 547 150 q 551 128 550 136 q 553 113 551 119 q 556 103 554 107 q 560 93 558 99 q 562 88 561 92 q 564 82 563 85 q 569 79 567 81 q 574 76 572 78 q 613 56 590 64 q 653 40 633 49 q 692 26 672 32 q 715 20 703 22 q 739 19 728 18 q 747 23 743 21 q 753 26 750 25 q 760 28 756 26 q 767 32 764 29 q 802 81 793 49 q 824 139 811 113 q 838 164 829 153 q 854 188 846 175 q 883 213 867 203 q 914 238 900 224 q 918 243 915 240 q 922 250 921 246 q 925 257 925 253 q 926 264 925 261 q 928 307 931 285 q 935 350 926 329 q 938 359 936 353 q 942 368 939 365 q 947 369 943 369 q 953 371 951 369 q 962 374 956 371 q 971 375 968 376 q 974 373 974 375 q 976 371 975 371 q 986 363 981 367 q 993 356 992 360 q 997 347 996 353 q 999 338 997 342 q 1000 290 1004 315 q 993 239 996 264 m 601 967 q 614 972 607 968 q 626 976 621 975 q 635 974 631 976 q 643 972 639 972 q 649 970 646 971 q 656 968 653 969 q 661 960 658 967 q 667 949 664 953 q 669 946 668 947 q 671 943 671 944 q 669 939 671 940 q 668 936 668 938 q 665 925 667 932 q 660 915 663 918 q 655 913 658 914 q 649 910 651 911 q 641 906 646 908 q 632 903 636 903 q 621 906 628 903 q 610 910 614 908 q 606 910 608 910 q 601 911 604 910 q 599 916 600 913 q 596 921 597 919 q 590 928 594 924 q 586 938 586 933 q 587 941 586 939 q 589 944 588 943 q 592 956 590 950 q 601 967 594 963 m 940 414 q 906 417 924 415 q 872 424 889 418 q 850 434 861 428 q 831 449 839 440 q 817 465 824 456 q 806 483 811 474 q 790 519 797 500 q 782 558 782 539 q 790 603 782 582 q 804 647 799 625 q 813 697 810 671 q 811 747 815 722 q 799 819 807 778 q 789 893 792 861 q 788 906 789 899 q 788 919 786 913 q 790 926 788 922 q 794 933 793 931 q 797 939 794 935 q 800 944 799 943 q 803 945 801 946 q 807 943 806 944 q 817 943 811 943 q 826 942 824 943 q 831 935 829 940 q 835 929 833 931 q 838 922 836 925 q 842 915 840 919 q 844 884 846 901 q 844 851 842 867 q 849 825 846 838 q 860 800 853 813 q 882 760 869 781 q 896 718 894 740 q 888 674 899 694 q 867 635 876 654 q 849 592 856 615 q 847 549 842 569 q 850 540 847 544 q 854 531 853 535 q 856 525 856 528 q 858 521 857 522 q 865 515 861 518 q 869 511 868 513 q 876 506 872 508 q 882 501 879 503 q 931 492 904 490 q 978 479 957 493 q 985 474 981 476 q 992 469 990 472 q 997 460 994 467 q 1000 449 999 454 q 1001 446 1000 447 q 1003 443 1003 444 q 1001 439 1003 440 q 997 436 999 438 q 992 426 994 432 q 985 419 989 421 q 980 418 983 418 q 974 418 976 418 q 959 415 967 417 q 940 414 951 414 m 551 514 q 541 489 547 501 q 525 465 535 476 q 476 434 506 444 q 417 425 446 424 q 388 428 404 425 q 361 442 372 432 q 343 465 350 451 q 341 475 342 469 q 339 485 340 481 q 338 491 339 488 q 338 497 338 494 q 339 505 338 501 q 342 513 340 508 q 344 520 343 515 q 347 528 344 525 q 350 531 347 529 q 356 535 353 533 q 362 542 358 539 q 369 547 365 546 q 383 555 376 551 q 396 561 390 558 q 424 583 411 571 q 453 604 438 596 q 460 608 457 606 q 468 611 464 610 q 474 612 471 613 q 481 611 478 611 q 488 612 483 611 q 496 613 493 613 q 502 610 499 611 q 508 607 506 608 q 515 604 511 606 q 524 601 519 603 q 528 596 526 599 q 533 590 531 593 q 539 585 536 588 q 543 579 542 582 q 551 514 561 550 z "},"5":{"ha":958,"x_min":17,"x_max":940,"o":"m 903 161 q 884 140 893 150 q 863 121 875 129 q 839 103 851 111 q 815 83 826 94 q 797 56 804 71 q 782 28 789 42 q 770 4 778 17 q 753 -15 763 -8 q 746 -17 750 -17 q 739 -19 742 -18 q 706 -26 722 -25 q 672 -26 689 -26 q 603 -26 640 -25 q 535 -32 565 -26 q 478 -51 506 -36 q 452 -67 465 -58 q 424 -76 439 -75 q 417 -76 421 -78 q 413 -75 414 -75 q 403 -74 408 -75 q 394 -72 399 -74 q 369 -58 381 -68 q 344 -39 357 -47 q 322 -26 333 -32 q 297 -17 310 -21 q 253 -8 276 -10 q 206 -6 229 -6 q 172 -3 190 -4 q 139 6 154 -1 q 86 57 108 19 q 56 125 64 94 q 50 156 53 140 q 44 188 47 172 q 33 223 39 206 q 22 258 26 240 q 19 267 21 263 q 18 278 18 272 q 22 306 17 292 q 39 331 28 321 q 58 340 47 336 q 76 350 68 344 q 83 353 78 351 q 90 358 89 356 q 88 364 90 360 q 86 368 86 368 q 82 378 83 372 q 79 386 81 383 q 67 397 75 393 q 56 407 60 400 q 36 463 36 429 q 44 506 35 485 q 60 547 53 526 q 75 610 72 579 q 76 641 76 625 q 76 674 76 657 q 78 733 78 694 q 84 811 79 772 q 100 871 89 850 q 109 893 104 882 q 119 915 114 904 q 138 939 128 928 q 160 960 149 950 q 214 1003 188 983 q 235 1018 224 1011 q 258 1028 246 1025 q 283 1031 269 1032 q 308 1031 296 1031 q 339 1028 324 1029 q 369 1026 354 1028 q 450 1031 408 1026 q 483 1034 467 1032 q 515 1036 499 1036 q 576 1027 546 1036 q 638 1018 607 1018 q 708 1022 669 1017 q 776 1021 746 1026 q 811 1011 797 1018 q 818 1008 814 1010 q 822 1006 822 1007 q 823 1000 824 1004 q 822 994 822 996 q 823 987 822 992 q 822 979 824 982 q 819 977 821 978 q 815 975 817 976 q 807 969 811 972 q 799 964 803 965 q 774 958 788 960 q 749 956 760 957 q 710 952 729 954 q 672 950 692 950 q 617 951 644 949 q 560 953 589 953 q 506 949 533 951 q 451 944 479 946 q 413 947 432 944 q 375 950 394 949 q 349 951 363 951 q 324 950 336 951 q 283 931 300 944 q 246 903 265 917 q 215 888 232 893 q 183 874 199 882 q 174 869 179 871 q 167 864 169 867 q 151 840 157 856 q 149 833 150 838 q 149 825 149 829 q 146 800 146 813 q 144 775 146 788 q 142 733 144 754 q 140 689 139 711 q 148 644 142 667 q 153 599 154 622 q 147 560 153 579 q 138 522 142 542 q 136 489 133 508 q 136 484 136 488 q 138 479 136 481 q 143 471 139 475 q 150 464 147 467 q 192 435 165 446 q 242 421 218 425 q 288 416 263 415 q 333 425 313 417 q 372 447 354 433 q 413 465 390 460 q 463 469 436 471 q 515 465 490 468 q 542 460 528 463 q 567 451 556 458 q 607 379 611 428 q 601 356 606 368 q 592 332 596 343 q 566 279 581 307 q 531 232 551 251 q 523 224 526 228 q 514 215 519 219 q 506 212 511 214 q 497 208 501 210 q 492 205 494 207 q 486 203 489 203 q 481 203 483 203 q 475 206 478 204 q 465 206 471 206 q 456 208 460 207 q 449 213 451 210 q 443 218 446 215 q 424 231 433 224 q 404 244 414 239 q 346 256 376 258 q 286 251 315 253 q 256 253 271 251 q 228 258 242 254 q 207 266 217 261 q 186 275 197 271 q 179 278 183 276 q 172 281 175 281 q 166 280 169 281 q 160 279 163 279 q 151 278 156 278 q 142 276 146 278 q 136 273 139 275 q 132 269 133 271 q 124 264 128 267 q 115 258 119 261 q 111 252 113 256 q 107 244 110 249 q 103 238 106 242 q 99 232 100 235 q 97 222 97 228 q 97 213 97 217 q 97 206 97 210 q 97 200 96 203 q 99 194 97 197 q 103 186 101 190 q 119 160 110 172 q 136 136 128 149 q 157 103 147 121 q 181 74 167 86 q 232 48 203 54 q 289 39 261 42 q 323 36 306 38 q 358 32 340 35 q 388 27 372 29 q 418 26 403 25 q 463 33 440 28 q 510 38 486 38 q 586 38 540 38 q 663 49 632 39 q 706 65 685 54 q 742 93 726 75 q 767 131 757 110 q 793 169 776 153 q 816 189 803 181 q 842 204 829 197 q 863 215 853 210 q 883 221 872 219 q 891 224 886 222 q 899 224 896 225 q 902 219 900 224 q 906 214 904 215 q 910 209 907 213 q 914 203 914 206 q 914 197 915 200 q 913 190 913 193 q 909 176 911 183 q 903 161 907 169 m 847 944 q 864 942 857 943 q 867 942 865 942 q 872 940 869 942 q 875 935 874 939 q 878 929 876 932 q 882 923 879 926 q 886 915 885 919 q 889 894 889 906 q 890 874 889 883 q 893 849 892 861 q 894 824 894 836 q 890 785 894 804 q 878 749 885 767 q 868 728 874 739 q 856 708 863 717 q 831 691 844 697 q 801 682 817 685 q 782 681 792 681 q 763 679 772 682 q 753 676 760 678 q 743 672 746 675 q 740 666 742 671 q 739 658 739 661 q 736 653 738 657 q 735 649 735 650 q 739 642 735 646 q 744 636 743 639 q 749 632 747 635 q 753 628 751 629 q 766 621 758 624 q 781 614 774 618 q 790 608 785 611 q 799 601 794 604 q 815 588 807 596 q 831 574 822 581 q 853 556 842 565 q 875 538 865 547 q 895 515 886 528 q 911 490 904 503 q 924 469 918 479 q 933 449 929 460 q 938 441 935 446 q 939 433 940 436 q 936 428 939 432 q 933 424 933 425 q 930 418 932 422 q 926 414 928 414 q 918 413 924 413 q 910 415 913 414 q 903 415 907 415 q 899 415 900 415 q 892 419 894 417 q 886 424 889 422 q 867 436 876 429 q 850 450 858 443 q 824 466 838 458 q 800 482 811 474 q 777 503 788 492 q 756 522 767 514 q 711 553 735 539 q 664 579 688 568 q 608 597 643 594 q 539 598 574 599 q 483 603 504 597 q 462 609 474 606 q 443 619 450 613 q 439 625 440 622 q 436 629 438 628 q 430 638 433 633 q 425 646 426 642 q 421 676 419 660 q 435 717 422 697 q 469 746 449 738 q 483 750 475 749 q 499 751 492 751 q 538 752 518 754 q 578 750 558 750 q 624 751 601 750 q 671 754 647 753 q 709 756 689 756 q 747 763 729 756 q 781 790 768 771 q 796 831 793 808 q 795 861 797 846 q 796 892 793 876 q 800 906 797 897 q 806 921 803 915 q 813 927 808 924 q 819 933 817 931 q 824 937 822 935 q 828 940 826 939 q 847 944 832 943 m 510 317 q 516 328 513 322 q 521 342 519 335 q 519 351 521 346 q 517 360 517 356 q 516 365 517 361 q 514 371 515 369 q 508 376 513 374 q 501 379 504 378 q 496 383 499 381 q 492 386 493 386 q 485 387 489 388 q 481 386 482 386 q 446 383 461 388 q 439 381 443 382 q 432 378 435 381 q 427 374 429 376 q 424 369 425 371 q 418 363 422 367 q 413 357 414 360 q 414 349 413 354 q 415 342 415 344 q 417 335 417 339 q 418 329 417 332 q 422 325 419 328 q 426 321 424 322 q 453 301 439 307 q 459 297 456 300 q 465 294 463 294 q 475 294 469 293 q 485 296 481 296 q 490 296 488 296 q 493 297 492 296 q 501 304 497 299 q 510 317 506 310 m 922 338 q 928 330 925 333 q 932 322 931 326 q 935 319 933 321 q 938 317 936 318 q 935 306 938 313 q 932 296 933 300 q 932 292 932 294 q 931 288 932 289 q 927 288 929 288 q 924 288 925 288 q 912 285 919 288 q 901 285 904 283 q 897 289 899 286 q 893 293 894 292 q 885 300 890 296 q 879 307 881 304 q 878 315 878 310 q 878 324 878 319 q 876 329 878 325 q 876 336 875 333 q 881 340 876 338 q 888 346 886 343 q 892 349 889 346 q 897 353 896 353 q 900 351 899 353 q 904 349 901 350 q 912 344 907 347 q 922 338 917 342 z "},"6":{"ha":961,"x_min":18,"x_max":983,"o":"m 971 236 q 949 197 961 215 q 918 163 936 178 q 869 128 896 143 q 819 89 842 113 q 797 59 807 75 q 774 28 786 43 q 758 8 767 18 q 739 -7 750 -1 q 703 -15 722 -15 q 665 -15 683 -14 q 621 -22 643 -17 q 578 -35 599 -28 q 533 -56 554 -43 q 507 -73 519 -64 q 479 -86 494 -82 q 393 -79 435 -101 q 369 -62 381 -72 q 344 -42 357 -51 q 264 11 308 -11 q 174 43 221 32 q 128 53 151 49 q 86 75 104 58 q 62 107 71 88 q 46 144 53 126 q 33 194 39 169 q 22 244 28 219 q 22 258 21 251 q 22 271 22 265 q 22 275 22 272 q 22 278 21 278 q 28 278 24 279 q 33 276 32 276 q 40 276 36 276 q 44 275 43 276 q 52 267 49 274 q 58 257 56 260 q 81 220 71 239 q 103 182 92 201 q 113 165 107 174 q 126 149 119 156 q 181 124 147 129 q 212 123 196 122 q 242 118 228 124 q 278 92 264 110 q 311 64 292 74 q 340 53 325 56 q 369 46 356 50 q 398 32 385 40 q 425 19 411 24 q 440 16 431 18 q 454 14 449 14 q 460 15 457 14 q 467 17 464 17 q 501 33 485 22 q 535 51 517 44 q 548 54 542 53 q 560 57 554 56 q 583 59 571 60 q 607 57 596 58 q 644 55 625 56 q 681 58 663 54 q 753 110 726 71 q 774 149 765 128 q 799 185 782 171 q 840 206 817 200 q 878 231 863 213 q 883 236 881 232 q 886 243 885 240 q 904 296 900 265 q 908 335 908 315 q 903 372 908 354 q 871 441 893 404 q 822 504 849 478 q 788 534 807 521 q 751 564 768 547 q 721 599 735 579 q 689 635 707 618 q 647 664 671 651 q 608 697 624 676 q 603 703 607 700 q 599 711 600 707 q 597 716 597 713 q 596 722 597 719 q 594 732 596 726 q 592 742 592 738 q 597 763 592 751 q 606 783 601 775 q 626 816 615 800 q 649 847 636 832 q 659 859 653 853 q 669 872 665 865 q 676 883 672 878 q 683 894 681 889 q 684 903 683 899 q 685 911 685 907 q 685 917 685 914 q 686 924 686 921 q 681 930 685 926 q 676 935 678 933 q 672 942 675 938 q 667 947 669 946 q 660 948 664 949 q 651 949 656 947 q 629 949 640 949 q 606 950 618 949 q 552 958 579 951 q 497 964 525 964 q 457 961 476 965 q 422 943 438 957 q 399 917 408 932 q 381 889 390 903 q 372 876 376 882 q 361 867 368 869 q 349 860 357 864 q 344 857 346 858 q 342 856 343 856 q 334 860 339 856 q 328 868 329 865 q 324 872 326 869 q 319 875 321 874 q 318 884 318 878 q 318 894 318 890 q 324 928 317 911 q 342 960 332 946 q 362 983 350 972 q 386 1000 374 993 q 415 1010 400 1007 q 444 1018 431 1014 q 474 1026 460 1022 q 504 1033 489 1031 q 560 1038 532 1039 q 618 1038 589 1038 q 680 1038 647 1039 q 735 1011 713 1038 q 746 992 742 1003 q 754 969 750 981 q 768 926 763 949 q 771 879 774 903 q 771 872 771 876 q 769 864 771 868 q 751 835 764 847 q 721 815 738 824 q 713 812 718 814 q 704 807 708 810 q 701 800 703 804 q 696 793 699 796 q 692 788 694 792 q 689 783 689 785 q 690 780 689 782 q 693 776 692 778 q 697 767 696 772 q 703 758 699 761 q 711 751 706 754 q 721 743 717 747 q 747 717 736 731 q 771 680 761 700 q 799 644 781 660 q 823 627 810 635 q 847 608 836 619 q 868 585 858 600 q 885 557 878 572 q 899 526 892 542 q 922 478 911 503 q 944 429 933 454 q 968 372 957 408 q 981 297 979 335 q 971 236 983 260 m 19 428 q 26 457 22 443 q 35 483 29 471 q 65 535 47 511 q 96 586 83 558 q 113 629 106 607 q 133 672 121 651 q 151 697 142 685 q 165 722 160 708 q 172 743 169 732 q 178 765 174 754 q 180 772 179 768 q 183 779 181 776 q 187 784 185 782 q 190 788 189 786 q 198 795 194 790 q 204 801 201 800 q 212 803 207 803 q 219 806 217 804 q 275 804 247 814 q 285 801 279 803 q 293 797 290 800 q 299 789 296 794 q 303 779 301 783 q 306 776 304 778 q 307 772 307 774 q 303 762 307 768 q 299 751 300 756 q 288 736 294 743 q 276 722 282 729 q 256 686 264 704 q 240 650 249 668 q 214 621 232 632 q 199 615 207 617 q 183 610 190 614 q 176 606 179 608 q 168 600 172 603 q 163 597 165 599 q 158 594 160 596 q 153 587 156 592 q 150 578 151 582 q 138 547 142 564 q 129 514 135 531 q 113 472 124 492 q 89 433 101 453 q 76 416 83 425 q 63 401 69 407 q 53 395 58 397 q 43 390 47 393 q 40 389 42 390 q 36 388 39 388 q 33 392 35 388 q 29 397 31 396 q 24 403 26 400 q 19 410 21 407 q 19 417 18 413 q 19 428 19 422 m 356 358 q 351 386 353 371 q 354 414 350 401 q 357 420 354 417 q 361 426 360 424 q 365 433 363 429 q 368 440 367 438 q 374 444 371 442 q 381 447 378 446 q 430 465 403 463 q 482 468 457 467 q 508 471 496 469 q 533 471 521 472 q 542 472 538 471 q 549 471 546 472 q 560 466 554 469 q 569 460 565 463 q 574 458 572 458 q 576 456 575 457 q 578 452 578 454 q 581 449 579 450 q 585 438 582 443 q 590 428 589 433 q 592 404 593 417 q 589 381 592 392 q 576 328 586 356 q 549 281 567 301 q 519 253 536 265 q 486 228 501 242 q 467 211 476 219 q 444 196 457 203 q 438 192 442 194 q 431 189 435 189 q 424 188 428 188 q 419 189 421 189 q 408 188 414 189 q 399 189 403 188 q 394 192 397 190 q 389 196 392 194 q 381 201 385 199 q 372 207 376 203 q 358 224 364 214 q 349 244 353 235 q 346 251 347 247 q 344 258 344 254 q 347 288 342 274 q 354 318 351 303 q 356 358 357 336 m 507 375 q 498 384 503 378 q 489 392 493 390 q 485 391 486 392 q 481 390 483 390 q 469 389 476 389 q 458 388 463 389 q 453 380 456 385 q 447 372 450 375 q 444 368 447 371 q 442 364 442 365 q 444 358 442 361 q 449 353 447 354 q 452 346 450 351 q 457 339 454 340 q 463 339 458 339 q 469 339 467 339 q 477 338 472 339 q 486 338 482 338 q 494 343 490 339 q 501 350 499 347 q 507 353 503 350 q 511 357 511 356 q 507 375 514 361 z "},"7":{"ha":868,"x_min":-10,"x_max":882,"o":"m 785 697 q 799 697 790 696 q 813 696 807 697 q 821 691 817 694 q 829 685 825 688 q 834 682 831 683 q 839 679 838 681 q 840 676 840 678 q 842 671 840 674 q 844 661 842 667 q 846 651 846 656 q 845 646 846 649 q 843 640 844 643 q 840 626 842 633 q 836 611 838 619 q 831 573 832 593 q 819 536 829 553 q 797 505 811 518 q 771 475 782 492 q 767 469 769 472 q 764 463 764 467 q 759 433 758 449 q 757 404 760 418 q 747 376 754 392 q 729 350 739 363 q 713 324 719 338 q 700 295 704 310 q 689 268 696 281 q 661 234 678 249 q 633 200 644 219 q 619 157 621 179 q 611 114 617 135 q 586 60 604 86 q 544 18 568 33 q 499 0 524 4 q 451 -7 475 -4 q 387 -15 419 -11 q 324 -17 354 -18 q 207 -3 265 -15 q 165 10 183 1 q 160 12 163 11 q 154 15 157 13 q 149 20 151 17 q 144 26 146 24 q 138 33 142 29 q 133 39 135 36 q 132 47 132 42 q 131 54 132 51 q 129 61 131 57 q 128 69 128 65 q 129 76 128 72 q 132 83 131 81 q 140 113 135 99 q 153 140 146 126 q 163 160 157 150 q 175 179 168 171 q 197 199 185 190 q 219 218 210 208 q 246 272 242 242 q 248 317 250 294 q 250 363 246 340 q 283 435 258 394 q 329 506 308 475 q 344 533 338 519 q 351 561 350 546 q 353 568 351 564 q 354 575 354 572 q 351 581 353 578 q 349 586 349 585 q 345 594 347 589 q 340 600 343 599 q 334 605 339 603 q 326 608 329 607 q 294 617 311 615 q 260 618 276 618 q 191 625 228 621 q 122 632 154 629 q 87 635 104 633 q 53 646 69 638 q 44 649 49 647 q 38 653 40 650 q 28 663 33 656 q 19 675 22 669 q 10 696 14 685 q 4 718 7 707 q -6 771 -3 743 q -3 824 -10 799 q 10 858 1 842 q 28 889 18 874 q 47 924 36 906 q 74 953 58 942 q 115 970 92 965 q 160 978 139 975 q 183 978 172 978 q 204 974 193 978 q 212 972 207 972 q 219 969 217 971 q 224 960 222 967 q 226 949 225 953 q 229 944 228 946 q 229 942 231 943 q 228 938 229 939 q 225 935 226 938 q 219 926 222 931 q 213 918 217 921 q 206 914 210 915 q 199 910 203 913 q 175 901 188 904 q 150 894 163 897 q 138 892 143 893 q 126 889 132 892 q 78 844 94 878 q 64 779 63 810 q 64 769 64 775 q 64 760 64 764 q 68 751 65 756 q 74 743 71 747 q 76 738 75 740 q 79 732 76 735 q 85 728 81 731 q 92 725 89 726 q 121 715 106 718 q 153 710 136 713 q 188 706 169 708 q 222 703 206 703 q 290 710 254 704 q 356 711 325 715 q 401 699 381 708 q 438 671 422 690 q 442 665 439 668 q 446 660 444 663 q 449 651 449 656 q 450 643 450 647 q 453 636 451 640 q 454 628 454 632 q 451 604 456 617 q 442 581 447 592 q 406 524 428 550 q 369 465 383 497 q 353 409 360 439 q 344 351 346 379 q 349 307 344 329 q 351 263 353 285 q 344 233 350 247 q 332 206 339 218 q 307 172 321 188 q 276 142 293 156 q 263 131 271 136 q 249 118 254 125 q 242 109 244 114 q 238 100 240 104 q 235 97 238 99 q 233 93 233 96 q 236 91 235 92 q 239 89 238 90 q 245 81 242 86 q 253 75 249 76 q 260 74 256 74 q 267 75 264 75 q 294 77 281 75 q 321 81 307 79 q 383 85 351 85 q 444 83 414 85 q 486 85 468 82 q 492 85 489 85 q 497 88 494 86 q 504 92 500 89 q 511 99 508 96 q 515 102 513 100 q 519 106 518 104 q 522 111 521 108 q 524 117 522 114 q 532 157 529 135 q 538 206 535 182 q 553 253 540 231 q 572 278 561 267 q 589 301 582 289 q 606 344 601 321 q 622 386 611 367 q 651 422 633 406 q 675 458 668 438 q 681 488 681 472 q 688 518 682 504 q 703 542 693 531 q 721 567 714 554 q 728 594 726 579 q 728 625 731 610 q 732 654 726 640 q 744 674 736 665 q 761 688 753 682 q 770 693 765 690 q 785 697 775 696 m 604 965 q 616 967 610 965 q 628 969 622 969 q 638 967 633 969 q 647 964 643 965 q 653 963 650 963 q 658 961 657 963 q 666 952 663 958 q 672 942 669 946 q 675 939 674 940 q 676 935 676 938 q 674 930 676 933 q 671 925 672 926 q 666 917 668 922 q 661 908 664 911 q 658 906 660 907 q 654 906 656 906 q 643 900 649 903 q 633 896 638 897 q 621 897 628 896 q 608 899 614 899 q 605 899 607 899 q 601 900 603 899 q 594 905 597 901 q 588 910 590 908 q 583 914 586 911 q 579 918 579 917 q 578 926 578 921 q 579 933 579 931 q 578 941 579 936 q 579 949 578 946 q 581 951 579 950 q 585 953 583 951 q 593 958 589 956 q 604 965 597 961 m 790 936 q 801 951 794 943 q 803 955 803 953 q 806 958 804 957 q 815 957 808 958 q 825 956 821 956 q 830 954 826 954 q 835 953 833 954 q 841 948 838 951 q 846 943 844 944 q 864 923 856 933 q 876 899 872 913 q 880 890 878 896 q 882 879 882 883 q 878 872 882 876 q 872 864 874 867 q 870 860 871 863 q 868 858 869 858 q 865 858 867 857 q 861 858 863 858 q 849 858 856 858 q 839 860 843 858 q 832 864 835 861 q 826 868 829 867 q 790 936 790 892 m 806 751 q 802 763 804 756 q 800 775 800 769 q 805 785 801 779 q 811 794 808 790 q 813 798 813 796 q 815 800 813 800 q 819 801 817 801 q 822 801 821 801 q 833 803 826 801 q 843 803 839 804 q 849 799 846 801 q 854 793 851 796 q 860 790 857 792 q 865 785 864 788 q 870 777 868 782 q 875 768 872 772 q 877 764 875 767 q 879 758 879 761 q 880 748 881 754 q 879 736 879 742 q 879 733 879 735 q 878 729 879 731 q 876 726 878 726 q 871 725 874 726 q 860 719 867 724 q 850 715 854 715 q 845 717 849 715 q 840 719 842 719 q 831 722 836 721 q 822 726 826 724 q 814 736 818 729 q 806 751 810 743 z "},"8":{"ha":989,"x_min":-8,"x_max":933,"o":"m 69 742 q 66 756 68 749 q 63 769 64 763 q 64 776 63 772 q 67 783 65 781 q 83 822 71 804 q 104 858 94 840 q 121 887 113 872 q 138 917 129 901 q 151 937 143 926 q 168 954 158 947 q 175 958 171 957 q 182 961 179 960 q 219 970 200 968 q 257 978 239 972 q 321 1002 289 986 q 383 1024 353 1018 q 443 1029 414 1029 q 503 1031 472 1029 q 549 1035 525 1032 q 596 1032 574 1038 q 636 1011 619 1026 q 674 985 653 996 q 715 970 693 974 q 758 957 738 967 q 794 931 779 947 q 828 900 810 914 q 860 878 843 888 q 889 856 876 868 q 895 850 892 853 q 900 844 899 847 q 913 802 914 825 q 910 757 911 779 q 908 726 908 742 q 910 696 908 711 q 924 644 914 669 q 929 590 933 618 q 928 583 929 588 q 926 575 928 579 q 924 571 926 574 q 919 567 921 568 q 897 540 908 550 q 892 535 894 538 q 886 529 889 532 q 883 522 885 526 q 879 514 882 518 q 877 509 879 513 q 875 503 875 506 q 876 493 875 499 q 879 483 878 488 q 895 443 883 463 q 914 403 907 424 q 917 396 915 400 q 918 389 918 392 q 917 378 918 383 q 915 368 917 374 q 916 365 915 367 q 915 360 917 363 q 912 359 914 358 q 907 358 910 360 q 898 356 904 358 q 889 354 892 354 q 883 358 886 356 q 879 361 881 360 q 849 388 864 372 q 815 447 826 413 q 800 513 803 482 q 798 538 799 525 q 800 561 797 550 q 810 589 803 578 q 824 607 815 599 q 840 625 833 615 q 846 631 843 628 q 850 636 849 633 q 856 665 856 650 q 853 694 856 681 q 846 724 850 710 q 839 754 842 739 q 833 785 836 769 q 822 814 831 801 q 805 829 815 822 q 786 842 794 836 q 755 862 771 851 q 721 876 739 872 q 682 881 701 882 q 643 882 663 879 q 636 882 640 882 q 628 883 632 882 q 601 899 615 888 q 591 909 596 903 q 581 919 586 915 q 569 928 575 924 q 557 938 563 933 q 543 942 551 940 q 528 944 535 943 q 503 948 515 947 q 478 951 490 949 q 427 960 453 956 q 378 957 401 964 q 338 935 356 950 q 301 907 321 919 q 290 901 296 904 q 278 894 283 899 q 246 884 263 888 q 215 874 229 881 q 203 867 208 871 q 193 858 199 863 q 185 851 189 856 q 178 842 182 846 q 156 810 165 826 q 138 776 147 793 q 131 763 135 771 q 122 751 128 756 q 117 744 119 747 q 110 738 114 740 q 108 735 110 736 q 106 732 107 733 q 102 732 104 732 q 99 732 100 732 q 87 733 93 733 q 76 733 81 732 q 69 742 74 735 m 385 732 q 399 765 392 749 q 421 794 407 782 q 425 801 422 797 q 431 806 428 804 q 440 808 435 807 q 447 808 444 808 q 456 810 451 808 q 464 810 460 811 q 483 806 472 810 q 503 797 494 801 q 535 781 521 788 q 573 758 553 769 q 608 732 593 747 q 616 724 611 728 q 624 715 621 719 q 628 703 626 710 q 631 692 629 697 q 632 688 631 690 q 633 685 633 686 q 632 681 633 682 q 631 676 631 679 q 628 666 629 672 q 624 654 626 660 q 608 636 618 644 q 588 622 597 628 q 512 598 556 601 q 436 604 468 594 q 389 632 408 613 q 383 636 386 633 q 378 642 381 639 q 376 649 376 644 q 374 656 375 653 q 370 663 372 658 q 368 669 368 667 q 372 700 367 685 q 385 732 378 715 m 63 658 q 78 658 74 658 q 83 659 81 658 q 86 658 85 660 q 86 654 86 658 q 86 647 86 650 q 86 639 86 643 q 87 635 86 638 q 86 632 88 633 q 83 632 85 631 q 78 633 81 633 q 70 635 74 635 q 63 636 67 636 q 58 638 58 638 q 58 642 58 638 q 59 650 58 646 q 63 658 60 654 m 910 139 q 897 115 904 126 q 879 94 890 104 q 856 76 868 85 q 832 57 843 67 q 800 24 815 43 q 764 -4 785 6 q 750 -9 758 -7 q 736 -12 742 -11 q 713 -15 725 -14 q 690 -15 701 -15 q 653 -18 672 -17 q 614 -19 633 -19 q 582 -19 599 -19 q 550 -19 565 -18 q 497 -43 522 -24 q 485 -54 490 -49 q 475 -64 481 -60 q 466 -69 471 -67 q 458 -74 461 -71 q 453 -77 456 -75 q 447 -79 450 -79 q 442 -80 446 -81 q 436 -79 439 -79 q 426 -80 432 -79 q 417 -79 421 -81 q 410 -76 414 -78 q 404 -72 407 -74 q 373 -49 388 -62 q 340 -31 358 -36 q 296 -22 319 -22 q 251 -11 272 -21 q 223 9 236 -3 q 196 29 210 21 q 158 49 178 40 q 124 71 139 57 q 94 108 106 86 q 69 147 82 129 q 34 201 53 168 q 3 265 15 233 q -6 318 -8 297 q 20 384 -1 349 q 58 450 42 419 q 75 486 68 468 q 89 524 82 504 q 103 547 93 533 q 106 552 104 549 q 110 557 108 556 q 116 557 113 557 q 122 557 119 557 q 128 559 124 558 q 135 558 133 560 q 138 553 136 558 q 140 547 139 549 q 144 540 142 544 q 147 533 146 536 q 147 530 147 532 q 146 526 146 528 q 144 515 144 521 q 142 504 143 508 q 128 475 136 489 q 113 447 119 461 q 88 391 99 421 q 76 331 78 361 q 85 265 74 300 q 113 200 97 229 q 133 165 122 182 q 158 136 143 149 q 194 114 175 124 q 232 94 214 104 q 258 76 246 86 q 286 61 271 67 q 330 51 307 53 q 375 44 353 49 q 403 40 389 42 q 433 40 418 38 q 461 51 447 43 q 489 61 475 58 q 504 63 496 63 q 519 63 513 64 q 550 58 535 63 q 581 50 565 54 q 633 41 606 44 q 686 42 660 38 q 710 46 697 43 q 733 54 724 49 q 756 76 747 63 q 776 100 765 89 q 811 128 792 117 q 846 158 831 140 q 858 176 853 167 q 869 196 864 186 q 874 201 872 197 q 879 207 876 206 q 888 209 882 208 q 897 210 893 210 q 901 211 899 210 q 904 211 903 213 q 906 208 906 210 q 908 204 907 206 q 915 195 911 200 q 919 186 918 190 q 919 181 919 185 q 918 175 918 178 q 916 158 918 167 q 910 139 914 150 m 625 247 q 619 234 622 242 q 613 222 617 226 q 594 209 606 214 q 574 201 583 204 q 521 196 547 194 q 469 199 494 197 q 444 199 456 200 q 419 201 432 199 q 410 203 415 203 q 403 206 406 203 q 399 209 401 206 q 396 214 397 213 q 389 222 393 218 q 382 229 385 225 q 380 236 381 232 q 379 244 379 240 q 376 297 374 269 q 389 347 379 324 q 403 374 394 361 q 424 397 413 388 q 460 412 440 410 q 500 413 481 414 q 551 397 525 408 q 593 365 576 386 q 611 335 604 353 q 622 301 618 318 q 627 275 625 289 q 625 247 629 261 m 476 290 q 490 282 482 286 q 493 279 492 281 q 496 278 494 278 q 505 282 499 278 q 514 288 511 286 q 517 289 517 289 q 513 294 517 290 q 508 297 510 297 q 503 303 507 299 q 497 308 500 308 q 494 307 496 308 q 490 306 492 306 q 481 303 488 304 q 472 299 475 301 q 476 290 471 297 z "},"9":{"ha":949,"x_min":11,"x_max":943,"o":"m 872 742 q 842 804 857 772 q 804 863 826 836 q 778 888 793 876 q 744 903 763 899 q 685 903 715 910 q 626 904 656 897 q 574 933 597 913 q 522 964 550 954 q 482 971 503 971 q 440 969 461 971 q 390 962 417 967 q 342 947 364 957 q 313 931 326 940 q 289 913 300 922 q 265 891 276 903 q 242 867 253 879 q 231 856 236 861 q 221 844 226 850 q 210 837 215 842 q 200 829 206 832 q 159 811 181 818 q 121 790 138 804 q 76 715 83 760 q 75 670 72 693 q 75 625 78 647 q 65 581 72 603 q 63 535 58 558 q 65 527 64 531 q 68 521 67 524 q 120 460 83 489 q 188 404 157 431 q 222 373 206 389 q 261 350 239 357 q 306 342 282 342 q 351 333 331 342 q 358 330 354 332 q 364 325 361 328 q 371 322 367 324 q 378 317 375 319 q 381 311 379 315 q 385 304 383 307 q 388 298 386 301 q 392 292 390 294 q 393 283 393 288 q 394 276 393 279 q 389 228 397 251 q 368 185 381 206 q 356 166 363 175 q 342 150 350 157 q 332 142 338 146 q 321 135 326 139 q 299 123 311 128 q 278 110 288 118 q 271 106 275 108 q 265 101 267 104 q 261 92 263 99 q 258 82 260 86 q 257 78 258 81 q 256 75 256 76 q 259 72 257 72 q 263 69 261 71 q 271 63 267 67 q 279 57 275 58 q 288 56 282 56 q 297 56 293 56 q 347 66 324 54 q 397 78 371 78 q 428 74 414 78 q 444 65 436 71 q 460 57 451 60 q 468 53 464 54 q 476 49 472 51 q 481 47 479 49 q 483 46 482 46 q 490 48 486 46 q 494 51 493 50 q 504 54 499 53 q 513 58 510 56 q 520 67 517 61 q 526 76 524 72 q 537 91 532 83 q 549 106 542 99 q 576 135 561 122 q 606 163 590 149 q 651 226 633 190 q 694 292 668 261 q 700 297 697 293 q 706 303 703 301 q 713 306 708 304 q 721 308 717 307 q 726 310 722 308 q 732 313 729 313 q 738 307 733 313 q 744 299 743 301 q 749 295 746 297 q 753 292 751 293 q 753 284 754 289 q 753 275 753 279 q 749 249 753 261 q 742 224 746 236 q 724 176 732 200 q 706 131 715 153 q 689 94 699 113 q 663 65 679 76 q 635 51 650 56 q 607 43 621 47 q 580 31 593 38 q 556 14 567 24 q 534 -17 543 0 q 513 -47 525 -33 q 508 -53 510 -50 q 503 -58 506 -56 q 494 -61 499 -60 q 486 -64 490 -62 q 481 -67 485 -65 q 475 -68 478 -68 q 468 -68 472 -69 q 461 -67 464 -67 q 453 -66 457 -67 q 446 -64 449 -65 q 419 -50 432 -60 q 394 -32 407 -40 q 368 -19 382 -25 q 340 -11 354 -12 q 290 -10 315 -7 q 239 -8 264 -12 q 230 -8 235 -8 q 221 -6 225 -7 q 215 -2 218 -4 q 207 3 211 0 q 202 6 206 4 q 197 10 199 7 q 187 28 190 17 q 183 50 183 39 q 197 106 182 79 q 228 158 213 133 q 241 178 235 168 q 256 196 247 188 q 274 210 264 203 q 293 224 283 217 q 299 228 294 225 q 306 233 304 231 q 306 242 307 236 q 304 250 304 247 q 304 254 304 254 q 297 258 303 256 q 289 261 292 260 q 266 269 278 265 q 243 279 254 272 q 210 304 225 290 q 176 331 194 318 q 126 360 153 347 q 78 396 99 374 q 56 428 65 411 q 38 464 46 446 q 17 518 24 479 q 12 602 11 557 q 17 686 13 647 q 31 740 22 725 q 49 809 38 772 q 86 872 60 846 q 122 901 101 889 q 161 924 142 913 q 203 949 183 936 q 244 974 224 961 q 287 997 265 985 q 331 1015 308 1008 q 399 1029 361 1026 q 468 1033 436 1032 q 508 1033 488 1033 q 549 1028 529 1032 q 605 1004 579 1021 q 661 979 631 988 q 715 976 682 972 q 782 978 749 979 q 836 958 815 978 q 862 931 851 947 q 879 896 872 914 q 903 835 893 867 q 925 772 914 803 q 934 747 929 758 q 940 721 939 735 q 942 713 940 718 q 942 706 943 707 q 936 703 940 704 q 931 700 932 701 q 924 698 928 700 q 918 696 921 696 q 913 699 917 696 q 906 704 908 703 q 899 708 903 706 q 893 713 896 710 q 883 726 888 718 q 872 742 879 733 m 565 565 q 544 538 556 551 q 519 514 533 525 q 513 510 517 513 q 507 506 510 507 q 501 504 504 504 q 494 504 497 504 q 487 502 492 503 q 479 501 482 501 q 472 504 475 501 q 464 508 468 507 q 439 526 450 515 q 418 549 428 536 q 405 565 411 556 q 394 583 399 574 q 392 636 385 610 q 410 688 400 663 q 417 710 413 699 q 426 732 421 722 q 432 740 428 736 q 439 749 436 744 q 441 752 440 750 q 443 754 442 754 q 450 758 446 757 q 458 758 454 758 q 465 762 461 760 q 472 764 469 764 q 479 762 475 764 q 486 760 483 760 q 524 736 507 753 q 537 718 531 728 q 549 700 543 708 q 569 658 560 679 q 578 615 578 638 q 578 607 578 611 q 578 600 579 603 q 574 583 578 592 q 565 565 569 575 m 468 613 q 474 607 471 610 q 479 601 476 604 q 482 599 482 599 q 485 601 483 599 q 488 604 486 603 q 494 611 489 607 q 501 618 500 615 q 499 624 501 619 q 494 632 496 629 q 493 638 494 633 q 490 642 492 642 q 485 640 489 643 q 481 638 481 638 q 473 635 478 636 q 467 632 468 633 q 465 623 464 629 q 468 613 465 617 m 875 619 q 878 625 876 622 q 883 631 881 628 q 885 635 885 633 q 888 638 886 636 q 893 636 889 638 q 899 633 897 635 q 908 631 903 632 q 915 629 913 631 q 921 619 918 626 q 925 608 924 613 q 927 606 926 607 q 928 601 928 604 q 924 593 928 599 q 919 585 921 588 q 917 582 917 582 q 913 581 915 581 q 910 582 911 582 q 899 583 906 583 q 890 586 893 583 q 887 590 889 586 q 883 594 885 593 q 876 605 879 600 q 875 619 872 610 m 925 506 q 931 493 928 500 q 933 481 933 486 q 931 472 933 476 q 929 464 929 468 q 927 457 928 461 q 925 449 926 453 q 921 442 924 446 q 915 436 918 439 q 897 413 907 424 q 874 393 886 403 q 844 374 858 381 q 838 369 842 371 q 831 365 835 367 q 819 365 826 364 q 807 367 813 365 q 803 366 806 367 q 800 367 801 365 q 795 373 797 368 q 792 379 793 378 q 788 384 790 381 q 785 389 785 388 q 788 395 785 392 q 792 400 792 399 q 797 407 794 403 q 801 414 799 411 q 812 424 806 419 q 824 433 818 428 q 843 461 835 446 q 861 490 851 476 q 867 500 864 494 q 874 510 869 506 q 883 515 878 513 q 892 518 888 517 q 894 521 893 519 q 899 522 896 522 q 902 521 900 522 q 906 518 904 519 q 916 514 910 517 q 925 506 922 511 z "},"A":{"ha":1049,"x_min":-29,"x_max":1075,"o":"m 460 972 q 468 967 464 969 q 476 961 472 964 q 480 960 478 961 q 482 958 482 960 q 483 951 483 956 q 483 943 483 946 q 485 935 485 940 q 486 929 486 931 q 481 924 485 926 q 476 922 478 922 q 469 915 474 919 q 461 910 465 911 q 457 910 458 910 q 453 911 456 911 q 440 911 447 911 q 429 914 433 911 q 421 919 425 915 q 413 926 417 924 q 409 929 411 928 q 407 932 407 931 q 406 940 406 935 q 407 949 407 946 q 406 954 407 950 q 407 961 406 958 q 411 964 407 963 q 417 967 415 965 q 424 972 419 968 q 433 976 429 975 q 444 976 438 978 q 460 972 451 974 m 1051 -54 q 1040 -63 1046 -58 q 1028 -71 1035 -68 q 1021 -73 1025 -72 q 1014 -74 1017 -74 q 960 -74 986 -81 q 907 -64 935 -67 q 847 -65 878 -61 q 786 -58 815 -68 q 758 -42 771 -53 q 731 -22 744 -32 q 710 -7 721 -14 q 688 8 699 0 q 662 34 672 19 q 640 64 651 49 q 635 72 638 68 q 631 81 633 76 q 622 86 626 83 q 614 92 618 89 q 609 97 611 94 q 604 100 607 99 q 598 100 601 100 q 592 100 594 100 q 582 101 588 101 q 572 101 576 101 q 559 99 565 101 q 547 96 553 97 q 508 89 528 90 q 469 86 489 88 q 432 79 450 85 q 427 77 431 78 q 422 75 424 76 q 417 69 419 72 q 413 63 414 65 q 392 29 400 47 q 367 0 383 11 q 360 -4 364 -3 q 353 -7 356 -6 q 332 -15 343 -11 q 311 -25 321 -19 q 276 -52 292 -35 q 238 -76 260 -69 q 212 -78 225 -79 q 186 -74 199 -76 q 153 -67 169 -71 q 118 -65 136 -64 q 72 -70 96 -65 q 26 -68 49 -75 q 18 -65 22 -67 q 10 -60 14 -62 q -10 -43 0 -54 q -14 -37 -11 -40 q -18 -31 -17 -35 q -20 -24 -19 -28 q -22 -17 -21 -21 q -24 37 -29 10 q -18 90 -19 64 q -20 137 -18 114 q -19 183 -22 160 q 4 238 -14 211 q 24 261 13 250 q 43 283 35 272 q 51 295 47 289 q 58 307 54 301 q 77 353 72 328 q 92 400 82 378 q 122 453 103 429 q 150 507 140 476 q 160 558 158 528 q 163 618 163 588 q 168 669 164 649 q 179 732 172 700 q 200 793 186 764 q 225 832 211 814 q 253 869 239 850 q 266 886 260 878 q 279 903 272 894 q 285 911 282 907 q 290 918 288 915 q 300 922 294 921 q 310 925 306 924 q 313 926 311 925 q 317 928 315 928 q 319 924 319 926 q 321 921 319 922 q 326 913 322 917 q 331 904 329 908 q 330 898 331 901 q 329 893 329 894 q 327 879 328 886 q 325 867 326 872 q 316 824 322 844 q 300 782 310 803 q 264 712 283 751 q 233 640 244 672 q 224 596 226 618 q 217 551 222 574 q 206 520 213 535 q 194 489 200 506 q 181 446 188 468 q 165 401 174 424 q 136 342 153 381 q 103 266 119 304 q 71 207 86 228 q 54 140 57 176 q 53 72 51 104 q 52 59 53 67 q 53 46 51 51 q 58 38 54 42 q 63 29 61 33 q 65 23 64 26 q 68 18 67 19 q 76 15 71 17 q 83 14 81 14 q 92 11 88 13 q 99 8 96 10 q 127 8 113 7 q 156 11 142 10 q 201 14 178 13 q 247 26 225 15 q 272 42 260 33 q 297 60 285 51 q 322 76 310 68 q 347 92 335 83 q 371 110 360 100 q 394 128 382 121 q 422 140 407 136 q 451 147 438 144 q 482 152 467 150 q 510 161 497 154 q 535 181 524 169 q 558 201 546 193 q 566 204 563 203 q 574 207 569 206 q 580 209 576 207 q 588 211 583 211 q 594 210 590 211 q 601 208 599 210 q 609 208 604 208 q 617 206 614 207 q 622 201 619 204 q 628 194 625 197 q 649 163 640 181 q 668 131 657 146 q 676 120 672 125 q 685 110 681 115 q 707 90 694 99 q 731 72 719 81 q 770 45 750 58 q 814 25 790 32 q 838 19 825 21 q 864 17 851 18 q 892 16 878 17 q 921 17 907 15 q 931 17 925 17 q 940 18 936 17 q 944 22 942 19 q 949 26 947 25 q 956 31 951 28 q 961 36 960 33 q 961 48 963 40 q 960 60 960 56 q 956 93 960 76 q 953 126 953 110 q 955 172 953 150 q 953 217 957 194 q 948 242 951 229 q 942 268 944 256 q 926 318 935 293 q 906 365 918 343 q 883 406 896 386 q 860 447 869 426 q 848 476 853 461 q 835 503 843 490 q 807 538 824 522 q 782 575 790 554 q 774 604 775 589 q 775 633 774 619 q 777 649 775 642 q 781 664 779 656 q 771 724 783 693 q 762 742 767 733 q 753 760 757 750 q 736 799 744 779 q 717 838 728 818 q 695 872 707 856 q 675 907 683 889 q 670 920 671 914 q 668 935 669 926 q 667 938 668 936 q 667 943 667 940 q 672 949 668 946 q 676 956 675 953 q 679 962 678 958 q 683 967 681 965 q 689 967 685 967 q 694 968 693 968 q 703 969 699 968 q 711 969 708 971 q 715 968 714 969 q 718 965 717 967 q 726 958 721 961 q 733 951 731 956 q 738 944 736 949 q 742 935 740 939 q 750 916 746 925 q 760 899 754 907 q 786 863 771 879 q 813 826 801 846 q 828 790 821 808 q 843 751 836 771 q 851 730 847 742 q 858 707 856 718 q 863 684 861 696 q 867 661 864 672 q 868 654 868 658 q 871 646 868 650 q 889 622 876 632 q 911 601 901 613 q 932 563 925 585 q 935 556 933 560 q 938 549 936 553 q 935 527 938 539 q 929 506 932 515 q 926 498 928 501 q 924 490 924 494 q 926 463 922 478 q 931 453 928 457 q 935 444 933 449 q 944 425 939 435 q 951 406 949 415 q 960 377 957 392 q 971 349 964 363 q 993 310 979 328 q 1014 271 1007 292 q 1021 240 1019 256 q 1022 208 1022 224 q 1019 177 1022 193 q 1018 146 1017 161 q 1028 99 1019 122 q 1049 56 1038 76 q 1060 35 1054 44 q 1069 14 1065 25 q 1072 7 1071 11 q 1074 0 1074 3 q 1069 -31 1075 -17 q 1062 -42 1067 -36 q 1051 -54 1057 -47 m 610 950 q 617 935 615 940 q 619 931 618 933 q 621 928 621 929 q 617 924 621 926 q 611 922 613 922 q 603 916 608 919 q 596 913 599 913 q 592 914 593 913 q 589 917 590 915 q 576 925 585 919 q 573 926 575 925 q 569 928 571 926 q 571 935 569 931 q 574 940 572 939 q 574 947 574 942 q 576 953 575 951 q 580 953 578 953 q 585 953 582 953 q 597 953 590 953 q 610 950 603 954 m 442 393 q 428 435 435 414 q 421 476 421 456 q 427 528 419 501 q 444 576 435 554 q 465 611 454 596 q 469 616 467 613 q 474 621 471 619 q 478 622 475 622 q 485 624 482 622 q 494 627 489 625 q 503 629 499 629 q 532 624 518 629 q 539 619 536 622 q 544 614 542 617 q 565 594 557 606 q 581 569 574 582 q 597 531 589 550 q 611 492 604 511 q 623 464 617 478 q 633 436 629 450 q 641 402 639 421 q 636 367 643 383 q 633 358 635 364 q 629 350 631 351 q 621 349 626 349 q 614 349 615 349 q 590 350 601 349 q 567 351 579 351 q 532 347 549 353 q 497 340 515 342 q 488 340 494 340 q 479 339 482 339 q 476 342 478 340 q 474 344 475 343 q 464 351 469 347 q 456 358 458 354 q 448 375 451 365 q 442 393 444 385 m 546 463 q 541 471 543 467 q 536 479 539 475 q 535 483 536 481 q 533 486 535 486 q 526 483 532 486 q 519 479 521 481 q 515 477 519 479 q 511 474 511 475 q 511 471 510 472 q 513 467 513 469 q 515 456 514 464 q 519 446 517 449 q 525 443 521 444 q 531 442 529 442 q 537 439 532 442 q 543 438 542 436 q 543 440 543 438 q 545 451 544 446 q 546 463 546 456 z "},"":{"ha":1049,"x_min":-29,"x_max":1075,"o":"m 460 972 q 468 967 464 969 q 476 961 472 964 q 480 960 478 961 q 482 958 482 960 q 483 951 483 956 q 483 943 483 946 q 485 935 485 940 q 486 929 486 931 q 481 924 485 926 q 476 922 478 922 q 469 915 474 919 q 461 910 465 911 q 457 910 458 910 q 453 911 456 911 q 440 911 447 911 q 429 914 433 911 q 421 919 425 915 q 413 926 417 924 q 409 929 411 928 q 407 932 407 931 q 406 940 406 935 q 407 949 407 946 q 406 954 407 950 q 407 961 406 958 q 411 964 407 963 q 417 967 415 965 q 424 972 419 968 q 433 976 429 975 q 444 976 438 978 q 460 972 451 974 m 1051 -54 q 1040 -63 1046 -58 q 1028 -71 1035 -68 q 1021 -73 1025 -72 q 1014 -74 1017 -74 q 960 -74 986 -81 q 907 -64 935 -67 q 847 -65 878 -61 q 786 -58 815 -68 q 758 -42 771 -53 q 731 -22 744 -32 q 710 -7 721 -14 q 688 8 699 0 q 662 34 672 19 q 640 64 651 49 q 635 72 638 68 q 631 81 633 76 q 622 86 626 83 q 614 92 618 89 q 609 97 611 94 q 604 100 607 99 q 598 100 601 100 q 592 100 594 100 q 582 101 588 101 q 572 101 576 101 q 559 99 565 101 q 547 96 553 97 q 508 89 528 90 q 469 86 489 88 q 432 79 450 85 q 427 77 431 78 q 422 75 424 76 q 417 69 419 72 q 413 63 414 65 q 392 29 400 47 q 367 0 383 11 q 360 -4 364 -3 q 353 -7 356 -6 q 332 -15 343 -11 q 311 -25 321 -19 q 276 -52 292 -35 q 238 -76 260 -69 q 212 -78 225 -79 q 186 -74 199 -76 q 153 -67 169 -71 q 118 -65 136 -64 q 72 -70 96 -65 q 26 -68 49 -75 q 18 -65 22 -67 q 10 -60 14 -62 q -10 -43 0 -54 q -14 -37 -11 -40 q -18 -31 -17 -35 q -20 -24 -19 -28 q -22 -17 -21 -21 q -24 37 -29 10 q -18 90 -19 64 q -20 137 -18 114 q -19 183 -22 160 q 4 238 -14 211 q 24 261 13 250 q 43 283 35 272 q 51 295 47 289 q 58 307 54 301 q 77 353 72 328 q 92 400 82 378 q 122 453 103 429 q 150 507 140 476 q 160 558 158 528 q 163 618 163 588 q 168 669 164 649 q 179 732 172 700 q 200 793 186 764 q 225 832 211 814 q 253 869 239 850 q 266 886 260 878 q 279 903 272 894 q 285 911 282 907 q 290 918 288 915 q 300 922 294 921 q 310 925 306 924 q 313 926 311 925 q 317 928 315 928 q 319 924 319 926 q 321 921 319 922 q 326 913 322 917 q 331 904 329 908 q 330 898 331 901 q 329 893 329 894 q 327 879 328 886 q 325 867 326 872 q 316 824 322 844 q 300 782 310 803 q 264 712 283 751 q 233 640 244 672 q 224 596 226 618 q 217 551 222 574 q 206 520 213 535 q 194 489 200 506 q 181 446 188 468 q 165 401 174 424 q 136 342 153 381 q 103 266 119 304 q 71 207 86 228 q 54 140 57 176 q 53 72 51 104 q 52 59 53 67 q 53 46 51 51 q 58 38 54 42 q 63 29 61 33 q 65 23 64 26 q 68 18 67 19 q 76 15 71 17 q 83 14 81 14 q 92 11 88 13 q 99 8 96 10 q 127 8 113 7 q 156 11 142 10 q 201 14 178 13 q 247 26 225 15 q 272 42 260 33 q 297 60 285 51 q 322 76 310 68 q 347 92 335 83 q 371 110 360 100 q 394 128 382 121 q 422 140 407 136 q 451 147 438 144 q 482 152 467 150 q 510 161 497 154 q 535 181 524 169 q 558 201 546 193 q 566 204 563 203 q 574 207 569 206 q 580 209 576 207 q 588 211 583 211 q 594 210 590 211 q 601 208 599 210 q 609 208 604 208 q 617 206 614 207 q 622 201 619 204 q 628 194 625 197 q 649 163 640 181 q 668 131 657 146 q 676 120 672 125 q 685 110 681 115 q 707 90 694 99 q 731 72 719 81 q 770 45 750 58 q 814 25 790 32 q 838 19 825 21 q 864 17 851 18 q 892 16 878 17 q 921 17 907 15 q 931 17 925 17 q 940 18 936 17 q 944 22 942 19 q 949 26 947 25 q 956 31 951 28 q 961 36 960 33 q 961 48 963 40 q 960 60 960 56 q 956 93 960 76 q 953 126 953 110 q 955 172 953 150 q 953 217 957 194 q 948 242 951 229 q 942 268 944 256 q 926 318 935 293 q 906 365 918 343 q 883 406 896 386 q 860 447 869 426 q 848 476 853 461 q 835 503 843 490 q 807 538 824 522 q 782 575 790 554 q 774 604 775 589 q 775 633 774 619 q 777 649 775 642 q 781 664 779 656 q 771 724 783 693 q 762 742 767 733 q 753 760 757 750 q 736 799 744 779 q 717 838 728 818 q 695 872 707 856 q 675 907 683 889 q 670 920 671 914 q 668 935 669 926 q 667 938 668 936 q 667 943 667 940 q 672 949 668 946 q 676 956 675 953 q 679 962 678 958 q 683 967 681 965 q 689 967 685 967 q 694 968 693 968 q 703 969 699 968 q 711 969 708 971 q 715 968 714 969 q 718 965 717 967 q 726 958 721 961 q 733 951 731 956 q 738 944 736 949 q 742 935 740 939 q 750 916 746 925 q 760 899 754 907 q 786 863 771 879 q 813 826 801 846 q 828 790 821 808 q 843 751 836 771 q 851 730 847 742 q 858 707 856 718 q 863 684 861 696 q 867 661 864 672 q 868 654 868 658 q 871 646 868 650 q 889 622 876 632 q 911 601 901 613 q 932 563 925 585 q 935 556 933 560 q 938 549 936 553 q 935 527 938 539 q 929 506 932 515 q 926 498 928 501 q 924 490 924 494 q 926 463 922 478 q 931 453 928 457 q 935 444 933 449 q 944 425 939 435 q 951 406 949 415 q 960 377 957 392 q 971 349 964 363 q 993 310 979 328 q 1014 271 1007 292 q 1021 240 1019 256 q 1022 208 1022 224 q 1019 177 1022 193 q 1018 146 1017 161 q 1028 99 1019 122 q 1049 56 1038 76 q 1060 35 1054 44 q 1069 14 1065 25 q 1072 7 1071 11 q 1074 0 1074 3 q 1069 -31 1075 -17 q 1062 -42 1067 -36 q 1051 -54 1057 -47 m 610 950 q 617 935 615 940 q 619 931 618 933 q 621 928 621 929 q 617 924 621 926 q 611 922 613 922 q 603 916 608 919 q 596 913 599 913 q 592 914 593 913 q 589 917 590 915 q 576 925 585 919 q 573 926 575 925 q 569 928 571 926 q 571 935 569 931 q 574 940 572 939 q 574 947 574 942 q 576 953 575 951 q 580 953 578 953 q 585 953 582 953 q 597 953 590 953 q 610 950 603 954 m 442 393 q 428 435 435 414 q 421 476 421 456 q 427 528 419 501 q 444 576 435 554 q 465 611 454 596 q 469 616 467 613 q 474 621 471 619 q 478 622 475 622 q 485 624 482 622 q 494 627 489 625 q 503 629 499 629 q 532 624 518 629 q 539 619 536 622 q 544 614 542 617 q 565 594 557 606 q 581 569 574 582 q 597 531 589 550 q 611 492 604 511 q 623 464 617 478 q 633 436 629 450 q 641 402 639 421 q 636 367 643 383 q 633 358 635 364 q 629 350 631 351 q 621 349 626 349 q 614 349 615 349 q 590 350 601 349 q 567 351 579 351 q 532 347 549 353 q 497 340 515 342 q 488 340 494 340 q 479 339 482 339 q 476 342 478 340 q 474 344 475 343 q 464 351 469 347 q 456 358 458 354 q 448 375 451 365 q 442 393 444 385 m 546 463 q 541 471 543 467 q 536 479 539 475 q 535 483 536 481 q 533 486 535 486 q 526 483 532 486 q 519 479 521 481 q 515 477 519 479 q 511 474 511 475 q 511 471 510 472 q 513 467 513 469 q 515 456 514 464 q 519 446 517 449 q 525 443 521 444 q 531 442 529 442 q 537 439 532 442 q 543 438 542 436 q 543 440 543 438 q 545 451 544 446 q 546 463 546 456 m 796 1135 q 758 1102 776 1118 q 718 1072 739 1086 q 697 1059 708 1065 q 675 1049 686 1053 q 630 1039 653 1040 q 585 1029 607 1038 q 557 1017 571 1025 q 528 1006 543 1010 q 521 1004 525 1004 q 513 1004 517 1004 q 506 1003 510 1004 q 497 1003 501 1003 q 474 1010 486 1004 q 453 1024 463 1017 q 429 1039 440 1031 q 408 1058 418 1047 q 404 1064 407 1061 q 399 1069 401 1067 q 394 1092 394 1079 q 393 1114 393 1104 q 406 1166 394 1142 q 433 1211 417 1190 q 474 1247 451 1233 q 521 1275 497 1261 q 553 1291 538 1283 q 588 1303 569 1299 q 663 1308 618 1310 q 738 1308 707 1307 q 778 1316 758 1310 q 818 1324 797 1322 q 828 1324 822 1324 q 836 1325 833 1325 q 845 1320 840 1324 q 853 1314 850 1317 q 856 1312 854 1313 q 860 1310 858 1311 q 860 1302 861 1307 q 860 1294 860 1297 q 860 1289 860 1293 q 858 1283 860 1285 q 851 1277 857 1281 q 843 1271 846 1274 q 831 1265 836 1267 q 818 1264 825 1264 q 784 1260 801 1260 q 750 1260 767 1260 q 689 1249 719 1258 q 675 1243 682 1246 q 661 1238 668 1240 q 616 1234 639 1232 q 571 1231 593 1236 q 522 1210 546 1225 q 485 1175 499 1196 q 472 1144 476 1163 q 470 1139 471 1142 q 469 1133 469 1136 q 471 1128 469 1131 q 472 1122 472 1125 q 474 1114 474 1118 q 476 1106 475 1110 q 481 1102 478 1104 q 486 1099 485 1100 q 492 1093 489 1096 q 499 1089 496 1090 q 505 1088 501 1088 q 511 1086 508 1088 q 536 1085 524 1085 q 561 1086 549 1085 q 590 1090 575 1088 q 618 1097 604 1092 q 644 1113 632 1103 q 667 1131 656 1122 q 702 1158 683 1146 q 739 1183 721 1171 q 763 1203 750 1193 q 789 1217 775 1213 q 800 1220 794 1219 q 811 1221 806 1221 q 815 1223 814 1222 q 819 1222 817 1224 q 826 1216 822 1221 q 833 1208 831 1211 q 837 1206 835 1207 q 839 1203 839 1204 q 839 1199 840 1201 q 838 1194 838 1197 q 835 1185 836 1190 q 832 1175 835 1179 q 828 1168 831 1171 q 822 1163 825 1165 q 796 1135 813 1151 z "},"":{"ha":1049,"x_min":-29,"x_max":1075,"o":"m 460 972 q 468 967 464 969 q 476 961 472 964 q 480 960 478 961 q 482 958 482 960 q 483 951 483 956 q 483 943 483 946 q 485 935 485 940 q 486 929 486 931 q 481 924 485 926 q 476 922 478 922 q 469 915 474 919 q 461 910 465 911 q 457 910 458 910 q 453 911 456 911 q 440 911 447 911 q 429 914 433 911 q 421 919 425 915 q 413 926 417 924 q 409 929 411 928 q 407 932 407 931 q 406 940 406 935 q 407 949 407 946 q 406 954 407 950 q 407 961 406 958 q 411 964 407 963 q 417 967 415 965 q 424 972 419 968 q 433 976 429 975 q 444 976 438 978 q 460 972 451 974 m 1051 -54 q 1040 -63 1046 -58 q 1028 -71 1035 -68 q 1021 -73 1025 -72 q 1014 -74 1017 -74 q 960 -74 986 -81 q 907 -64 935 -67 q 847 -65 878 -61 q 786 -58 815 -68 q 758 -42 771 -53 q 731 -22 744 -32 q 710 -7 721 -14 q 688 8 699 0 q 662 34 672 19 q 640 64 651 49 q 635 72 638 68 q 631 81 633 76 q 622 86 626 83 q 614 92 618 89 q 609 97 611 94 q 604 100 607 99 q 598 100 601 100 q 592 100 594 100 q 582 101 588 101 q 572 101 576 101 q 559 99 565 101 q 547 96 553 97 q 508 89 528 90 q 469 86 489 88 q 432 79 450 85 q 427 77 431 78 q 422 75 424 76 q 417 69 419 72 q 413 63 414 65 q 392 29 400 47 q 367 0 383 11 q 360 -4 364 -3 q 353 -7 356 -6 q 332 -15 343 -11 q 311 -25 321 -19 q 276 -52 292 -35 q 238 -76 260 -69 q 212 -78 225 -79 q 186 -74 199 -76 q 153 -67 169 -71 q 118 -65 136 -64 q 72 -70 96 -65 q 26 -68 49 -75 q 18 -65 22 -67 q 10 -60 14 -62 q -10 -43 0 -54 q -14 -37 -11 -40 q -18 -31 -17 -35 q -20 -24 -19 -28 q -22 -17 -21 -21 q -24 37 -29 10 q -18 90 -19 64 q -20 137 -18 114 q -19 183 -22 160 q 4 238 -14 211 q 24 261 13 250 q 43 283 35 272 q 51 295 47 289 q 58 307 54 301 q 77 353 72 328 q 92 400 82 378 q 122 453 103 429 q 150 507 140 476 q 160 558 158 528 q 163 618 163 588 q 168 669 164 649 q 179 732 172 700 q 200 793 186 764 q 225 832 211 814 q 253 869 239 850 q 266 886 260 878 q 279 903 272 894 q 285 911 282 907 q 290 918 288 915 q 300 922 294 921 q 310 925 306 924 q 313 926 311 925 q 317 928 315 928 q 319 924 319 926 q 321 921 319 922 q 326 913 322 917 q 331 904 329 908 q 330 898 331 901 q 329 893 329 894 q 327 879 328 886 q 325 867 326 872 q 316 824 322 844 q 300 782 310 803 q 264 712 283 751 q 233 640 244 672 q 224 596 226 618 q 217 551 222 574 q 206 520 213 535 q 194 489 200 506 q 181 446 188 468 q 165 401 174 424 q 136 342 153 381 q 103 266 119 304 q 71 207 86 228 q 54 140 57 176 q 53 72 51 104 q 52 59 53 67 q 53 46 51 51 q 58 38 54 42 q 63 29 61 33 q 65 23 64 26 q 68 18 67 19 q 76 15 71 17 q 83 14 81 14 q 92 11 88 13 q 99 8 96 10 q 127 8 113 7 q 156 11 142 10 q 201 14 178 13 q 247 26 225 15 q 272 42 260 33 q 297 60 285 51 q 322 76 310 68 q 347 92 335 83 q 371 110 360 100 q 394 128 382 121 q 422 140 407 136 q 451 147 438 144 q 482 152 467 150 q 510 161 497 154 q 535 181 524 169 q 558 201 546 193 q 566 204 563 203 q 574 207 569 206 q 580 209 576 207 q 588 211 583 211 q 594 210 590 211 q 601 208 599 210 q 609 208 604 208 q 617 206 614 207 q 622 201 619 204 q 628 194 625 197 q 649 163 640 181 q 668 131 657 146 q 676 120 672 125 q 685 110 681 115 q 707 90 694 99 q 731 72 719 81 q 770 45 750 58 q 814 25 790 32 q 838 19 825 21 q 864 17 851 18 q 892 16 878 17 q 921 17 907 15 q 931 17 925 17 q 940 18 936 17 q 944 22 942 19 q 949 26 947 25 q 956 31 951 28 q 961 36 960 33 q 961 48 963 40 q 960 60 960 56 q 956 93 960 76 q 953 126 953 110 q 955 172 953 150 q 953 217 957 194 q 948 242 951 229 q 942 268 944 256 q 926 318 935 293 q 906 365 918 343 q 883 406 896 386 q 860 447 869 426 q 848 476 853 461 q 835 503 843 490 q 807 538 824 522 q 782 575 790 554 q 774 604 775 589 q 775 633 774 619 q 777 649 775 642 q 781 664 779 656 q 771 724 783 693 q 762 742 767 733 q 753 760 757 750 q 736 799 744 779 q 717 838 728 818 q 695 872 707 856 q 675 907 683 889 q 670 920 671 914 q 668 935 669 926 q 667 938 668 936 q 667 943 667 940 q 672 949 668 946 q 676 956 675 953 q 679 962 678 958 q 683 967 681 965 q 689 967 685 967 q 694 968 693 968 q 703 969 699 968 q 711 969 708 971 q 715 968 714 969 q 718 965 717 967 q 726 958 721 961 q 733 951 731 956 q 738 944 736 949 q 742 935 740 939 q 750 916 746 925 q 760 899 754 907 q 786 863 771 879 q 813 826 801 846 q 828 790 821 808 q 843 751 836 771 q 851 730 847 742 q 858 707 856 718 q 863 684 861 696 q 867 661 864 672 q 868 654 868 658 q 871 646 868 650 q 889 622 876 632 q 911 601 901 613 q 932 563 925 585 q 935 556 933 560 q 938 549 936 553 q 935 527 938 539 q 929 506 932 515 q 926 498 928 501 q 924 490 924 494 q 926 463 922 478 q 931 453 928 457 q 935 444 933 449 q 944 425 939 435 q 951 406 949 415 q 960 377 957 392 q 971 349 964 363 q 993 310 979 328 q 1014 271 1007 292 q 1021 240 1019 256 q 1022 208 1022 224 q 1019 177 1022 193 q 1018 146 1017 161 q 1028 99 1019 122 q 1049 56 1038 76 q 1060 35 1054 44 q 1069 14 1065 25 q 1072 7 1071 11 q 1074 0 1074 3 q 1069 -31 1075 -17 q 1062 -42 1067 -36 q 1051 -54 1057 -47 m 610 950 q 617 935 615 940 q 619 931 618 933 q 621 928 621 929 q 617 924 621 926 q 611 922 613 922 q 603 916 608 919 q 596 913 599 913 q 592 914 593 913 q 589 917 590 915 q 576 925 585 919 q 573 926 575 925 q 569 928 571 926 q 571 935 569 931 q 574 940 572 939 q 574 947 574 942 q 576 953 575 951 q 580 953 578 953 q 585 953 582 953 q 597 953 590 953 q 610 950 603 954 m 442 393 q 428 435 435 414 q 421 476 421 456 q 427 528 419 501 q 444 576 435 554 q 465 611 454 596 q 469 616 467 613 q 474 621 471 619 q 478 622 475 622 q 485 624 482 622 q 494 627 489 625 q 503 629 499 629 q 532 624 518 629 q 539 619 536 622 q 544 614 542 617 q 565 594 557 606 q 581 569 574 582 q 597 531 589 550 q 611 492 604 511 q 623 464 617 478 q 633 436 629 450 q 641 402 639 421 q 636 367 643 383 q 633 358 635 364 q 629 350 631 351 q 621 349 626 349 q 614 349 615 349 q 590 350 601 349 q 567 351 579 351 q 532 347 549 353 q 497 340 515 342 q 488 340 494 340 q 479 339 482 339 q 476 342 478 340 q 474 344 475 343 q 464 351 469 347 q 456 358 458 354 q 448 375 451 365 q 442 393 444 385 m 546 463 q 541 471 543 467 q 536 479 539 475 q 535 483 536 481 q 533 486 535 486 q 526 483 532 486 q 519 479 521 481 q 515 477 519 479 q 511 474 511 475 q 511 471 510 472 q 513 467 513 469 q 515 456 514 464 q 519 446 517 449 q 525 443 521 444 q 531 442 529 442 q 537 439 532 442 q 543 438 542 436 q 543 440 543 438 q 545 451 544 446 q 546 463 546 456 m 731 1115 q 710 1075 721 1096 q 683 1040 700 1054 q 643 1023 665 1025 q 599 1017 621 1021 q 576 1010 588 1014 q 556 1004 565 1007 q 547 1001 551 1003 q 540 1000 543 1000 q 496 1010 517 999 q 454 1029 475 1021 q 410 1042 433 1038 q 369 1058 388 1046 q 347 1078 357 1067 q 328 1100 336 1090 q 299 1127 314 1115 q 271 1153 285 1139 q 256 1172 264 1161 q 244 1193 247 1182 q 245 1202 244 1197 q 246 1211 246 1207 q 245 1217 246 1214 q 246 1222 244 1219 q 262 1256 249 1240 q 289 1281 275 1271 q 369 1313 319 1304 q 450 1313 418 1322 q 508 1292 479 1306 q 568 1286 536 1278 q 595 1298 582 1290 q 622 1310 608 1306 q 670 1320 644 1318 q 719 1321 696 1322 q 731 1319 725 1319 q 742 1318 736 1319 q 751 1315 746 1318 q 760 1311 756 1313 q 765 1309 761 1310 q 771 1307 769 1308 q 773 1297 772 1304 q 775 1288 774 1290 q 776 1284 775 1286 q 776 1281 778 1282 q 774 1277 776 1278 q 771 1275 772 1276 q 762 1267 767 1272 q 753 1261 757 1263 q 740 1258 747 1258 q 726 1256 732 1257 q 694 1249 710 1253 q 664 1238 679 1246 q 647 1226 656 1233 q 631 1214 639 1219 q 596 1189 614 1201 q 560 1167 578 1176 q 549 1160 554 1164 q 536 1154 543 1156 q 526 1153 532 1153 q 517 1153 521 1153 q 510 1152 514 1153 q 506 1151 507 1151 q 500 1155 503 1153 q 496 1158 497 1157 q 484 1166 489 1163 q 474 1176 479 1169 q 463 1199 468 1188 q 450 1219 457 1210 q 383 1251 425 1249 q 353 1247 368 1253 q 347 1245 350 1246 q 342 1243 343 1244 q 338 1236 339 1240 q 333 1229 336 1232 q 331 1224 333 1226 q 328 1218 329 1221 q 331 1211 328 1215 q 333 1204 333 1207 q 345 1182 339 1192 q 358 1161 351 1172 q 375 1128 367 1144 q 397 1100 383 1113 q 401 1094 399 1097 q 408 1090 404 1092 q 441 1079 422 1081 q 476 1076 460 1078 q 501 1073 489 1075 q 525 1071 514 1071 q 561 1072 543 1069 q 597 1079 579 1075 q 622 1085 608 1082 q 644 1093 635 1088 q 683 1132 668 1107 q 711 1179 697 1157 q 732 1203 719 1193 q 737 1206 733 1203 q 742 1210 740 1210 q 747 1204 743 1210 q 751 1197 750 1199 q 756 1194 753 1196 q 760 1189 760 1192 q 759 1181 761 1186 q 757 1175 757 1176 q 747 1144 754 1158 q 731 1115 740 1131 z "},"":{"ha":1049,"x_min":-29,"x_max":1075,"o":"m 460 972 q 468 967 464 969 q 476 961 472 964 q 480 960 478 961 q 482 958 482 960 q 483 951 483 956 q 483 943 483 946 q 485 935 485 940 q 486 929 486 931 q 481 924 485 926 q 476 922 478 922 q 469 915 474 919 q 461 910 465 911 q 457 910 458 910 q 453 911 456 911 q 440 911 447 911 q 429 914 433 911 q 421 919 425 915 q 413 926 417 924 q 409 929 411 928 q 407 932 407 931 q 406 940 406 935 q 407 949 407 946 q 406 954 407 950 q 407 961 406 958 q 411 964 407 963 q 417 967 415 965 q 424 972 419 968 q 433 976 429 975 q 444 976 438 978 q 460 972 451 974 m 1051 -54 q 1040 -63 1046 -58 q 1028 -71 1035 -68 q 1021 -73 1025 -72 q 1014 -74 1017 -74 q 960 -74 986 -81 q 907 -64 935 -67 q 847 -65 878 -61 q 786 -58 815 -68 q 758 -42 771 -53 q 731 -22 744 -32 q 710 -7 721 -14 q 688 8 699 0 q 662 34 672 19 q 640 64 651 49 q 635 72 638 68 q 631 81 633 76 q 622 86 626 83 q 614 92 618 89 q 609 97 611 94 q 604 100 607 99 q 598 100 601 100 q 592 100 594 100 q 582 101 588 101 q 572 101 576 101 q 559 99 565 101 q 547 96 553 97 q 508 89 528 90 q 469 86 489 88 q 432 79 450 85 q 427 77 431 78 q 422 75 424 76 q 417 69 419 72 q 413 63 414 65 q 392 29 400 47 q 367 0 383 11 q 360 -4 364 -3 q 353 -7 356 -6 q 332 -15 343 -11 q 311 -25 321 -19 q 276 -52 292 -35 q 238 -76 260 -69 q 212 -78 225 -79 q 186 -74 199 -76 q 153 -67 169 -71 q 118 -65 136 -64 q 72 -70 96 -65 q 26 -68 49 -75 q 18 -65 22 -67 q 10 -60 14 -62 q -10 -43 0 -54 q -14 -37 -11 -40 q -18 -31 -17 -35 q -20 -24 -19 -28 q -22 -17 -21 -21 q -24 37 -29 10 q -18 90 -19 64 q -20 137 -18 114 q -19 183 -22 160 q 4 238 -14 211 q 24 261 13 250 q 43 283 35 272 q 51 295 47 289 q 58 307 54 301 q 77 353 72 328 q 92 400 82 378 q 122 453 103 429 q 150 507 140 476 q 160 558 158 528 q 163 618 163 588 q 168 669 164 649 q 179 732 172 700 q 200 793 186 764 q 225 832 211 814 q 253 869 239 850 q 266 886 260 878 q 279 903 272 894 q 285 911 282 907 q 290 918 288 915 q 300 922 294 921 q 310 925 306 924 q 313 926 311 925 q 317 928 315 928 q 319 924 319 926 q 321 921 319 922 q 326 913 322 917 q 331 904 329 908 q 330 898 331 901 q 329 893 329 894 q 327 879 328 886 q 325 867 326 872 q 316 824 322 844 q 300 782 310 803 q 264 712 283 751 q 233 640 244 672 q 224 596 226 618 q 217 551 222 574 q 206 520 213 535 q 194 489 200 506 q 181 446 188 468 q 165 401 174 424 q 136 342 153 381 q 103 266 119 304 q 71 207 86 228 q 54 140 57 176 q 53 72 51 104 q 52 59 53 67 q 53 46 51 51 q 58 38 54 42 q 63 29 61 33 q 65 23 64 26 q 68 18 67 19 q 76 15 71 17 q 83 14 81 14 q 92 11 88 13 q 99 8 96 10 q 127 8 113 7 q 156 11 142 10 q 201 14 178 13 q 247 26 225 15 q 272 42 260 33 q 297 60 285 51 q 322 76 310 68 q 347 92 335 83 q 371 110 360 100 q 394 128 382 121 q 422 140 407 136 q 451 147 438 144 q 482 152 467 150 q 510 161 497 154 q 535 181 524 169 q 558 201 546 193 q 566 204 563 203 q 574 207 569 206 q 580 209 576 207 q 588 211 583 211 q 594 210 590 211 q 601 208 599 210 q 609 208 604 208 q 617 206 614 207 q 622 201 619 204 q 628 194 625 197 q 649 163 640 181 q 668 131 657 146 q 676 120 672 125 q 685 110 681 115 q 707 90 694 99 q 731 72 719 81 q 770 45 750 58 q 814 25 790 32 q 838 19 825 21 q 864 17 851 18 q 892 16 878 17 q 921 17 907 15 q 931 17 925 17 q 940 18 936 17 q 944 22 942 19 q 949 26 947 25 q 956 31 951 28 q 961 36 960 33 q 961 48 963 40 q 960 60 960 56 q 956 93 960 76 q 953 126 953 110 q 955 172 953 150 q 953 217 957 194 q 948 242 951 229 q 942 268 944 256 q 926 318 935 293 q 906 365 918 343 q 883 406 896 386 q 860 447 869 426 q 848 476 853 461 q 835 503 843 490 q 807 538 824 522 q 782 575 790 554 q 774 604 775 589 q 775 633 774 619 q 777 649 775 642 q 781 664 779 656 q 771 724 783 693 q 762 742 767 733 q 753 760 757 750 q 736 799 744 779 q 717 838 728 818 q 695 872 707 856 q 675 907 683 889 q 670 920 671 914 q 668 935 669 926 q 667 938 668 936 q 667 943 667 940 q 672 949 668 946 q 676 956 675 953 q 679 962 678 958 q 683 967 681 965 q 689 967 685 967 q 694 968 693 968 q 703 969 699 968 q 711 969 708 971 q 715 968 714 969 q 718 965 717 967 q 726 958 721 961 q 733 951 731 956 q 738 944 736 949 q 742 935 740 939 q 750 916 746 925 q 760 899 754 907 q 786 863 771 879 q 813 826 801 846 q 828 790 821 808 q 843 751 836 771 q 851 730 847 742 q 858 707 856 718 q 863 684 861 696 q 867 661 864 672 q 868 654 868 658 q 871 646 868 650 q 889 622 876 632 q 911 601 901 613 q 932 563 925 585 q 935 556 933 560 q 938 549 936 553 q 935 527 938 539 q 929 506 932 515 q 926 498 928 501 q 924 490 924 494 q 926 463 922 478 q 931 453 928 457 q 935 444 933 449 q 944 425 939 435 q 951 406 949 415 q 960 377 957 392 q 971 349 964 363 q 993 310 979 328 q 1014 271 1007 292 q 1021 240 1019 256 q 1022 208 1022 224 q 1019 177 1022 193 q 1018 146 1017 161 q 1028 99 1019 122 q 1049 56 1038 76 q 1060 35 1054 44 q 1069 14 1065 25 q 1072 7 1071 11 q 1074 0 1074 3 q 1069 -31 1075 -17 q 1062 -42 1067 -36 q 1051 -54 1057 -47 m 610 950 q 617 935 615 940 q 619 931 618 933 q 621 928 621 929 q 617 924 621 926 q 611 922 613 922 q 603 916 608 919 q 596 913 599 913 q 592 914 593 913 q 589 917 590 915 q 576 925 585 919 q 573 926 575 925 q 569 928 571 926 q 571 935 569 931 q 574 940 572 939 q 574 947 574 942 q 576 953 575 951 q 580 953 578 953 q 585 953 582 953 q 597 953 590 953 q 610 950 603 954 m 442 393 q 428 435 435 414 q 421 476 421 456 q 427 528 419 501 q 444 576 435 554 q 465 611 454 596 q 469 616 467 613 q 474 621 471 619 q 478 622 475 622 q 485 624 482 622 q 494 627 489 625 q 503 629 499 629 q 532 624 518 629 q 539 619 536 622 q 544 614 542 617 q 565 594 557 606 q 581 569 574 582 q 597 531 589 550 q 611 492 604 511 q 623 464 617 478 q 633 436 629 450 q 641 402 639 421 q 636 367 643 383 q 633 358 635 364 q 629 350 631 351 q 621 349 626 349 q 614 349 615 349 q 590 350 601 349 q 567 351 579 351 q 532 347 549 353 q 497 340 515 342 q 488 340 494 340 q 479 339 482 339 q 476 342 478 340 q 474 344 475 343 q 464 351 469 347 q 456 358 458 354 q 448 375 451 365 q 442 393 444 385 m 546 463 q 541 471 543 467 q 536 479 539 475 q 535 483 536 481 q 533 486 535 486 q 526 483 532 486 q 519 479 521 481 q 515 477 519 479 q 511 474 511 475 q 511 471 510 472 q 513 467 513 469 q 515 456 514 464 q 519 446 517 449 q 525 443 521 444 q 531 442 529 442 q 537 439 532 442 q 543 438 542 436 q 543 440 543 438 q 545 451 544 446 q 546 463 546 456 m 714 1008 q 701 1006 707 1007 q 688 1004 694 1004 q 658 1011 674 1004 q 640 1022 649 1015 q 622 1035 631 1029 q 576 1066 601 1051 q 522 1079 550 1081 q 477 1067 500 1078 q 438 1043 454 1056 q 415 1022 425 1033 q 394 1001 406 1010 q 338 981 369 982 q 281 997 307 979 q 240 1049 253 1015 q 240 1115 228 1083 q 242 1122 242 1118 q 246 1129 243 1126 q 251 1135 247 1132 q 258 1143 256 1139 q 285 1166 271 1156 q 311 1190 299 1176 q 329 1215 321 1203 q 349 1239 338 1228 q 376 1263 361 1253 q 406 1283 390 1274 q 440 1305 422 1294 q 476 1319 457 1315 q 500 1324 488 1324 q 524 1326 513 1325 q 578 1325 550 1328 q 629 1308 606 1322 q 671 1274 653 1296 q 710 1236 689 1253 q 752 1208 729 1221 q 792 1176 775 1196 q 822 1117 811 1151 q 828 1050 833 1082 q 826 1043 826 1047 q 824 1035 825 1039 q 819 1026 822 1031 q 813 1018 815 1022 q 809 1013 811 1017 q 806 1008 807 1010 q 798 1008 803 1008 q 790 1008 793 1008 q 783 1008 788 1008 q 775 1008 779 1008 q 761 1013 768 1010 q 746 1015 754 1015 q 731 1013 739 1015 q 714 1008 724 1010 m 653 1215 q 633 1235 643 1225 q 610 1253 622 1246 q 586 1260 599 1258 q 561 1264 574 1263 q 494 1253 531 1265 q 429 1222 458 1242 q 408 1208 418 1215 q 389 1190 397 1200 q 371 1166 378 1179 q 356 1140 364 1153 q 347 1127 351 1133 q 339 1115 343 1121 q 331 1105 335 1110 q 324 1096 328 1100 q 321 1093 322 1094 q 319 1089 319 1092 q 322 1086 319 1089 q 327 1077 324 1083 q 333 1069 331 1071 q 339 1071 335 1069 q 344 1072 343 1072 q 385 1085 363 1075 q 446 1118 417 1099 q 471 1136 458 1126 q 497 1150 483 1146 q 508 1151 503 1151 q 518 1153 513 1151 q 524 1153 521 1153 q 531 1154 528 1154 q 538 1151 533 1153 q 544 1149 542 1150 q 574 1135 561 1144 q 600 1117 586 1126 q 634 1094 615 1104 q 674 1079 653 1083 q 683 1078 678 1079 q 692 1076 688 1076 q 701 1078 696 1076 q 711 1082 707 1081 q 716 1083 714 1082 q 719 1085 718 1083 q 725 1090 722 1086 q 729 1097 728 1094 q 733 1102 731 1099 q 736 1107 736 1106 q 737 1111 738 1110 q 735 1115 736 1113 q 734 1125 735 1119 q 732 1135 733 1131 q 728 1140 731 1138 q 724 1143 726 1142 q 700 1168 713 1157 q 653 1215 676 1188 z "},"":{"ha":1049,"x_min":-29,"x_max":1075,"o":"m 460 972 q 468 967 464 969 q 476 961 472 964 q 480 960 478 961 q 482 958 482 960 q 483 951 483 956 q 483 943 483 946 q 485 935 485 940 q 486 929 486 931 q 481 924 485 926 q 476 922 478 922 q 469 915 474 919 q 461 910 465 911 q 457 910 458 910 q 453 911 456 911 q 440 911 447 911 q 429 914 433 911 q 421 919 425 915 q 413 926 417 924 q 409 929 411 928 q 407 932 407 931 q 406 940 406 935 q 407 949 407 946 q 406 954 407 950 q 407 961 406 958 q 411 964 407 963 q 417 967 415 965 q 424 972 419 968 q 433 976 429 975 q 444 976 438 978 q 460 972 451 974 m 1051 -54 q 1040 -63 1046 -58 q 1028 -71 1035 -68 q 1021 -73 1025 -72 q 1014 -74 1017 -74 q 960 -74 986 -81 q 907 -64 935 -67 q 847 -65 878 -61 q 786 -58 815 -68 q 758 -42 771 -53 q 731 -22 744 -32 q 710 -7 721 -14 q 688 8 699 0 q 662 34 672 19 q 640 64 651 49 q 635 72 638 68 q 631 81 633 76 q 622 86 626 83 q 614 92 618 89 q 609 97 611 94 q 604 100 607 99 q 598 100 601 100 q 592 100 594 100 q 582 101 588 101 q 572 101 576 101 q 559 99 565 101 q 547 96 553 97 q 508 89 528 90 q 469 86 489 88 q 432 79 450 85 q 427 77 431 78 q 422 75 424 76 q 417 69 419 72 q 413 63 414 65 q 392 29 400 47 q 367 0 383 11 q 360 -4 364 -3 q 353 -7 356 -6 q 332 -15 343 -11 q 311 -25 321 -19 q 276 -52 292 -35 q 238 -76 260 -69 q 212 -78 225 -79 q 186 -74 199 -76 q 153 -67 169 -71 q 118 -65 136 -64 q 72 -70 96 -65 q 26 -68 49 -75 q 18 -65 22 -67 q 10 -60 14 -62 q -10 -43 0 -54 q -14 -37 -11 -40 q -18 -31 -17 -35 q -20 -24 -19 -28 q -22 -17 -21 -21 q -24 37 -29 10 q -18 90 -19 64 q -20 137 -18 114 q -19 183 -22 160 q 4 238 -14 211 q 24 261 13 250 q 43 283 35 272 q 51 295 47 289 q 58 307 54 301 q 77 353 72 328 q 92 400 82 378 q 122 453 103 429 q 150 507 140 476 q 160 558 158 528 q 163 618 163 588 q 168 669 164 649 q 179 732 172 700 q 200 793 186 764 q 225 832 211 814 q 253 869 239 850 q 266 886 260 878 q 279 903 272 894 q 285 911 282 907 q 290 918 288 915 q 300 922 294 921 q 310 925 306 924 q 313 926 311 925 q 317 928 315 928 q 319 924 319 926 q 321 921 319 922 q 326 913 322 917 q 331 904 329 908 q 330 898 331 901 q 329 893 329 894 q 327 879 328 886 q 325 867 326 872 q 316 824 322 844 q 300 782 310 803 q 264 712 283 751 q 233 640 244 672 q 224 596 226 618 q 217 551 222 574 q 206 520 213 535 q 194 489 200 506 q 181 446 188 468 q 165 401 174 424 q 136 342 153 381 q 103 266 119 304 q 71 207 86 228 q 54 140 57 176 q 53 72 51 104 q 52 59 53 67 q 53 46 51 51 q 58 38 54 42 q 63 29 61 33 q 65 23 64 26 q 68 18 67 19 q 76 15 71 17 q 83 14 81 14 q 92 11 88 13 q 99 8 96 10 q 127 8 113 7 q 156 11 142 10 q 201 14 178 13 q 247 26 225 15 q 272 42 260 33 q 297 60 285 51 q 322 76 310 68 q 347 92 335 83 q 371 110 360 100 q 394 128 382 121 q 422 140 407 136 q 451 147 438 144 q 482 152 467 150 q 510 161 497 154 q 535 181 524 169 q 558 201 546 193 q 566 204 563 203 q 574 207 569 206 q 580 209 576 207 q 588 211 583 211 q 594 210 590 211 q 601 208 599 210 q 609 208 604 208 q 617 206 614 207 q 622 201 619 204 q 628 194 625 197 q 649 163 640 181 q 668 131 657 146 q 676 120 672 125 q 685 110 681 115 q 707 90 694 99 q 731 72 719 81 q 770 45 750 58 q 814 25 790 32 q 838 19 825 21 q 864 17 851 18 q 892 16 878 17 q 921 17 907 15 q 931 17 925 17 q 940 18 936 17 q 944 22 942 19 q 949 26 947 25 q 956 31 951 28 q 961 36 960 33 q 961 48 963 40 q 960 60 960 56 q 956 93 960 76 q 953 126 953 110 q 955 172 953 150 q 953 217 957 194 q 948 242 951 229 q 942 268 944 256 q 926 318 935 293 q 906 365 918 343 q 883 406 896 386 q 860 447 869 426 q 848 476 853 461 q 835 503 843 490 q 807 538 824 522 q 782 575 790 554 q 774 604 775 589 q 775 633 774 619 q 777 649 775 642 q 781 664 779 656 q 771 724 783 693 q 762 742 767 733 q 753 760 757 750 q 736 799 744 779 q 717 838 728 818 q 695 872 707 856 q 675 907 683 889 q 670 920 671 914 q 668 935 669 926 q 667 938 668 936 q 667 943 667 940 q 672 949 668 946 q 676 956 675 953 q 679 962 678 958 q 683 967 681 965 q 689 967 685 967 q 694 968 693 968 q 703 969 699 968 q 711 969 708 971 q 715 968 714 969 q 718 965 717 967 q 726 958 721 961 q 733 951 731 956 q 738 944 736 949 q 742 935 740 939 q 750 916 746 925 q 760 899 754 907 q 786 863 771 879 q 813 826 801 846 q 828 790 821 808 q 843 751 836 771 q 851 730 847 742 q 858 707 856 718 q 863 684 861 696 q 867 661 864 672 q 868 654 868 658 q 871 646 868 650 q 889 622 876 632 q 911 601 901 613 q 932 563 925 585 q 935 556 933 560 q 938 549 936 553 q 935 527 938 539 q 929 506 932 515 q 926 498 928 501 q 924 490 924 494 q 926 463 922 478 q 931 453 928 457 q 935 444 933 449 q 944 425 939 435 q 951 406 949 415 q 960 377 957 392 q 971 349 964 363 q 993 310 979 328 q 1014 271 1007 292 q 1021 240 1019 256 q 1022 208 1022 224 q 1019 177 1022 193 q 1018 146 1017 161 q 1028 99 1019 122 q 1049 56 1038 76 q 1060 35 1054 44 q 1069 14 1065 25 q 1072 7 1071 11 q 1074 0 1074 3 q 1069 -31 1075 -17 q 1062 -42 1067 -36 q 1051 -54 1057 -47 m 610 950 q 617 935 615 940 q 619 931 618 933 q 621 928 621 929 q 617 924 621 926 q 611 922 613 922 q 603 916 608 919 q 596 913 599 913 q 592 914 593 913 q 589 917 590 915 q 576 925 585 919 q 573 926 575 925 q 569 928 571 926 q 571 935 569 931 q 574 940 572 939 q 574 947 574 942 q 576 953 575 951 q 580 953 578 953 q 585 953 582 953 q 597 953 590 953 q 610 950 603 954 m 442 393 q 428 435 435 414 q 421 476 421 456 q 427 528 419 501 q 444 576 435 554 q 465 611 454 596 q 469 616 467 613 q 474 621 471 619 q 478 622 475 622 q 485 624 482 622 q 494 627 489 625 q 503 629 499 629 q 532 624 518 629 q 539 619 536 622 q 544 614 542 617 q 565 594 557 606 q 581 569 574 582 q 597 531 589 550 q 611 492 604 511 q 623 464 617 478 q 633 436 629 450 q 641 402 639 421 q 636 367 643 383 q 633 358 635 364 q 629 350 631 351 q 621 349 626 349 q 614 349 615 349 q 590 350 601 349 q 567 351 579 351 q 532 347 549 353 q 497 340 515 342 q 488 340 494 340 q 479 339 482 339 q 476 342 478 340 q 474 344 475 343 q 464 351 469 347 q 456 358 458 354 q 448 375 451 365 q 442 393 444 385 m 546 463 q 541 471 543 467 q 536 479 539 475 q 535 483 536 481 q 533 486 535 486 q 526 483 532 486 q 519 479 521 481 q 515 477 519 479 q 511 474 511 475 q 511 471 510 472 q 513 467 513 469 q 515 456 514 464 q 519 446 517 449 q 525 443 521 444 q 531 442 529 442 q 537 439 532 442 q 543 438 542 436 q 543 440 543 438 q 545 451 544 446 q 546 463 546 456 m 796 1040 q 787 1031 792 1036 q 776 1021 782 1025 q 737 1005 758 1008 q 694 1000 715 1001 q 670 997 682 999 q 646 997 658 996 q 639 997 643 997 q 632 999 635 997 q 607 1014 618 1003 q 589 1038 596 1025 q 572 1089 574 1058 q 576 1150 571 1119 q 583 1201 581 1181 q 590 1248 588 1224 q 604 1292 592 1272 q 607 1299 606 1294 q 611 1304 608 1303 q 632 1317 619 1313 q 656 1322 644 1321 q 723 1310 686 1328 q 785 1268 760 1293 q 808 1240 799 1256 q 812 1235 810 1238 q 815 1231 814 1233 q 815 1223 815 1228 q 817 1215 815 1218 q 817 1207 817 1213 q 817 1200 818 1201 q 813 1197 817 1199 q 807 1194 808 1196 q 800 1190 804 1193 q 792 1188 796 1188 q 781 1191 788 1188 q 771 1196 775 1194 q 740 1211 756 1203 q 711 1228 725 1219 q 698 1236 706 1231 q 683 1243 690 1242 q 672 1242 679 1244 q 660 1240 665 1240 q 656 1240 658 1240 q 651 1239 653 1240 q 650 1235 650 1238 q 650 1231 650 1233 q 647 1218 649 1225 q 644 1204 644 1211 q 636 1149 642 1174 q 631 1129 635 1139 q 631 1111 628 1119 q 633 1103 632 1107 q 635 1096 633 1100 q 635 1092 635 1094 q 636 1089 635 1090 q 640 1087 638 1088 q 643 1086 642 1086 q 653 1083 649 1085 q 663 1081 657 1082 q 678 1083 669 1079 q 696 1086 688 1086 q 718 1087 707 1088 q 740 1088 729 1086 q 747 1088 743 1088 q 754 1089 751 1089 q 767 1098 761 1092 q 781 1108 774 1104 q 787 1111 783 1110 q 794 1114 790 1113 q 799 1116 796 1114 q 804 1118 803 1118 q 809 1112 807 1117 q 813 1104 811 1107 q 816 1100 814 1103 q 818 1094 818 1097 q 818 1090 819 1093 q 817 1083 817 1086 q 815 1074 815 1079 q 813 1065 814 1069 q 806 1053 810 1060 q 796 1040 801 1047 m 506 1104 q 494 1078 500 1092 q 478 1056 488 1065 q 442 1035 463 1042 q 404 1019 422 1028 q 375 1002 389 1011 q 343 992 361 993 q 319 994 332 992 q 296 996 307 996 q 258 1000 278 997 q 222 1014 238 1003 q 217 1021 219 1017 q 211 1029 214 1025 q 189 1074 196 1047 q 183 1125 182 1100 q 191 1162 185 1143 q 200 1200 197 1181 q 205 1231 203 1215 q 211 1260 207 1246 q 214 1267 213 1263 q 217 1274 215 1271 q 222 1279 218 1276 q 228 1285 225 1282 q 232 1290 229 1286 q 239 1294 235 1293 q 246 1297 242 1296 q 253 1299 250 1297 q 283 1304 268 1303 q 314 1307 299 1306 q 359 1314 336 1310 q 403 1311 382 1318 q 412 1310 407 1311 q 419 1307 417 1308 q 425 1302 422 1306 q 431 1296 428 1299 q 446 1277 440 1288 q 457 1256 451 1267 q 481 1210 468 1233 q 501 1164 493 1188 q 508 1135 506 1150 q 506 1104 510 1121 m 372 1256 q 338 1261 356 1260 q 304 1260 321 1263 q 294 1259 300 1260 q 285 1257 289 1258 q 279 1252 282 1256 q 274 1247 276 1249 q 267 1242 271 1244 q 263 1238 264 1240 q 259 1231 260 1235 q 257 1224 258 1226 q 251 1199 253 1211 q 246 1175 249 1188 q 242 1153 243 1164 q 239 1132 240 1143 q 238 1124 239 1129 q 238 1117 238 1119 q 242 1110 239 1114 q 246 1104 244 1107 q 249 1097 247 1101 q 254 1092 251 1093 q 262 1090 257 1090 q 269 1090 267 1090 q 292 1089 281 1089 q 314 1088 303 1089 q 344 1083 329 1086 q 374 1083 358 1081 q 414 1100 393 1086 q 422 1105 418 1103 q 426 1108 425 1107 q 445 1165 449 1132 q 424 1222 442 1199 q 402 1242 415 1235 q 372 1256 389 1249 z "},"":{"ha":1049,"x_min":-29,"x_max":1075,"o":"m 460 972 q 468 967 464 969 q 476 961 472 964 q 480 960 478 961 q 482 958 482 960 q 483 951 483 956 q 483 943 483 946 q 485 935 485 940 q 486 929 486 931 q 481 924 485 926 q 476 922 478 922 q 469 915 474 919 q 461 910 465 911 q 457 910 458 910 q 453 911 456 911 q 440 911 447 911 q 429 914 433 911 q 421 919 425 915 q 413 926 417 924 q 409 929 411 928 q 407 932 407 931 q 406 940 406 935 q 407 949 407 946 q 406 954 407 950 q 407 961 406 958 q 411 964 407 963 q 417 967 415 965 q 424 972 419 968 q 433 976 429 975 q 444 976 438 978 q 460 972 451 974 m 1051 -54 q 1040 -63 1046 -58 q 1028 -71 1035 -68 q 1021 -73 1025 -72 q 1014 -74 1017 -74 q 960 -74 986 -81 q 907 -64 935 -67 q 847 -65 878 -61 q 786 -58 815 -68 q 758 -42 771 -53 q 731 -22 744 -32 q 710 -7 721 -14 q 688 8 699 0 q 662 34 672 19 q 640 64 651 49 q 635 72 638 68 q 631 81 633 76 q 622 86 626 83 q 614 92 618 89 q 609 97 611 94 q 604 100 607 99 q 598 100 601 100 q 592 100 594 100 q 582 101 588 101 q 572 101 576 101 q 559 99 565 101 q 547 96 553 97 q 508 89 528 90 q 469 86 489 88 q 432 79 450 85 q 427 77 431 78 q 422 75 424 76 q 417 69 419 72 q 413 63 414 65 q 392 29 400 47 q 367 0 383 11 q 360 -4 364 -3 q 353 -7 356 -6 q 332 -15 343 -11 q 311 -25 321 -19 q 276 -52 292 -35 q 238 -76 260 -69 q 212 -78 225 -79 q 186 -74 199 -76 q 153 -67 169 -71 q 118 -65 136 -64 q 72 -70 96 -65 q 26 -68 49 -75 q 18 -65 22 -67 q 10 -60 14 -62 q -10 -43 0 -54 q -14 -37 -11 -40 q -18 -31 -17 -35 q -20 -24 -19 -28 q -22 -17 -21 -21 q -24 37 -29 10 q -18 90 -19 64 q -20 137 -18 114 q -19 183 -22 160 q 4 238 -14 211 q 24 261 13 250 q 43 283 35 272 q 51 295 47 289 q 58 307 54 301 q 77 353 72 328 q 92 400 82 378 q 122 453 103 429 q 150 507 140 476 q 160 558 158 528 q 163 618 163 588 q 168 669 164 649 q 179 732 172 700 q 200 793 186 764 q 225 832 211 814 q 253 869 239 850 q 266 886 260 878 q 279 903 272 894 q 285 911 282 907 q 290 918 288 915 q 300 922 294 921 q 310 925 306 924 q 313 926 311 925 q 317 928 315 928 q 319 924 319 926 q 321 921 319 922 q 326 913 322 917 q 331 904 329 908 q 330 898 331 901 q 329 893 329 894 q 327 879 328 886 q 325 867 326 872 q 316 824 322 844 q 300 782 310 803 q 264 712 283 751 q 233 640 244 672 q 224 596 226 618 q 217 551 222 574 q 206 520 213 535 q 194 489 200 506 q 181 446 188 468 q 165 401 174 424 q 136 342 153 381 q 103 266 119 304 q 71 207 86 228 q 54 140 57 176 q 53 72 51 104 q 52 59 53 67 q 53 46 51 51 q 58 38 54 42 q 63 29 61 33 q 65 23 64 26 q 68 18 67 19 q 76 15 71 17 q 83 14 81 14 q 92 11 88 13 q 99 8 96 10 q 127 8 113 7 q 156 11 142 10 q 201 14 178 13 q 247 26 225 15 q 272 42 260 33 q 297 60 285 51 q 322 76 310 68 q 347 92 335 83 q 371 110 360 100 q 394 128 382 121 q 422 140 407 136 q 451 147 438 144 q 482 152 467 150 q 510 161 497 154 q 535 181 524 169 q 558 201 546 193 q 566 204 563 203 q 574 207 569 206 q 580 209 576 207 q 588 211 583 211 q 594 210 590 211 q 601 208 599 210 q 609 208 604 208 q 617 206 614 207 q 622 201 619 204 q 628 194 625 197 q 649 163 640 181 q 668 131 657 146 q 676 120 672 125 q 685 110 681 115 q 707 90 694 99 q 731 72 719 81 q 770 45 750 58 q 814 25 790 32 q 838 19 825 21 q 864 17 851 18 q 892 16 878 17 q 921 17 907 15 q 931 17 925 17 q 940 18 936 17 q 944 22 942 19 q 949 26 947 25 q 956 31 951 28 q 961 36 960 33 q 961 48 963 40 q 960 60 960 56 q 956 93 960 76 q 953 126 953 110 q 955 172 953 150 q 953 217 957 194 q 948 242 951 229 q 942 268 944 256 q 926 318 935 293 q 906 365 918 343 q 883 406 896 386 q 860 447 869 426 q 848 476 853 461 q 835 503 843 490 q 807 538 824 522 q 782 575 790 554 q 774 604 775 589 q 775 633 774 619 q 777 649 775 642 q 781 664 779 656 q 771 724 783 693 q 762 742 767 733 q 753 760 757 750 q 736 799 744 779 q 717 838 728 818 q 695 872 707 856 q 675 907 683 889 q 670 920 671 914 q 668 935 669 926 q 667 938 668 936 q 667 943 667 940 q 672 949 668 946 q 676 956 675 953 q 679 962 678 958 q 683 967 681 965 q 689 967 685 967 q 694 968 693 968 q 703 969 699 968 q 711 969 708 971 q 715 968 714 969 q 718 965 717 967 q 726 958 721 961 q 733 951 731 956 q 738 944 736 949 q 742 935 740 939 q 750 916 746 925 q 760 899 754 907 q 786 863 771 879 q 813 826 801 846 q 828 790 821 808 q 843 751 836 771 q 851 730 847 742 q 858 707 856 718 q 863 684 861 696 q 867 661 864 672 q 868 654 868 658 q 871 646 868 650 q 889 622 876 632 q 911 601 901 613 q 932 563 925 585 q 935 556 933 560 q 938 549 936 553 q 935 527 938 539 q 929 506 932 515 q 926 498 928 501 q 924 490 924 494 q 926 463 922 478 q 931 453 928 457 q 935 444 933 449 q 944 425 939 435 q 951 406 949 415 q 960 377 957 392 q 971 349 964 363 q 993 310 979 328 q 1014 271 1007 292 q 1021 240 1019 256 q 1022 208 1022 224 q 1019 177 1022 193 q 1018 146 1017 161 q 1028 99 1019 122 q 1049 56 1038 76 q 1060 35 1054 44 q 1069 14 1065 25 q 1072 7 1071 11 q 1074 0 1074 3 q 1069 -31 1075 -17 q 1062 -42 1067 -36 q 1051 -54 1057 -47 m 610 950 q 617 935 615 940 q 619 931 618 933 q 621 928 621 929 q 617 924 621 926 q 611 922 613 922 q 603 916 608 919 q 596 913 599 913 q 592 914 593 913 q 589 917 590 915 q 576 925 585 919 q 573 926 575 925 q 569 928 571 926 q 571 935 569 931 q 574 940 572 939 q 574 947 574 942 q 576 953 575 951 q 580 953 578 953 q 585 953 582 953 q 597 953 590 953 q 610 950 603 954 m 442 393 q 428 435 435 414 q 421 476 421 456 q 427 528 419 501 q 444 576 435 554 q 465 611 454 596 q 469 616 467 613 q 474 621 471 619 q 478 622 475 622 q 485 624 482 622 q 494 627 489 625 q 503 629 499 629 q 532 624 518 629 q 539 619 536 622 q 544 614 542 617 q 565 594 557 606 q 581 569 574 582 q 597 531 589 550 q 611 492 604 511 q 623 464 617 478 q 633 436 629 450 q 641 402 639 421 q 636 367 643 383 q 633 358 635 364 q 629 350 631 351 q 621 349 626 349 q 614 349 615 349 q 590 350 601 349 q 567 351 579 351 q 532 347 549 353 q 497 340 515 342 q 488 340 494 340 q 479 339 482 339 q 476 342 478 340 q 474 344 475 343 q 464 351 469 347 q 456 358 458 354 q 448 375 451 365 q 442 393 444 385 m 546 463 q 541 471 543 467 q 536 479 539 475 q 535 483 536 481 q 533 486 535 486 q 526 483 532 486 q 519 479 521 481 q 515 477 519 479 q 511 474 511 475 q 511 471 510 472 q 513 467 513 469 q 515 456 514 464 q 519 446 517 449 q 525 443 521 444 q 531 442 529 442 q 537 439 532 442 q 543 438 542 436 q 543 440 543 438 q 545 451 544 446 q 546 463 546 456 m 557 1015 q 544 1013 550 1014 q 532 1010 538 1011 q 503 1000 518 1006 q 474 997 489 994 q 467 999 471 997 q 461 1003 464 1001 q 426 1024 442 1011 q 394 1047 411 1036 q 338 1085 367 1067 q 282 1121 310 1103 q 244 1148 263 1135 q 207 1176 225 1161 q 179 1226 185 1197 q 178 1233 179 1229 q 178 1240 176 1238 q 179 1249 178 1244 q 181 1256 181 1253 q 183 1264 182 1260 q 185 1271 183 1268 q 201 1290 190 1282 q 222 1304 211 1299 q 281 1323 249 1319 q 343 1326 313 1326 q 378 1324 361 1325 q 414 1324 396 1324 q 443 1324 428 1324 q 472 1322 458 1325 q 528 1295 503 1315 q 575 1253 554 1275 q 607 1209 593 1232 q 633 1163 621 1186 q 650 1128 642 1146 q 661 1092 658 1110 q 662 1080 663 1086 q 663 1068 661 1074 q 653 1017 663 1043 q 650 1010 651 1015 q 647 1003 649 1004 q 637 1001 644 1001 q 626 1001 629 1001 q 608 1006 617 1001 q 590 1013 600 1010 q 575 1015 583 1014 q 557 1015 567 1015 m 501 1235 q 491 1244 496 1239 q 482 1253 486 1250 q 453 1264 469 1260 q 420 1264 438 1267 q 386 1260 403 1261 q 340 1256 364 1257 q 293 1253 317 1254 q 269 1252 281 1253 q 246 1247 258 1251 q 240 1246 243 1247 q 235 1244 238 1244 q 231 1243 231 1243 q 232 1239 231 1243 q 235 1229 233 1235 q 240 1221 238 1224 q 249 1214 243 1217 q 260 1210 256 1211 q 290 1194 275 1200 q 321 1179 306 1188 q 373 1139 342 1161 q 435 1099 404 1117 q 486 1078 465 1082 q 530 1077 507 1075 q 571 1089 553 1079 q 580 1092 575 1090 q 588 1097 585 1094 q 591 1104 590 1100 q 593 1111 592 1108 q 597 1118 594 1114 q 599 1125 599 1122 q 597 1132 599 1128 q 596 1139 596 1136 q 594 1147 594 1143 q 592 1154 593 1151 q 561 1185 582 1174 q 525 1211 540 1197 q 514 1222 519 1215 q 501 1235 508 1228 z "},"":{"ha":1049,"x_min":-29,"x_max":1075,"o":"m 460 972 q 468 967 464 969 q 476 961 472 964 q 480 960 478 961 q 482 958 482 960 q 483 951 483 956 q 483 943 483 946 q 485 935 485 940 q 486 929 486 931 q 481 924 485 926 q 476 922 478 922 q 469 915 474 919 q 461 910 465 911 q 457 910 458 910 q 453 911 456 911 q 440 911 447 911 q 429 914 433 911 q 421 919 425 915 q 413 926 417 924 q 409 929 411 928 q 407 932 407 931 q 406 940 406 935 q 407 949 407 946 q 406 954 407 950 q 407 961 406 958 q 411 964 407 963 q 417 967 415 965 q 424 972 419 968 q 433 976 429 975 q 444 976 438 978 q 460 972 451 974 m 1051 -54 q 1040 -63 1046 -58 q 1028 -71 1035 -68 q 1021 -73 1025 -72 q 1014 -74 1017 -74 q 960 -74 986 -81 q 907 -64 935 -67 q 847 -65 878 -61 q 786 -58 815 -68 q 758 -42 771 -53 q 731 -22 744 -32 q 710 -7 721 -14 q 688 8 699 0 q 662 34 672 19 q 640 64 651 49 q 635 72 638 68 q 631 81 633 76 q 622 86 626 83 q 614 92 618 89 q 609 97 611 94 q 604 100 607 99 q 598 100 601 100 q 592 100 594 100 q 582 101 588 101 q 572 101 576 101 q 559 99 565 101 q 547 96 553 97 q 508 89 528 90 q 469 86 489 88 q 432 79 450 85 q 427 77 431 78 q 422 75 424 76 q 417 69 419 72 q 413 63 414 65 q 392 29 400 47 q 367 0 383 11 q 360 -4 364 -3 q 353 -7 356 -6 q 332 -15 343 -11 q 311 -25 321 -19 q 276 -52 292 -35 q 238 -76 260 -69 q 212 -78 225 -79 q 186 -74 199 -76 q 153 -67 169 -71 q 118 -65 136 -64 q 72 -70 96 -65 q 26 -68 49 -75 q 18 -65 22 -67 q 10 -60 14 -62 q -10 -43 0 -54 q -14 -37 -11 -40 q -18 -31 -17 -35 q -20 -24 -19 -28 q -22 -17 -21 -21 q -24 37 -29 10 q -18 90 -19 64 q -20 137 -18 114 q -19 183 -22 160 q 4 238 -14 211 q 24 261 13 250 q 43 283 35 272 q 51 295 47 289 q 58 307 54 301 q 77 353 72 328 q 92 400 82 378 q 122 453 103 429 q 150 507 140 476 q 160 558 158 528 q 163 618 163 588 q 168 669 164 649 q 179 732 172 700 q 200 793 186 764 q 225 832 211 814 q 253 869 239 850 q 266 886 260 878 q 279 903 272 894 q 285 911 282 907 q 290 918 288 915 q 300 922 294 921 q 310 925 306 924 q 313 926 311 925 q 317 928 315 928 q 319 924 319 926 q 321 921 319 922 q 326 913 322 917 q 331 904 329 908 q 330 898 331 901 q 329 893 329 894 q 327 879 328 886 q 325 867 326 872 q 316 824 322 844 q 300 782 310 803 q 264 712 283 751 q 233 640 244 672 q 224 596 226 618 q 217 551 222 574 q 206 520 213 535 q 194 489 200 506 q 181 446 188 468 q 165 401 174 424 q 136 342 153 381 q 103 266 119 304 q 71 207 86 228 q 54 140 57 176 q 53 72 51 104 q 52 59 53 67 q 53 46 51 51 q 58 38 54 42 q 63 29 61 33 q 65 23 64 26 q 68 18 67 19 q 76 15 71 17 q 83 14 81 14 q 92 11 88 13 q 99 8 96 10 q 127 8 113 7 q 156 11 142 10 q 201 14 178 13 q 247 26 225 15 q 272 42 260 33 q 297 60 285 51 q 322 76 310 68 q 347 92 335 83 q 371 110 360 100 q 394 128 382 121 q 422 140 407 136 q 451 147 438 144 q 482 152 467 150 q 510 161 497 154 q 535 181 524 169 q 558 201 546 193 q 566 204 563 203 q 574 207 569 206 q 580 209 576 207 q 588 211 583 211 q 594 210 590 211 q 601 208 599 210 q 609 208 604 208 q 617 206 614 207 q 622 201 619 204 q 628 194 625 197 q 649 163 640 181 q 668 131 657 146 q 676 120 672 125 q 685 110 681 115 q 707 90 694 99 q 731 72 719 81 q 770 45 750 58 q 814 25 790 32 q 838 19 825 21 q 864 17 851 18 q 892 16 878 17 q 921 17 907 15 q 931 17 925 17 q 940 18 936 17 q 944 22 942 19 q 949 26 947 25 q 956 31 951 28 q 961 36 960 33 q 961 48 963 40 q 960 60 960 56 q 956 93 960 76 q 953 126 953 110 q 955 172 953 150 q 953 217 957 194 q 948 242 951 229 q 942 268 944 256 q 926 318 935 293 q 906 365 918 343 q 883 406 896 386 q 860 447 869 426 q 848 476 853 461 q 835 503 843 490 q 807 538 824 522 q 782 575 790 554 q 774 604 775 589 q 775 633 774 619 q 777 649 775 642 q 781 664 779 656 q 771 724 783 693 q 762 742 767 733 q 753 760 757 750 q 736 799 744 779 q 717 838 728 818 q 695 872 707 856 q 675 907 683 889 q 670 920 671 914 q 668 935 669 926 q 667 938 668 936 q 667 943 667 940 q 672 949 668 946 q 676 956 675 953 q 679 962 678 958 q 683 967 681 965 q 689 967 685 967 q 694 968 693 968 q 703 969 699 968 q 711 969 708 971 q 715 968 714 969 q 718 965 717 967 q 726 958 721 961 q 733 951 731 956 q 738 944 736 949 q 742 935 740 939 q 750 916 746 925 q 760 899 754 907 q 786 863 771 879 q 813 826 801 846 q 828 790 821 808 q 843 751 836 771 q 851 730 847 742 q 858 707 856 718 q 863 684 861 696 q 867 661 864 672 q 868 654 868 658 q 871 646 868 650 q 889 622 876 632 q 911 601 901 613 q 932 563 925 585 q 935 556 933 560 q 938 549 936 553 q 935 527 938 539 q 929 506 932 515 q 926 498 928 501 q 924 490 924 494 q 926 463 922 478 q 931 453 928 457 q 935 444 933 449 q 944 425 939 435 q 951 406 949 415 q 960 377 957 392 q 971 349 964 363 q 993 310 979 328 q 1014 271 1007 292 q 1021 240 1019 256 q 1022 208 1022 224 q 1019 177 1022 193 q 1018 146 1017 161 q 1028 99 1019 122 q 1049 56 1038 76 q 1060 35 1054 44 q 1069 14 1065 25 q 1072 7 1071 11 q 1074 0 1074 3 q 1069 -31 1075 -17 q 1062 -42 1067 -36 q 1051 -54 1057 -47 m 610 950 q 617 935 615 940 q 619 931 618 933 q 621 928 621 929 q 617 924 621 926 q 611 922 613 922 q 603 916 608 919 q 596 913 599 913 q 592 914 593 913 q 589 917 590 915 q 576 925 585 919 q 573 926 575 925 q 569 928 571 926 q 571 935 569 931 q 574 940 572 939 q 574 947 574 942 q 576 953 575 951 q 580 953 578 953 q 585 953 582 953 q 597 953 590 953 q 610 950 603 954 m 442 393 q 428 435 435 414 q 421 476 421 456 q 427 528 419 501 q 444 576 435 554 q 465 611 454 596 q 469 616 467 613 q 474 621 471 619 q 478 622 475 622 q 485 624 482 622 q 494 627 489 625 q 503 629 499 629 q 532 624 518 629 q 539 619 536 622 q 544 614 542 617 q 565 594 557 606 q 581 569 574 582 q 597 531 589 550 q 611 492 604 511 q 623 464 617 478 q 633 436 629 450 q 641 402 639 421 q 636 367 643 383 q 633 358 635 364 q 629 350 631 351 q 621 349 626 349 q 614 349 615 349 q 590 350 601 349 q 567 351 579 351 q 532 347 549 353 q 497 340 515 342 q 488 340 494 340 q 479 339 482 339 q 476 342 478 340 q 474 344 475 343 q 464 351 469 347 q 456 358 458 354 q 448 375 451 365 q 442 393 444 385 m 546 463 q 541 471 543 467 q 536 479 539 475 q 535 483 536 481 q 533 486 535 486 q 526 483 532 486 q 519 479 521 481 q 515 477 519 479 q 511 474 511 475 q 511 471 510 472 q 513 467 513 469 q 515 456 514 464 q 519 446 517 449 q 525 443 521 444 q 531 442 529 442 q 537 439 532 442 q 543 438 542 436 q 543 440 543 438 q 545 451 544 446 q 546 463 546 456 m 763 1013 q 749 1010 756 1011 q 736 1008 743 1008 q 706 1010 721 1008 q 676 1011 692 1013 q 647 1003 661 1008 q 617 999 632 999 q 587 1003 601 999 q 557 1008 572 1008 q 526 1007 544 1010 q 497 1000 511 1004 q 467 994 482 996 q 426 990 446 990 q 385 986 406 989 q 357 982 371 983 q 328 982 343 981 q 321 982 325 982 q 314 982 317 982 q 276 1009 290 989 q 250 1047 263 1029 q 226 1088 239 1067 q 208 1132 213 1110 q 215 1185 204 1158 q 240 1232 226 1211 q 256 1249 247 1240 q 275 1264 265 1258 q 290 1268 282 1267 q 306 1269 299 1269 q 333 1271 319 1272 q 361 1268 347 1269 q 386 1266 374 1267 q 410 1261 399 1265 q 417 1258 414 1260 q 424 1256 421 1257 q 428 1256 426 1256 q 432 1254 431 1256 q 432 1249 432 1251 q 432 1246 432 1247 q 432 1238 432 1242 q 432 1231 432 1235 q 433 1227 432 1229 q 432 1224 433 1225 q 428 1221 432 1222 q 422 1218 424 1219 q 408 1213 415 1215 q 393 1208 401 1210 q 362 1203 378 1206 q 331 1199 346 1201 q 321 1197 326 1197 q 313 1193 315 1196 q 303 1185 307 1190 q 294 1178 299 1181 q 292 1175 293 1176 q 289 1172 290 1174 q 288 1167 289 1171 q 288 1161 288 1164 q 286 1152 288 1157 q 285 1143 285 1147 q 288 1138 286 1140 q 289 1132 289 1135 q 304 1100 296 1114 q 317 1081 310 1092 q 332 1064 324 1069 q 357 1054 343 1056 q 383 1053 371 1053 q 456 1060 418 1051 q 484 1070 469 1064 q 514 1079 499 1076 q 558 1077 536 1083 q 604 1072 581 1071 q 649 1083 626 1075 q 693 1093 671 1092 q 715 1094 704 1094 q 736 1092 725 1093 q 745 1091 740 1092 q 756 1090 750 1090 q 775 1096 765 1092 q 794 1103 785 1100 q 802 1106 796 1104 q 810 1108 808 1108 q 811 1104 810 1108 q 815 1097 813 1100 q 818 1089 817 1093 q 819 1085 818 1088 q 821 1082 821 1083 q 818 1072 821 1078 q 814 1063 815 1067 q 792 1029 807 1043 q 778 1020 786 1024 q 763 1013 771 1017 m 558 1257 q 572 1258 564 1257 q 586 1256 581 1258 q 592 1250 589 1254 q 599 1243 596 1246 q 603 1239 600 1242 q 607 1235 607 1236 q 604 1230 607 1233 q 601 1225 601 1226 q 597 1218 599 1222 q 592 1213 594 1214 q 588 1211 590 1211 q 585 1211 586 1211 q 574 1208 579 1210 q 564 1207 568 1207 q 553 1210 558 1208 q 543 1214 547 1213 q 539 1215 540 1215 q 536 1217 538 1215 q 532 1224 533 1218 q 529 1233 531 1231 q 528 1237 529 1235 q 526 1240 526 1239 q 530 1243 528 1242 q 533 1244 532 1244 q 544 1252 539 1249 q 558 1257 550 1256 m 707 1235 q 698 1236 703 1235 q 689 1238 693 1238 q 685 1239 685 1239 q 688 1241 685 1240 q 692 1242 690 1242 q 698 1246 694 1244 q 704 1250 701 1247 q 708 1251 708 1251 q 710 1247 708 1251 q 712 1242 710 1246 q 714 1236 714 1239 q 707 1235 713 1235 m 843 1196 q 838 1190 840 1193 q 833 1183 836 1186 q 831 1181 831 1181 q 826 1183 829 1181 q 821 1186 822 1186 q 813 1190 818 1188 q 807 1193 808 1192 q 804 1203 804 1197 q 804 1214 804 1210 q 803 1219 804 1217 q 803 1222 801 1221 q 808 1226 803 1224 q 814 1228 813 1228 q 819 1232 815 1229 q 824 1235 822 1235 q 828 1231 825 1235 q 832 1226 831 1228 q 839 1220 835 1224 q 844 1214 843 1217 q 843 1196 847 1208 z "},"":{"ha":1049,"x_min":-53,"x_max":1086,"o":"m 1006 -308 q 938 -307 975 -310 q 869 -300 901 -304 q 834 -294 853 -297 q 800 -281 815 -290 q 778 -258 788 -272 q 761 -231 769 -243 q 731 -178 746 -204 q 713 -124 717 -153 q 710 -92 710 -108 q 707 -62 711 -76 q 696 -36 703 -47 q 674 -15 688 -24 q 651 6 660 -7 q 638 41 640 21 q 626 78 635 61 q 624 85 625 81 q 619 92 622 89 q 615 94 618 93 q 610 97 611 96 q 601 103 606 100 q 593 107 597 106 q 569 113 582 111 q 544 114 556 114 q 512 113 528 114 q 479 108 496 111 q 430 100 454 106 q 386 76 406 94 q 366 54 375 67 q 347 31 357 42 q 317 -2 333 13 q 278 -24 300 -17 q 233 -33 257 -32 q 188 -31 210 -33 q 155 -24 171 -28 q 122 -21 139 -19 q 108 -21 115 -21 q 94 -21 101 -21 q 42 -26 68 -22 q -11 -21 15 -31 q -19 -18 -15 -19 q -26 -15 -24 -17 q -32 -9 -29 -12 q -36 -3 -35 -6 q -42 3 -39 0 q -47 8 -46 6 q -49 17 -49 13 q -50 24 -50 21 q -52 31 -51 28 q -53 39 -53 35 q -46 67 -53 53 q -26 91 -39 81 q -7 115 -14 101 q 0 144 0 129 q 1 174 0 160 q 13 213 4 194 q 32 249 22 231 q 51 281 42 264 q 67 315 60 299 q 83 357 75 336 q 100 397 90 378 q 130 449 114 424 q 156 501 146 474 q 163 561 165 531 q 167 622 160 592 q 183 665 172 644 q 207 704 194 685 q 229 746 219 724 q 244 792 239 768 q 253 835 249 813 q 265 879 258 858 q 282 913 272 897 q 299 947 292 929 q 309 969 304 957 q 321 992 314 982 q 369 1022 339 1015 q 431 1022 400 1028 q 490 1013 461 1015 q 536 1013 513 1011 q 583 1013 560 1014 q 644 1002 613 1011 q 700 978 675 993 q 742 935 726 961 q 753 907 749 922 q 765 879 758 892 q 789 840 776 858 q 808 800 801 822 q 813 769 813 785 q 818 739 814 754 q 859 676 829 708 q 904 613 889 643 q 914 580 911 597 q 917 546 917 563 q 919 519 918 533 q 925 493 921 506 q 953 458 935 472 q 981 422 971 443 q 992 363 993 394 q 1000 301 992 331 q 1010 273 1004 288 q 1022 243 1017 258 q 1032 209 1028 226 q 1042 175 1036 192 q 1053 135 1047 156 q 1057 93 1058 114 q 1040 35 1054 64 q 1001 -12 1025 6 q 989 -21 996 -18 q 976 -29 982 -24 q 971 -36 974 -32 q 964 -44 968 -40 q 960 -49 963 -46 q 957 -54 957 -51 q 958 -62 957 -57 q 961 -69 960 -67 q 962 -75 961 -71 q 964 -81 963 -79 q 971 -85 967 -83 q 978 -90 975 -87 q 1004 -101 990 -97 q 1032 -110 1018 -104 q 1039 -112 1035 -111 q 1046 -115 1043 -114 q 1049 -119 1047 -117 q 1053 -125 1051 -122 q 1069 -154 1064 -140 q 1081 -199 1076 -176 q 1086 -243 1086 -221 q 1082 -264 1085 -253 q 1072 -283 1079 -275 q 1066 -288 1069 -286 q 1060 -292 1063 -290 q 1006 -308 1040 -306 m 963 -150 q 936 -135 950 -143 q 911 -115 922 -126 q 903 -106 907 -111 q 894 -96 899 -101 q 889 -85 892 -90 q 885 -75 886 -81 q 880 -63 881 -69 q 878 -50 879 -57 q 894 17 871 -12 q 919 35 904 28 q 946 50 933 42 q 979 81 964 63 q 996 122 994 99 q 991 147 996 135 q 981 172 986 160 q 958 215 971 194 q 936 258 944 235 q 926 292 929 275 q 918 326 924 310 q 915 339 917 332 q 910 351 913 346 q 902 361 906 356 q 894 371 899 367 q 863 401 881 388 q 838 438 844 415 q 835 483 831 460 q 838 528 840 506 q 831 558 836 543 q 822 588 826 572 q 817 617 819 603 q 813 647 815 632 q 794 703 807 676 q 767 757 781 731 q 732 801 753 774 q 687 858 711 828 q 640 912 663 888 q 601 946 618 936 q 544 954 574 954 q 488 951 515 954 q 449 947 468 950 q 413 938 429 944 q 363 893 381 924 q 329 833 344 863 q 302 785 317 808 q 275 735 288 761 q 263 701 268 719 q 253 667 258 683 q 246 642 250 654 q 240 619 242 631 q 240 583 238 601 q 243 546 242 565 q 243 537 243 542 q 243 526 243 532 q 224 485 239 504 q 200 447 210 467 q 185 405 192 426 q 168 364 179 383 q 133 312 153 336 q 101 258 113 288 q 90 189 88 228 q 93 119 93 150 q 93 88 92 103 q 93 81 93 85 q 93 72 93 76 q 98 66 94 69 q 103 58 101 63 q 106 53 104 57 q 110 49 107 50 q 116 44 113 46 q 122 42 119 43 q 150 33 136 35 q 178 33 164 32 q 218 40 197 36 q 256 53 239 43 q 274 71 267 60 q 289 93 282 82 q 315 134 301 113 q 349 169 329 156 q 403 186 374 185 q 449 182 426 188 q 494 176 472 176 q 527 178 511 176 q 558 181 543 179 q 586 180 572 181 q 613 178 600 179 q 633 177 622 178 q 651 174 643 176 q 665 168 657 172 q 678 160 674 164 q 681 155 679 158 q 686 149 683 151 q 701 113 697 132 q 711 76 704 94 q 718 63 714 71 q 726 50 722 56 q 751 28 738 38 q 771 4 764 19 q 773 -3 772 1 q 774 -10 774 -7 q 776 -47 778 -28 q 775 -83 775 -65 q 791 -141 776 -115 q 826 -190 806 -167 q 869 -222 846 -211 q 919 -239 892 -233 q 940 -242 929 -240 q 963 -242 951 -243 q 972 -239 967 -240 q 981 -236 976 -237 q 986 -234 983 -235 q 992 -232 989 -233 q 997 -225 994 -229 q 1003 -218 1000 -221 q 1007 -214 1004 -217 q 1010 -210 1010 -211 q 1010 -201 1011 -206 q 1007 -193 1008 -196 q 1007 -186 1007 -190 q 1006 -181 1007 -182 q 1001 -176 1004 -178 q 997 -174 999 -175 q 963 -150 983 -161 m 607 324 q 596 319 601 322 q 585 315 590 317 q 561 316 574 314 q 539 321 549 318 q 517 327 528 324 q 496 336 506 331 q 458 374 472 350 q 436 422 444 397 q 431 444 433 433 q 429 467 429 456 q 445 526 431 497 q 471 583 460 556 q 488 621 479 601 q 511 654 496 640 q 515 660 513 657 q 521 665 518 664 q 535 671 525 668 q 549 674 544 674 q 558 672 553 674 q 567 668 563 669 q 572 667 568 668 q 576 665 575 667 q 581 661 579 664 q 585 657 583 658 q 592 649 588 653 q 597 642 596 646 q 603 628 601 636 q 607 614 606 619 q 609 554 614 585 q 607 493 604 524 q 624 431 610 463 q 632 368 638 399 q 631 358 631 364 q 629 350 631 353 q 620 337 626 343 q 607 324 614 331 m 515 474 q 514 466 515 469 q 513 458 513 463 q 510 455 511 457 q 510 450 510 453 q 512 447 510 449 q 515 444 514 446 q 522 435 518 442 q 531 428 526 429 q 538 427 533 426 q 547 428 543 428 q 553 428 549 428 q 558 429 557 428 q 561 435 560 429 q 563 443 563 442 q 565 447 564 446 q 565 451 565 449 q 564 454 565 453 q 561 457 563 456 q 557 467 560 461 q 551 476 554 474 q 544 480 549 479 q 536 481 539 481 q 531 483 535 482 q 525 485 526 485 q 515 474 521 483 z "},"":{"ha":1049,"x_min":-29,"x_max":1075,"o":"m 460 972 q 468 967 464 969 q 476 961 472 964 q 480 960 478 961 q 482 958 482 960 q 483 951 483 956 q 483 943 483 946 q 485 935 485 940 q 486 929 486 931 q 481 924 485 926 q 476 922 478 922 q 469 915 474 919 q 461 910 465 911 q 457 910 458 910 q 453 911 456 911 q 440 911 447 911 q 429 914 433 911 q 421 919 425 915 q 413 926 417 924 q 409 929 411 928 q 407 932 407 931 q 406 940 406 935 q 407 949 407 946 q 406 954 407 950 q 407 961 406 958 q 411 964 407 963 q 417 967 415 965 q 424 972 419 968 q 433 976 429 975 q 444 976 438 978 q 460 972 451 974 m 1051 -54 q 1040 -63 1046 -58 q 1028 -71 1035 -68 q 1021 -73 1025 -72 q 1014 -74 1017 -74 q 960 -74 986 -81 q 907 -64 935 -67 q 847 -65 878 -61 q 786 -58 815 -68 q 758 -42 771 -53 q 731 -22 744 -32 q 710 -7 721 -14 q 688 8 699 0 q 662 34 672 19 q 640 64 651 49 q 635 72 638 68 q 631 81 633 76 q 622 86 626 83 q 614 92 618 89 q 609 97 611 94 q 604 100 607 99 q 598 100 601 100 q 592 100 594 100 q 582 101 588 101 q 572 101 576 101 q 559 99 565 101 q 547 96 553 97 q 508 89 528 90 q 469 86 489 88 q 432 79 450 85 q 427 77 431 78 q 422 75 424 76 q 417 69 419 72 q 413 63 414 65 q 392 29 400 47 q 367 0 383 11 q 360 -4 364 -3 q 353 -7 356 -6 q 332 -15 343 -11 q 311 -25 321 -19 q 276 -52 292 -35 q 238 -76 260 -69 q 212 -78 225 -79 q 186 -74 199 -76 q 153 -67 169 -71 q 118 -65 136 -64 q 72 -70 96 -65 q 26 -68 49 -75 q 18 -65 22 -67 q 10 -60 14 -62 q -10 -43 0 -54 q -14 -37 -11 -40 q -18 -31 -17 -35 q -20 -24 -19 -28 q -22 -17 -21 -21 q -24 37 -29 10 q -18 90 -19 64 q -20 137 -18 114 q -19 183 -22 160 q 4 238 -14 211 q 24 261 13 250 q 43 283 35 272 q 51 295 47 289 q 58 307 54 301 q 77 353 72 328 q 92 400 82 378 q 122 453 103 429 q 150 507 140 476 q 160 558 158 528 q 163 618 163 588 q 168 669 164 649 q 179 732 172 700 q 200 793 186 764 q 225 832 211 814 q 253 869 239 850 q 266 886 260 878 q 279 903 272 894 q 285 911 282 907 q 290 918 288 915 q 300 922 294 921 q 310 925 306 924 q 313 926 311 925 q 317 928 315 928 q 319 924 319 926 q 321 921 319 922 q 326 913 322 917 q 331 904 329 908 q 330 898 331 901 q 329 893 329 894 q 327 879 328 886 q 325 867 326 872 q 316 824 322 844 q 300 782 310 803 q 264 712 283 751 q 233 640 244 672 q 224 596 226 618 q 217 551 222 574 q 206 520 213 535 q 194 489 200 506 q 181 446 188 468 q 165 401 174 424 q 136 342 153 381 q 103 266 119 304 q 71 207 86 228 q 54 140 57 176 q 53 72 51 104 q 52 59 53 67 q 53 46 51 51 q 58 38 54 42 q 63 29 61 33 q 65 23 64 26 q 68 18 67 19 q 76 15 71 17 q 83 14 81 14 q 92 11 88 13 q 99 8 96 10 q 127 8 113 7 q 156 11 142 10 q 201 14 178 13 q 247 26 225 15 q 272 42 260 33 q 297 60 285 51 q 322 76 310 68 q 347 92 335 83 q 371 110 360 100 q 394 128 382 121 q 422 140 407 136 q 451 147 438 144 q 482 152 467 150 q 510 161 497 154 q 535 181 524 169 q 558 201 546 193 q 566 204 563 203 q 574 207 569 206 q 580 209 576 207 q 588 211 583 211 q 594 210 590 211 q 601 208 599 210 q 609 208 604 208 q 617 206 614 207 q 622 201 619 204 q 628 194 625 197 q 649 163 640 181 q 668 131 657 146 q 676 120 672 125 q 685 110 681 115 q 707 90 694 99 q 731 72 719 81 q 770 45 750 58 q 814 25 790 32 q 838 19 825 21 q 864 17 851 18 q 892 16 878 17 q 921 17 907 15 q 931 17 925 17 q 940 18 936 17 q 944 22 942 19 q 949 26 947 25 q 956 31 951 28 q 961 36 960 33 q 961 48 963 40 q 960 60 960 56 q 956 93 960 76 q 953 126 953 110 q 955 172 953 150 q 953 217 957 194 q 948 242 951 229 q 942 268 944 256 q 926 318 935 293 q 906 365 918 343 q 883 406 896 386 q 860 447 869 426 q 848 476 853 461 q 835 503 843 490 q 807 538 824 522 q 782 575 790 554 q 774 604 775 589 q 775 633 774 619 q 777 649 775 642 q 781 664 779 656 q 771 724 783 693 q 762 742 767 733 q 753 760 757 750 q 736 799 744 779 q 717 838 728 818 q 695 872 707 856 q 675 907 683 889 q 670 920 671 914 q 668 935 669 926 q 667 938 668 936 q 667 943 667 940 q 672 949 668 946 q 676 956 675 953 q 679 962 678 958 q 683 967 681 965 q 689 967 685 967 q 694 968 693 968 q 703 969 699 968 q 711 969 708 971 q 715 968 714 969 q 718 965 717 967 q 726 958 721 961 q 733 951 731 956 q 738 944 736 949 q 742 935 740 939 q 750 916 746 925 q 760 899 754 907 q 786 863 771 879 q 813 826 801 846 q 828 790 821 808 q 843 751 836 771 q 851 730 847 742 q 858 707 856 718 q 863 684 861 696 q 867 661 864 672 q 868 654 868 658 q 871 646 868 650 q 889 622 876 632 q 911 601 901 613 q 932 563 925 585 q 935 556 933 560 q 938 549 936 553 q 935 527 938 539 q 929 506 932 515 q 926 498 928 501 q 924 490 924 494 q 926 463 922 478 q 931 453 928 457 q 935 444 933 449 q 944 425 939 435 q 951 406 949 415 q 960 377 957 392 q 971 349 964 363 q 993 310 979 328 q 1014 271 1007 292 q 1021 240 1019 256 q 1022 208 1022 224 q 1019 177 1022 193 q 1018 146 1017 161 q 1028 99 1019 122 q 1049 56 1038 76 q 1060 35 1054 44 q 1069 14 1065 25 q 1072 7 1071 11 q 1074 0 1074 3 q 1069 -31 1075 -17 q 1062 -42 1067 -36 q 1051 -54 1057 -47 m 610 950 q 617 935 615 940 q 619 931 618 933 q 621 928 621 929 q 617 924 621 926 q 611 922 613 922 q 603 916 608 919 q 596 913 599 913 q 592 914 593 913 q 589 917 590 915 q 576 925 585 919 q 573 926 575 925 q 569 928 571 926 q 571 935 569 931 q 574 940 572 939 q 574 947 574 942 q 576 953 575 951 q 580 953 578 953 q 585 953 582 953 q 597 953 590 953 q 610 950 603 954 m 442 393 q 428 435 435 414 q 421 476 421 456 q 427 528 419 501 q 444 576 435 554 q 465 611 454 596 q 469 616 467 613 q 474 621 471 619 q 478 622 475 622 q 485 624 482 622 q 494 627 489 625 q 503 629 499 629 q 532 624 518 629 q 539 619 536 622 q 544 614 542 617 q 565 594 557 606 q 581 569 574 582 q 597 531 589 550 q 611 492 604 511 q 623 464 617 478 q 633 436 629 450 q 641 402 639 421 q 636 367 643 383 q 633 358 635 364 q 629 350 631 351 q 621 349 626 349 q 614 349 615 349 q 590 350 601 349 q 567 351 579 351 q 532 347 549 353 q 497 340 515 342 q 488 340 494 340 q 479 339 482 339 q 476 342 478 340 q 474 344 475 343 q 464 351 469 347 q 456 358 458 354 q 448 375 451 365 q 442 393 444 385 m 546 463 q 541 471 543 467 q 536 479 539 475 q 535 483 536 481 q 533 486 535 486 q 526 483 532 486 q 519 479 521 481 q 515 477 519 479 q 511 474 511 475 q 511 471 510 472 q 513 467 513 469 q 515 456 514 464 q 519 446 517 449 q 525 443 521 444 q 531 442 529 442 q 537 439 532 442 q 543 438 542 436 q 543 440 543 438 q 545 451 544 446 q 546 463 546 456 m 603 1028 q 550 1017 582 1019 q 486 1021 518 1014 q 433 1049 454 1028 q 397 1100 413 1069 q 379 1160 382 1131 q 390 1212 376 1181 q 424 1269 403 1243 q 467 1304 446 1296 q 516 1308 490 1311 q 567 1304 542 1306 q 586 1302 576 1303 q 606 1300 596 1301 q 613 1300 608 1300 q 621 1299 617 1300 q 631 1294 626 1297 q 642 1288 636 1290 q 645 1285 643 1286 q 649 1283 647 1285 q 649 1275 650 1281 q 649 1267 649 1269 q 649 1260 649 1265 q 647 1254 649 1256 q 642 1251 647 1253 q 633 1249 636 1250 q 626 1245 631 1247 q 619 1243 622 1243 q 613 1242 617 1242 q 608 1244 610 1243 q 594 1246 601 1244 q 581 1249 588 1247 q 509 1255 550 1256 q 446 1224 468 1254 q 434 1201 438 1213 q 429 1176 431 1189 q 428 1161 428 1168 q 431 1146 429 1154 q 432 1141 432 1144 q 433 1135 432 1138 q 439 1128 435 1132 q 446 1121 443 1124 q 449 1117 447 1119 q 451 1115 450 1115 q 455 1115 453 1114 q 458 1118 457 1117 q 468 1121 463 1119 q 476 1125 474 1122 q 481 1133 479 1128 q 485 1143 483 1139 q 492 1156 488 1150 q 501 1169 496 1163 q 505 1174 503 1171 q 508 1178 507 1176 q 516 1178 511 1179 q 524 1178 521 1178 q 528 1178 525 1178 q 535 1178 532 1179 q 538 1174 536 1176 q 542 1168 540 1171 q 547 1163 544 1165 q 553 1157 550 1160 q 560 1142 557 1150 q 568 1129 563 1135 q 592 1113 579 1118 q 606 1110 597 1110 q 621 1110 614 1111 q 628 1106 625 1108 q 635 1103 632 1104 q 640 1100 636 1101 q 646 1097 644 1099 q 647 1088 647 1094 q 649 1078 647 1082 q 643 1061 649 1069 q 638 1052 640 1057 q 633 1044 636 1047 q 620 1036 628 1040 q 603 1028 613 1032 m 647 1181 q 650 1181 647 1181 q 654 1179 653 1181 q 658 1179 658 1179 q 656 1179 658 1179 l 654 1179 q 647 1181 647 1181 z "},"":{"ha":1049,"x_min":-29,"x_max":1075,"o":"m 460 972 q 468 967 464 969 q 476 961 472 964 q 480 960 478 961 q 482 958 482 960 q 483 951 483 956 q 483 943 483 946 q 485 935 485 940 q 486 929 486 931 q 481 924 485 926 q 476 922 478 922 q 469 915 474 919 q 461 910 465 911 q 457 910 458 910 q 453 911 456 911 q 440 911 447 911 q 429 914 433 911 q 421 919 425 915 q 413 926 417 924 q 409 929 411 928 q 407 932 407 931 q 406 940 406 935 q 407 949 407 946 q 406 954 407 950 q 407 961 406 958 q 411 964 407 963 q 417 967 415 965 q 424 972 419 968 q 433 976 429 975 q 444 976 438 978 q 460 972 451 974 m 1051 -54 q 1040 -63 1046 -58 q 1028 -71 1035 -68 q 1021 -73 1025 -72 q 1014 -74 1017 -74 q 960 -74 986 -81 q 907 -64 935 -67 q 847 -65 878 -61 q 786 -58 815 -68 q 758 -42 771 -53 q 731 -22 744 -32 q 710 -7 721 -14 q 688 8 699 0 q 662 34 672 19 q 640 64 651 49 q 635 72 638 68 q 631 81 633 76 q 622 86 626 83 q 614 92 618 89 q 609 97 611 94 q 604 100 607 99 q 598 100 601 100 q 592 100 594 100 q 582 101 588 101 q 572 101 576 101 q 559 99 565 101 q 547 96 553 97 q 508 89 528 90 q 469 86 489 88 q 432 79 450 85 q 427 77 431 78 q 422 75 424 76 q 417 69 419 72 q 413 63 414 65 q 392 29 400 47 q 367 0 383 11 q 360 -4 364 -3 q 353 -7 356 -6 q 332 -15 343 -11 q 311 -25 321 -19 q 276 -52 292 -35 q 238 -76 260 -69 q 212 -78 225 -79 q 186 -74 199 -76 q 153 -67 169 -71 q 118 -65 136 -64 q 72 -70 96 -65 q 26 -68 49 -75 q 18 -65 22 -67 q 10 -60 14 -62 q -10 -43 0 -54 q -14 -37 -11 -40 q -18 -31 -17 -35 q -20 -24 -19 -28 q -22 -17 -21 -21 q -24 37 -29 10 q -18 90 -19 64 q -20 137 -18 114 q -19 183 -22 160 q 4 238 -14 211 q 24 261 13 250 q 43 283 35 272 q 51 295 47 289 q 58 307 54 301 q 77 353 72 328 q 92 400 82 378 q 122 453 103 429 q 150 507 140 476 q 160 558 158 528 q 163 618 163 588 q 168 669 164 649 q 179 732 172 700 q 200 793 186 764 q 225 832 211 814 q 253 869 239 850 q 266 886 260 878 q 279 903 272 894 q 285 911 282 907 q 290 918 288 915 q 300 922 294 921 q 310 925 306 924 q 313 926 311 925 q 317 928 315 928 q 319 924 319 926 q 321 921 319 922 q 326 913 322 917 q 331 904 329 908 q 330 898 331 901 q 329 893 329 894 q 327 879 328 886 q 325 867 326 872 q 316 824 322 844 q 300 782 310 803 q 264 712 283 751 q 233 640 244 672 q 224 596 226 618 q 217 551 222 574 q 206 520 213 535 q 194 489 200 506 q 181 446 188 468 q 165 401 174 424 q 136 342 153 381 q 103 266 119 304 q 71 207 86 228 q 54 140 57 176 q 53 72 51 104 q 52 59 53 67 q 53 46 51 51 q 58 38 54 42 q 63 29 61 33 q 65 23 64 26 q 68 18 67 19 q 76 15 71 17 q 83 14 81 14 q 92 11 88 13 q 99 8 96 10 q 127 8 113 7 q 156 11 142 10 q 201 14 178 13 q 247 26 225 15 q 272 42 260 33 q 297 60 285 51 q 322 76 310 68 q 347 92 335 83 q 371 110 360 100 q 394 128 382 121 q 422 140 407 136 q 451 147 438 144 q 482 152 467 150 q 510 161 497 154 q 535 181 524 169 q 558 201 546 193 q 566 204 563 203 q 574 207 569 206 q 580 209 576 207 q 588 211 583 211 q 594 210 590 211 q 601 208 599 210 q 609 208 604 208 q 617 206 614 207 q 622 201 619 204 q 628 194 625 197 q 649 163 640 181 q 668 131 657 146 q 676 120 672 125 q 685 110 681 115 q 707 90 694 99 q 731 72 719 81 q 770 45 750 58 q 814 25 790 32 q 838 19 825 21 q 864 17 851 18 q 892 16 878 17 q 921 17 907 15 q 931 17 925 17 q 940 18 936 17 q 944 22 942 19 q 949 26 947 25 q 956 31 951 28 q 961 36 960 33 q 961 48 963 40 q 960 60 960 56 q 956 93 960 76 q 953 126 953 110 q 955 172 953 150 q 953 217 957 194 q 948 242 951 229 q 942 268 944 256 q 926 318 935 293 q 906 365 918 343 q 883 406 896 386 q 860 447 869 426 q 848 476 853 461 q 835 503 843 490 q 807 538 824 522 q 782 575 790 554 q 774 604 775 589 q 775 633 774 619 q 777 649 775 642 q 781 664 779 656 q 771 724 783 693 q 762 742 767 733 q 753 760 757 750 q 736 799 744 779 q 717 838 728 818 q 695 872 707 856 q 675 907 683 889 q 670 920 671 914 q 668 935 669 926 q 667 938 668 936 q 667 943 667 940 q 672 949 668 946 q 676 956 675 953 q 679 962 678 958 q 683 967 681 965 q 689 967 685 967 q 694 968 693 968 q 703 969 699 968 q 711 969 708 971 q 715 968 714 969 q 718 965 717 967 q 726 958 721 961 q 733 951 731 956 q 738 944 736 949 q 742 935 740 939 q 750 916 746 925 q 760 899 754 907 q 786 863 771 879 q 813 826 801 846 q 828 790 821 808 q 843 751 836 771 q 851 730 847 742 q 858 707 856 718 q 863 684 861 696 q 867 661 864 672 q 868 654 868 658 q 871 646 868 650 q 889 622 876 632 q 911 601 901 613 q 932 563 925 585 q 935 556 933 560 q 938 549 936 553 q 935 527 938 539 q 929 506 932 515 q 926 498 928 501 q 924 490 924 494 q 926 463 922 478 q 931 453 928 457 q 935 444 933 449 q 944 425 939 435 q 951 406 949 415 q 960 377 957 392 q 971 349 964 363 q 993 310 979 328 q 1014 271 1007 292 q 1021 240 1019 256 q 1022 208 1022 224 q 1019 177 1022 193 q 1018 146 1017 161 q 1028 99 1019 122 q 1049 56 1038 76 q 1060 35 1054 44 q 1069 14 1065 25 q 1072 7 1071 11 q 1074 0 1074 3 q 1069 -31 1075 -17 q 1062 -42 1067 -36 q 1051 -54 1057 -47 m 610 950 q 617 935 615 940 q 619 931 618 933 q 621 928 621 929 q 617 924 621 926 q 611 922 613 922 q 603 916 608 919 q 596 913 599 913 q 592 914 593 913 q 589 917 590 915 q 576 925 585 919 q 573 926 575 925 q 569 928 571 926 q 571 935 569 931 q 574 940 572 939 q 574 947 574 942 q 576 953 575 951 q 580 953 578 953 q 585 953 582 953 q 597 953 590 953 q 610 950 603 954 m 442 393 q 428 435 435 414 q 421 476 421 456 q 427 528 419 501 q 444 576 435 554 q 465 611 454 596 q 469 616 467 613 q 474 621 471 619 q 478 622 475 622 q 485 624 482 622 q 494 627 489 625 q 503 629 499 629 q 532 624 518 629 q 539 619 536 622 q 544 614 542 617 q 565 594 557 606 q 581 569 574 582 q 597 531 589 550 q 611 492 604 511 q 623 464 617 478 q 633 436 629 450 q 641 402 639 421 q 636 367 643 383 q 633 358 635 364 q 629 350 631 351 q 621 349 626 349 q 614 349 615 349 q 590 350 601 349 q 567 351 579 351 q 532 347 549 353 q 497 340 515 342 q 488 340 494 340 q 479 339 482 339 q 476 342 478 340 q 474 344 475 343 q 464 351 469 347 q 456 358 458 354 q 448 375 451 365 q 442 393 444 385 m 546 463 q 541 471 543 467 q 536 479 539 475 q 535 483 536 481 q 533 486 535 486 q 526 483 532 486 q 519 479 521 481 q 515 477 519 479 q 511 474 511 475 q 511 471 510 472 q 513 467 513 469 q 515 456 514 464 q 519 446 517 449 q 525 443 521 444 q 531 442 529 442 q 537 439 532 442 q 543 438 542 436 q 543 440 543 438 q 545 451 544 446 q 546 463 546 456 m 782 1089 q 774 1077 778 1083 q 767 1067 771 1071 q 743 1050 758 1057 q 713 1041 729 1043 q 683 1032 697 1039 q 651 1017 667 1025 q 617 1004 635 1008 q 610 1001 614 1003 q 601 1000 606 1000 q 572 1006 586 1000 q 544 1017 558 1011 q 515 1026 531 1022 q 485 1032 500 1031 q 455 1029 469 1032 q 425 1021 440 1026 q 397 1012 411 1017 q 367 1008 382 1007 q 347 1013 357 1008 q 329 1019 338 1017 q 292 1038 311 1028 q 260 1064 272 1047 q 237 1114 242 1085 q 235 1173 232 1143 q 247 1224 239 1203 q 256 1247 251 1235 q 267 1268 260 1258 q 309 1297 283 1289 q 362 1306 335 1304 q 410 1310 389 1307 q 458 1315 433 1313 q 504 1311 482 1317 q 545 1292 526 1306 q 588 1278 564 1278 q 594 1279 590 1278 q 603 1281 599 1281 q 627 1288 615 1283 q 653 1296 639 1293 q 700 1301 676 1301 q 747 1300 724 1301 q 772 1297 758 1299 q 794 1289 785 1296 q 822 1265 811 1281 q 839 1232 833 1249 q 844 1210 843 1222 q 842 1188 846 1197 q 840 1182 842 1185 q 836 1178 838 1179 q 823 1158 831 1167 q 807 1139 815 1149 q 794 1116 800 1128 q 782 1089 788 1104 m 694 1256 q 683 1251 689 1254 q 669 1246 676 1249 q 631 1222 650 1236 q 589 1206 611 1208 q 543 1212 564 1201 q 501 1232 522 1222 q 489 1238 496 1235 q 475 1244 482 1242 q 424 1247 450 1250 q 374 1240 397 1244 q 346 1235 360 1238 q 321 1225 332 1232 q 290 1191 301 1213 q 281 1147 279 1169 q 282 1140 281 1144 q 285 1133 283 1136 q 285 1125 285 1129 q 289 1118 286 1121 q 292 1113 290 1115 q 296 1110 294 1111 q 303 1101 300 1106 q 310 1094 306 1097 q 317 1092 313 1093 q 324 1089 321 1090 q 368 1083 346 1081 q 413 1092 392 1086 q 458 1099 435 1099 q 520 1089 489 1099 q 582 1078 551 1079 q 616 1079 599 1076 q 650 1085 633 1082 q 690 1099 672 1090 q 696 1101 693 1100 q 701 1104 699 1101 q 705 1109 703 1106 q 710 1115 707 1113 q 726 1147 719 1129 q 739 1179 732 1164 q 749 1194 743 1186 q 756 1210 754 1201 q 756 1219 757 1214 q 756 1231 756 1225 q 756 1234 756 1232 q 756 1238 757 1236 q 752 1242 756 1240 q 747 1246 749 1244 q 741 1252 744 1249 q 735 1257 738 1256 q 728 1258 732 1258 q 724 1258 725 1257 q 710 1258 717 1258 q 694 1256 704 1258 z "},"":{"ha":1396,"x_min":-26,"x_max":1390,"o":"m 1375 43 q 1341 14 1360 26 q 1300 -3 1322 1 q 1269 -7 1285 -7 q 1239 -11 1253 -7 q 1203 -25 1219 -15 q 1171 -42 1188 -35 q 1163 -44 1167 -42 q 1156 -46 1160 -46 q 1149 -45 1153 -46 q 1142 -44 1144 -44 q 1134 -43 1138 -43 q 1126 -42 1131 -43 q 1100 -27 1113 -36 q 1074 -14 1088 -18 q 1046 -11 1060 -11 q 1019 -10 1032 -11 q 999 -10 1010 -10 q 979 -11 989 -10 q 951 -18 964 -12 q 928 -36 939 -25 q 904 -54 917 -47 q 896 -56 900 -56 q 889 -57 892 -57 q 883 -59 886 -58 q 876 -60 879 -60 q 869 -58 874 -60 q 863 -57 865 -57 q 829 -47 849 -53 q 824 -46 826 -47 q 818 -44 821 -44 q 813 -47 815 -44 q 807 -49 810 -49 q 795 -54 801 -51 q 783 -61 789 -57 q 774 -67 779 -62 q 764 -72 769 -71 q 734 -75 750 -76 q 706 -67 718 -74 q 680 -51 692 -61 q 656 -33 668 -40 q 628 -21 642 -26 q 601 -7 614 -15 q 580 13 589 1 q 560 35 571 25 q 528 59 546 50 q 492 76 511 68 q 473 85 483 81 q 453 89 463 89 q 444 88 449 89 q 435 86 439 88 q 415 78 424 85 q 407 72 411 75 q 400 65 403 69 q 398 60 399 64 q 396 56 397 57 q 393 46 394 50 q 390 38 392 42 q 389 22 389 29 q 388 7 389 14 q 383 -8 386 1 q 376 -21 381 -17 q 371 -26 375 -24 q 364 -31 367 -29 q 360 -35 363 -33 q 354 -39 357 -37 q 349 -40 353 -40 q 342 -42 344 -40 q 335 -43 339 -42 q 326 -44 331 -44 q 306 -42 317 -44 q 285 -37 296 -39 q 276 -36 281 -37 q 267 -36 271 -35 q 247 -44 257 -37 q 229 -56 236 -50 q 223 -60 226 -57 q 217 -64 219 -62 q 208 -65 213 -65 q 201 -64 204 -64 q 193 -66 197 -65 q 186 -65 189 -67 q 177 -62 182 -65 q 168 -58 172 -60 q 136 -41 151 -51 q 104 -24 121 -31 q 63 -6 83 -14 q 25 18 42 3 q -6 63 6 36 q -24 115 -18 89 q -26 138 -25 125 q -24 161 -26 150 q -10 188 -19 175 q 11 210 0 200 q 34 231 22 221 q 50 256 46 240 q 53 267 53 261 q 53 279 53 274 q 56 313 54 296 q 63 346 57 331 q 85 383 69 367 q 114 417 100 400 q 133 442 125 429 q 149 469 142 456 q 163 507 157 488 q 175 544 169 526 q 188 579 181 563 q 197 614 194 596 q 201 659 201 636 q 207 704 201 682 q 219 742 211 724 q 235 778 228 760 q 261 847 249 808 q 294 915 274 885 q 336 957 313 943 q 342 961 339 958 q 349 965 346 964 q 363 968 353 967 q 378 968 372 969 q 385 965 381 968 q 393 960 390 963 q 399 958 396 960 q 404 956 403 957 q 406 947 406 953 q 406 939 406 942 q 406 932 406 936 q 407 926 407 928 q 400 920 406 924 q 392 915 394 917 q 369 901 381 907 q 347 885 357 894 q 340 878 344 882 q 333 871 336 875 q 328 861 331 867 q 322 850 325 856 q 306 817 314 835 q 290 783 299 800 q 271 740 281 763 q 260 694 261 718 q 265 649 258 672 q 265 604 271 626 q 255 576 263 589 q 240 549 247 563 q 219 507 229 528 q 196 467 208 486 q 178 440 188 453 q 160 414 168 428 q 143 380 150 397 q 131 344 136 363 q 118 310 124 328 q 111 274 113 292 q 111 244 110 260 q 111 215 113 229 q 101 181 108 197 q 90 149 94 165 q 86 137 89 143 q 83 125 83 131 q 86 115 83 121 q 92 103 89 108 q 92 99 92 101 q 93 96 92 97 q 103 88 97 92 q 114 82 110 85 q 136 69 125 75 q 160 60 147 64 q 168 56 164 58 q 176 51 172 53 q 201 51 188 50 q 225 57 214 53 q 259 68 242 61 q 292 86 276 75 q 314 106 303 94 q 336 126 325 117 q 363 147 349 138 q 389 168 376 157 q 415 188 401 178 q 444 204 429 199 q 451 208 447 206 q 458 210 456 210 q 465 210 461 211 q 469 208 468 208 q 481 208 475 208 q 490 206 486 208 q 497 201 493 204 q 506 194 501 197 q 531 169 519 183 q 556 143 542 156 q 607 110 579 124 q 663 85 635 97 q 692 72 676 78 q 722 65 707 67 q 753 66 738 64 q 782 68 768 68 q 826 59 806 67 q 871 53 847 51 q 899 58 885 54 q 929 63 914 63 q 974 59 951 63 q 1018 57 996 56 q 1049 61 1033 58 q 1078 64 1064 64 q 1108 59 1093 64 q 1139 54 1124 54 q 1168 62 1154 56 q 1196 72 1182 68 q 1224 79 1208 76 q 1240 81 1232 81 q 1254 82 1247 81 q 1262 86 1258 83 q 1269 90 1265 89 q 1274 93 1271 92 q 1279 96 1278 94 q 1283 101 1282 97 q 1285 107 1283 106 q 1290 133 1290 122 q 1290 144 1289 139 q 1289 153 1290 149 q 1272 186 1285 172 q 1243 210 1260 200 q 1237 214 1240 211 q 1229 217 1233 217 q 1185 217 1207 225 q 1142 206 1164 208 q 1097 207 1118 201 q 1054 217 1075 213 q 974 218 1014 225 q 958 215 965 217 q 942 213 950 214 q 935 211 939 213 q 929 211 932 210 q 922 213 926 211 q 914 215 918 215 q 908 217 913 217 q 903 219 904 218 q 900 225 901 221 q 897 231 899 229 q 894 238 896 233 q 890 244 892 242 q 890 259 889 250 q 892 275 890 268 q 900 305 894 290 q 911 333 906 319 q 926 376 918 354 q 954 411 933 399 q 976 419 963 417 q 999 421 989 421 q 1053 421 1026 422 q 1106 415 1079 419 q 1148 407 1126 411 q 1192 400 1169 403 q 1226 399 1207 397 q 1233 398 1229 399 q 1239 399 1236 397 q 1247 404 1243 400 q 1256 410 1251 408 q 1259 413 1257 411 q 1263 415 1261 414 q 1264 419 1264 417 q 1264 424 1264 421 q 1267 433 1265 428 q 1269 443 1269 439 q 1268 450 1269 446 q 1265 457 1267 454 q 1251 492 1261 476 q 1236 525 1242 507 q 1232 547 1233 536 q 1229 569 1231 558 q 1228 577 1228 572 q 1226 583 1228 582 q 1219 590 1225 588 q 1210 593 1213 592 q 1206 596 1207 594 q 1203 597 1204 597 q 1192 594 1199 597 q 1183 590 1186 592 q 1166 581 1174 586 q 1150 571 1158 575 q 1121 561 1135 564 q 1091 561 1107 560 q 1060 561 1075 563 q 1016 558 1039 561 q 972 563 993 554 q 928 594 946 571 q 897 640 910 617 q 889 660 893 650 q 883 681 885 671 q 888 721 879 701 q 893 734 890 728 q 901 746 896 740 q 909 754 906 750 q 915 761 913 758 q 936 771 925 767 q 958 776 947 775 q 1033 776 993 783 q 1077 765 1056 772 q 1121 751 1099 757 q 1151 747 1135 749 q 1183 747 1168 744 q 1238 768 1215 750 q 1260 797 1250 779 q 1278 829 1271 814 q 1282 838 1279 833 q 1286 847 1285 843 q 1286 856 1286 851 q 1286 865 1286 861 q 1287 872 1286 868 q 1288 876 1288 875 q 1283 883 1286 879 q 1278 889 1281 886 q 1274 894 1276 890 q 1269 900 1272 899 q 1265 902 1268 901 q 1258 904 1261 903 q 1218 911 1240 910 q 1182 913 1200 913 q 1146 915 1164 914 q 1113 917 1129 915 q 1081 918 1097 918 q 1049 916 1065 918 q 1018 913 1033 914 q 1006 914 1013 913 q 994 915 1000 915 q 990 915 992 915 q 986 915 989 915 q 978 924 982 918 q 971 933 974 931 q 968 936 969 935 q 965 940 967 938 q 967 943 965 942 q 968 947 968 944 q 973 958 971 951 q 978 968 975 964 q 985 973 981 971 q 994 976 990 975 q 1035 983 1013 985 q 1079 982 1058 982 q 1120 983 1100 982 q 1161 983 1140 985 q 1192 982 1176 983 q 1224 981 1207 981 q 1269 983 1246 981 q 1315 979 1293 985 q 1343 969 1328 976 q 1368 953 1358 963 q 1373 947 1371 950 q 1378 939 1375 943 q 1383 933 1379 936 q 1388 926 1386 929 q 1388 920 1388 924 q 1388 914 1388 917 q 1388 904 1388 910 q 1388 894 1389 899 q 1385 885 1388 890 q 1381 876 1382 881 q 1365 842 1374 860 q 1353 807 1357 825 q 1345 740 1344 776 q 1340 672 1346 703 q 1329 621 1336 644 q 1319 592 1324 606 q 1311 563 1314 578 q 1313 513 1308 542 q 1324 454 1318 483 q 1332 404 1331 425 q 1328 369 1332 386 q 1321 335 1324 351 q 1318 323 1319 331 q 1317 311 1317 315 q 1321 307 1318 310 q 1325 303 1324 304 q 1331 296 1328 300 q 1336 289 1333 292 q 1349 281 1342 285 q 1361 274 1357 278 q 1364 268 1363 271 q 1367 263 1365 265 q 1371 254 1368 258 q 1375 246 1374 250 q 1376 238 1376 242 q 1375 231 1375 233 q 1367 194 1374 213 q 1361 157 1361 175 q 1372 120 1363 138 q 1386 85 1382 103 q 1388 77 1386 82 q 1389 69 1390 72 q 1385 57 1389 64 q 1375 43 1381 50 m 572 981 q 586 981 579 981 q 599 981 593 982 q 608 977 604 979 q 617 974 613 975 q 622 973 619 974 q 628 971 625 972 q 634 962 631 968 q 640 951 638 956 q 642 949 640 950 q 643 946 643 947 q 641 941 643 944 q 638 936 639 938 q 633 927 635 932 q 626 919 631 922 q 623 918 625 918 q 619 917 621 918 q 608 913 614 915 q 597 908 603 910 q 561 907 581 904 q 526 915 542 910 q 513 921 519 918 q 503 929 507 924 q 497 935 500 932 q 493 942 494 939 q 490 944 490 944 q 494 951 490 947 q 500 957 499 956 q 503 963 501 960 q 508 967 506 965 q 515 969 511 968 q 522 971 519 969 q 547 977 535 975 q 572 981 558 979 m 632 619 q 640 574 636 597 q 642 529 643 551 q 638 504 640 517 q 632 479 635 492 q 625 458 629 469 q 615 439 621 447 q 595 417 608 428 q 568 406 582 407 q 545 405 557 403 q 522 411 533 407 q 475 435 497 418 q 447 481 453 453 q 448 519 442 500 q 461 556 454 539 q 481 601 471 579 q 497 647 490 624 q 503 665 500 656 q 511 681 507 674 q 517 688 514 685 q 525 693 521 690 q 528 697 526 694 q 532 701 531 700 q 540 703 535 703 q 547 703 544 703 q 554 705 550 704 q 561 706 558 706 q 613 676 593 704 q 624 650 621 665 q 632 619 628 635 m 1013 694 q 1003 692 1007 693 q 994 690 999 692 q 990 690 992 690 q 986 689 988 690 q 983 683 985 688 q 982 678 982 679 q 977 670 981 675 q 975 663 974 665 q 978 658 975 661 q 982 653 981 654 q 987 644 983 650 q 993 638 990 639 q 997 635 994 636 q 1000 635 999 635 q 1011 631 1006 633 q 1022 626 1017 628 q 1044 628 1033 625 q 1065 633 1056 631 q 1072 636 1068 635 q 1079 639 1076 638 q 1082 644 1081 640 q 1085 649 1083 647 q 1090 655 1086 650 q 1093 661 1093 660 q 1090 667 1093 664 q 1085 674 1086 671 q 1082 678 1083 675 q 1079 682 1081 681 q 1072 685 1076 685 q 1065 688 1068 686 q 1013 694 1042 694 m 514 549 q 515 541 514 544 q 515 533 515 538 q 515 528 515 531 q 517 525 515 526 q 522 524 518 525 q 528 524 526 524 q 535 522 531 524 q 543 522 540 521 q 546 524 544 522 q 549 528 547 526 q 556 535 551 531 q 563 543 560 539 q 565 553 564 547 q 567 564 565 558 q 567 567 567 565 q 568 571 568 569 q 563 577 567 574 q 557 582 558 581 q 553 587 556 583 q 549 590 550 590 q 544 588 547 590 q 539 585 540 585 q 531 579 535 582 q 524 574 526 576 q 517 563 519 569 q 514 549 515 557 m 1058 347 q 1038 348 1047 347 q 1017 347 1028 349 q 1009 346 1014 346 q 1001 344 1004 346 q 992 338 997 343 q 983 331 988 333 q 980 328 982 329 q 978 326 978 328 q 977 319 976 324 q 978 311 978 314 q 978 306 978 310 q 979 300 978 303 q 983 297 979 299 q 989 294 986 296 q 995 289 992 292 q 1001 285 999 286 q 1015 283 1007 283 q 1031 281 1024 282 q 1065 280 1047 279 q 1100 283 1083 281 q 1113 286 1107 285 q 1124 290 1118 288 q 1131 295 1128 293 q 1136 299 1133 297 q 1140 301 1138 300 q 1142 303 1142 301 q 1142 311 1143 306 q 1140 319 1140 317 q 1141 324 1140 321 q 1140 328 1142 326 q 1131 331 1138 329 q 1122 335 1125 333 q 1092 342 1108 340 q 1058 347 1076 344 z "},"":{"ha":1396,"x_min":-26,"x_max":1390,"o":"m 1375 43 q 1341 14 1360 26 q 1300 -3 1322 1 q 1269 -7 1285 -7 q 1239 -11 1253 -7 q 1203 -25 1219 -15 q 1171 -42 1188 -35 q 1163 -44 1167 -42 q 1156 -46 1160 -46 q 1149 -45 1153 -46 q 1142 -44 1144 -44 q 1134 -43 1138 -43 q 1126 -42 1131 -43 q 1100 -27 1113 -36 q 1074 -14 1088 -18 q 1046 -11 1060 -11 q 1019 -10 1032 -11 q 999 -10 1010 -10 q 979 -11 989 -10 q 951 -18 964 -12 q 928 -36 939 -25 q 904 -54 917 -47 q 896 -56 900 -56 q 889 -57 892 -57 q 883 -59 886 -58 q 876 -60 879 -60 q 869 -58 874 -60 q 863 -57 865 -57 q 829 -47 849 -53 q 824 -46 826 -47 q 818 -44 821 -44 q 813 -47 815 -44 q 807 -49 810 -49 q 795 -54 801 -51 q 783 -61 789 -57 q 774 -67 779 -62 q 764 -72 769 -71 q 734 -75 750 -76 q 706 -67 718 -74 q 680 -51 692 -61 q 656 -33 668 -40 q 628 -21 642 -26 q 601 -7 614 -15 q 580 13 589 1 q 560 35 571 25 q 528 59 546 50 q 492 76 511 68 q 473 85 483 81 q 453 89 463 89 q 444 88 449 89 q 435 86 439 88 q 415 78 424 85 q 407 72 411 75 q 400 65 403 69 q 398 60 399 64 q 396 56 397 57 q 393 46 394 50 q 390 38 392 42 q 389 22 389 29 q 388 7 389 14 q 383 -8 386 1 q 376 -21 381 -17 q 371 -26 375 -24 q 364 -31 367 -29 q 360 -35 363 -33 q 354 -39 357 -37 q 349 -40 353 -40 q 342 -42 344 -40 q 335 -43 339 -42 q 326 -44 331 -44 q 306 -42 317 -44 q 285 -37 296 -39 q 276 -36 281 -37 q 267 -36 271 -35 q 247 -44 257 -37 q 229 -56 236 -50 q 223 -60 226 -57 q 217 -64 219 -62 q 208 -65 213 -65 q 201 -64 204 -64 q 193 -66 197 -65 q 186 -65 189 -67 q 177 -62 182 -65 q 168 -58 172 -60 q 136 -41 151 -51 q 104 -24 121 -31 q 63 -6 83 -14 q 25 18 42 3 q -6 63 6 36 q -24 115 -18 89 q -26 138 -25 125 q -24 161 -26 150 q -10 188 -19 175 q 11 210 0 200 q 34 231 22 221 q 50 256 46 240 q 53 267 53 261 q 53 279 53 274 q 56 313 54 296 q 63 346 57 331 q 85 383 69 367 q 114 417 100 400 q 133 442 125 429 q 149 469 142 456 q 163 507 157 488 q 175 544 169 526 q 188 579 181 563 q 197 614 194 596 q 201 659 201 636 q 207 704 201 682 q 219 742 211 724 q 235 778 228 760 q 261 847 249 808 q 294 915 274 885 q 336 957 313 943 q 342 961 339 958 q 349 965 346 964 q 363 968 353 967 q 378 968 372 969 q 385 965 381 968 q 393 960 390 963 q 399 958 396 960 q 404 956 403 957 q 406 947 406 953 q 406 939 406 942 q 406 932 406 936 q 407 926 407 928 q 400 920 406 924 q 392 915 394 917 q 369 901 381 907 q 347 885 357 894 q 340 878 344 882 q 333 871 336 875 q 328 861 331 867 q 322 850 325 856 q 306 817 314 835 q 290 783 299 800 q 271 740 281 763 q 260 694 261 718 q 265 649 258 672 q 265 604 271 626 q 255 576 263 589 q 240 549 247 563 q 219 507 229 528 q 196 467 208 486 q 178 440 188 453 q 160 414 168 428 q 143 380 150 397 q 131 344 136 363 q 118 310 124 328 q 111 274 113 292 q 111 244 110 260 q 111 215 113 229 q 101 181 108 197 q 90 149 94 165 q 86 137 89 143 q 83 125 83 131 q 86 115 83 121 q 92 103 89 108 q 92 99 92 101 q 93 96 92 97 q 103 88 97 92 q 114 82 110 85 q 136 69 125 75 q 160 60 147 64 q 168 56 164 58 q 176 51 172 53 q 201 51 188 50 q 225 57 214 53 q 259 68 242 61 q 292 86 276 75 q 314 106 303 94 q 336 126 325 117 q 363 147 349 138 q 389 168 376 157 q 415 188 401 178 q 444 204 429 199 q 451 208 447 206 q 458 210 456 210 q 465 210 461 211 q 469 208 468 208 q 481 208 475 208 q 490 206 486 208 q 497 201 493 204 q 506 194 501 197 q 531 169 519 183 q 556 143 542 156 q 607 110 579 124 q 663 85 635 97 q 692 72 676 78 q 722 65 707 67 q 753 66 738 64 q 782 68 768 68 q 826 59 806 67 q 871 53 847 51 q 899 58 885 54 q 929 63 914 63 q 974 59 951 63 q 1018 57 996 56 q 1049 61 1033 58 q 1078 64 1064 64 q 1108 59 1093 64 q 1139 54 1124 54 q 1168 62 1154 56 q 1196 72 1182 68 q 1224 79 1208 76 q 1240 81 1232 81 q 1254 82 1247 81 q 1262 86 1258 83 q 1269 90 1265 89 q 1274 93 1271 92 q 1279 96 1278 94 q 1283 101 1282 97 q 1285 107 1283 106 q 1290 133 1290 122 q 1290 144 1289 139 q 1289 153 1290 149 q 1272 186 1285 172 q 1243 210 1260 200 q 1237 214 1240 211 q 1229 217 1233 217 q 1185 217 1207 225 q 1142 206 1164 208 q 1097 207 1118 201 q 1054 217 1075 213 q 974 218 1014 225 q 958 215 965 217 q 942 213 950 214 q 935 211 939 213 q 929 211 932 210 q 922 213 926 211 q 914 215 918 215 q 908 217 913 217 q 903 219 904 218 q 900 225 901 221 q 897 231 899 229 q 894 238 896 233 q 890 244 892 242 q 890 259 889 250 q 892 275 890 268 q 900 305 894 290 q 911 333 906 319 q 926 376 918 354 q 954 411 933 399 q 976 419 963 417 q 999 421 989 421 q 1053 421 1026 422 q 1106 415 1079 419 q 1148 407 1126 411 q 1192 400 1169 403 q 1226 399 1207 397 q 1233 398 1229 399 q 1239 399 1236 397 q 1247 404 1243 400 q 1256 410 1251 408 q 1259 413 1257 411 q 1263 415 1261 414 q 1264 419 1264 417 q 1264 424 1264 421 q 1267 433 1265 428 q 1269 443 1269 439 q 1268 450 1269 446 q 1265 457 1267 454 q 1251 492 1261 476 q 1236 525 1242 507 q 1232 547 1233 536 q 1229 569 1231 558 q 1228 577 1228 572 q 1226 583 1228 582 q 1219 590 1225 588 q 1210 593 1213 592 q 1206 596 1207 594 q 1203 597 1204 597 q 1192 594 1199 597 q 1183 590 1186 592 q 1166 581 1174 586 q 1150 571 1158 575 q 1121 561 1135 564 q 1091 561 1107 560 q 1060 561 1075 563 q 1016 558 1039 561 q 972 563 993 554 q 928 594 946 571 q 897 640 910 617 q 889 660 893 650 q 883 681 885 671 q 888 721 879 701 q 893 734 890 728 q 901 746 896 740 q 909 754 906 750 q 915 761 913 758 q 936 771 925 767 q 958 776 947 775 q 1033 776 993 783 q 1077 765 1056 772 q 1121 751 1099 757 q 1151 747 1135 749 q 1183 747 1168 744 q 1238 768 1215 750 q 1260 797 1250 779 q 1278 829 1271 814 q 1282 838 1279 833 q 1286 847 1285 843 q 1286 856 1286 851 q 1286 865 1286 861 q 1287 872 1286 868 q 1288 876 1288 875 q 1283 883 1286 879 q 1278 889 1281 886 q 1274 894 1276 890 q 1269 900 1272 899 q 1265 902 1268 901 q 1258 904 1261 903 q 1218 911 1240 910 q 1182 913 1200 913 q 1146 915 1164 914 q 1113 917 1129 915 q 1081 918 1097 918 q 1049 916 1065 918 q 1018 913 1033 914 q 1006 914 1013 913 q 994 915 1000 915 q 990 915 992 915 q 986 915 989 915 q 978 924 982 918 q 971 933 974 931 q 968 936 969 935 q 965 940 967 938 q 967 943 965 942 q 968 947 968 944 q 973 958 971 951 q 978 968 975 964 q 985 973 981 971 q 994 976 990 975 q 1035 983 1013 985 q 1079 982 1058 982 q 1120 983 1100 982 q 1161 983 1140 985 q 1192 982 1176 983 q 1224 981 1207 981 q 1269 983 1246 981 q 1315 979 1293 985 q 1343 969 1328 976 q 1368 953 1358 963 q 1373 947 1371 950 q 1378 939 1375 943 q 1383 933 1379 936 q 1388 926 1386 929 q 1388 920 1388 924 q 1388 914 1388 917 q 1388 904 1388 910 q 1388 894 1389 899 q 1385 885 1388 890 q 1381 876 1382 881 q 1365 842 1374 860 q 1353 807 1357 825 q 1345 740 1344 776 q 1340 672 1346 703 q 1329 621 1336 644 q 1319 592 1324 606 q 1311 563 1314 578 q 1313 513 1308 542 q 1324 454 1318 483 q 1332 404 1331 425 q 1328 369 1332 386 q 1321 335 1324 351 q 1318 323 1319 331 q 1317 311 1317 315 q 1321 307 1318 310 q 1325 303 1324 304 q 1331 296 1328 300 q 1336 289 1333 292 q 1349 281 1342 285 q 1361 274 1357 278 q 1364 268 1363 271 q 1367 263 1365 265 q 1371 254 1368 258 q 1375 246 1374 250 q 1376 238 1376 242 q 1375 231 1375 233 q 1367 194 1374 213 q 1361 157 1361 175 q 1372 120 1363 138 q 1386 85 1382 103 q 1388 77 1386 82 q 1389 69 1390 72 q 1385 57 1389 64 q 1375 43 1381 50 m 572 981 q 586 981 579 981 q 599 981 593 982 q 608 977 604 979 q 617 974 613 975 q 622 973 619 974 q 628 971 625 972 q 634 962 631 968 q 640 951 638 956 q 642 949 640 950 q 643 946 643 947 q 641 941 643 944 q 638 936 639 938 q 633 927 635 932 q 626 919 631 922 q 623 918 625 918 q 619 917 621 918 q 608 913 614 915 q 597 908 603 910 q 561 907 581 904 q 526 915 542 910 q 513 921 519 918 q 503 929 507 924 q 497 935 500 932 q 493 942 494 939 q 490 944 490 944 q 494 951 490 947 q 500 957 499 956 q 503 963 501 960 q 508 967 506 965 q 515 969 511 968 q 522 971 519 969 q 547 977 535 975 q 572 981 558 979 m 632 619 q 640 574 636 597 q 642 529 643 551 q 638 504 640 517 q 632 479 635 492 q 625 458 629 469 q 615 439 621 447 q 595 417 608 428 q 568 406 582 407 q 545 405 557 403 q 522 411 533 407 q 475 435 497 418 q 447 481 453 453 q 448 519 442 500 q 461 556 454 539 q 481 601 471 579 q 497 647 490 624 q 503 665 500 656 q 511 681 507 674 q 517 688 514 685 q 525 693 521 690 q 528 697 526 694 q 532 701 531 700 q 540 703 535 703 q 547 703 544 703 q 554 705 550 704 q 561 706 558 706 q 613 676 593 704 q 624 650 621 665 q 632 619 628 635 m 1013 694 q 1003 692 1007 693 q 994 690 999 692 q 990 690 992 690 q 986 689 988 690 q 983 683 985 688 q 982 678 982 679 q 977 670 981 675 q 975 663 974 665 q 978 658 975 661 q 982 653 981 654 q 987 644 983 650 q 993 638 990 639 q 997 635 994 636 q 1000 635 999 635 q 1011 631 1006 633 q 1022 626 1017 628 q 1044 628 1033 625 q 1065 633 1056 631 q 1072 636 1068 635 q 1079 639 1076 638 q 1082 644 1081 640 q 1085 649 1083 647 q 1090 655 1086 650 q 1093 661 1093 660 q 1090 667 1093 664 q 1085 674 1086 671 q 1082 678 1083 675 q 1079 682 1081 681 q 1072 685 1076 685 q 1065 688 1068 686 q 1013 694 1042 694 m 514 549 q 515 541 514 544 q 515 533 515 538 q 515 528 515 531 q 517 525 515 526 q 522 524 518 525 q 528 524 526 524 q 535 522 531 524 q 543 522 540 521 q 546 524 544 522 q 549 528 547 526 q 556 535 551 531 q 563 543 560 539 q 565 553 564 547 q 567 564 565 558 q 567 567 567 565 q 568 571 568 569 q 563 577 567 574 q 557 582 558 581 q 553 587 556 583 q 549 590 550 590 q 544 588 547 590 q 539 585 540 585 q 531 579 535 582 q 524 574 526 576 q 517 563 519 569 q 514 549 515 557 m 1058 347 q 1038 348 1047 347 q 1017 347 1028 349 q 1009 346 1014 346 q 1001 344 1004 346 q 992 338 997 343 q 983 331 988 333 q 980 328 982 329 q 978 326 978 328 q 977 319 976 324 q 978 311 978 314 q 978 306 978 310 q 979 300 978 303 q 983 297 979 299 q 989 294 986 296 q 995 289 992 292 q 1001 285 999 286 q 1015 283 1007 283 q 1031 281 1024 282 q 1065 280 1047 279 q 1100 283 1083 281 q 1113 286 1107 285 q 1124 290 1118 288 q 1131 295 1128 293 q 1136 299 1133 297 q 1140 301 1138 300 q 1142 303 1142 301 q 1142 311 1143 306 q 1140 319 1140 317 q 1141 324 1140 321 q 1140 328 1142 326 q 1131 331 1138 329 q 1122 335 1125 333 q 1092 342 1108 340 q 1058 347 1076 344 m 969 1135 q 931 1102 950 1118 q 892 1072 913 1086 q 871 1059 882 1065 q 849 1049 860 1053 q 803 1039 826 1040 q 758 1029 781 1038 q 731 1017 744 1025 q 701 1006 717 1010 q 694 1004 699 1004 q 686 1004 690 1004 q 679 1003 683 1004 q 671 1003 675 1003 q 648 1010 660 1004 q 626 1024 636 1017 q 603 1039 614 1031 q 582 1058 592 1047 q 578 1064 581 1061 q 572 1069 575 1067 q 567 1092 568 1079 q 567 1114 567 1104 q 579 1166 568 1142 q 607 1211 590 1190 q 648 1247 625 1233 q 694 1275 671 1261 q 727 1291 711 1283 q 761 1303 743 1299 q 836 1308 792 1310 q 911 1308 881 1307 q 951 1316 932 1310 q 992 1324 971 1322 q 1001 1324 996 1324 q 1010 1325 1007 1325 q 1019 1320 1014 1324 q 1026 1314 1024 1317 q 1030 1312 1028 1313 q 1033 1310 1032 1311 q 1034 1302 1035 1307 q 1033 1294 1033 1297 q 1033 1289 1033 1293 q 1032 1283 1033 1285 q 1025 1277 1031 1281 q 1017 1271 1019 1274 q 1004 1265 1010 1267 q 992 1264 999 1264 q 958 1260 975 1260 q 924 1260 940 1260 q 863 1249 893 1258 q 849 1243 856 1246 q 835 1238 842 1240 q 790 1234 813 1232 q 744 1231 767 1236 q 696 1210 719 1225 q 658 1175 672 1196 q 646 1144 650 1163 q 644 1139 644 1142 q 643 1133 643 1136 q 644 1128 643 1131 q 646 1122 646 1125 q 648 1114 647 1118 q 650 1106 649 1110 q 655 1102 651 1104 q 660 1099 658 1100 q 666 1093 663 1096 q 672 1089 669 1090 q 678 1088 675 1088 q 685 1086 682 1088 q 710 1085 697 1085 q 735 1086 722 1085 q 763 1090 749 1088 q 792 1097 778 1092 q 817 1113 806 1103 q 840 1131 829 1122 q 876 1158 857 1146 q 913 1183 894 1171 q 936 1203 924 1193 q 963 1217 949 1213 q 974 1220 968 1219 q 985 1221 979 1221 q 989 1223 988 1222 q 993 1222 990 1224 q 1000 1216 996 1221 q 1007 1208 1004 1211 q 1010 1206 1008 1207 q 1013 1203 1013 1204 q 1013 1199 1014 1201 q 1011 1194 1011 1197 q 1009 1185 1010 1190 q 1006 1175 1008 1179 q 1001 1168 1004 1171 q 996 1163 999 1165 q 969 1135 986 1151 z "},"B":{"ha":1019,"x_min":11,"x_max":1018,"o":"m 1004 281 q 1004 267 1004 274 q 1003 254 1004 261 q 992 216 1000 235 q 975 181 983 197 q 945 122 961 150 q 907 69 929 94 q 872 34 892 50 q 829 10 853 18 q 780 0 808 1 q 724 -3 751 -1 q 675 -15 696 -6 q 649 -30 661 -21 q 624 -46 636 -39 q 597 -60 611 -54 q 567 -68 582 -67 q 507 -58 535 -71 q 481 -42 493 -53 q 456 -25 469 -32 q 426 -16 442 -18 q 394 -12 410 -14 q 365 -13 381 -12 q 335 -19 349 -14 q 310 -36 321 -25 q 286 -56 299 -47 q 242 -71 267 -67 q 197 -64 218 -75 q 191 -60 194 -62 q 185 -56 188 -57 q 167 -41 175 -49 q 149 -26 158 -33 q 125 -6 138 -15 q 103 17 113 4 q 71 72 85 40 q 56 133 57 103 q 60 179 54 156 q 63 225 65 203 q 44 283 60 256 q 31 342 28 310 q 40 385 31 364 q 56 429 49 407 q 65 474 63 451 q 64 521 67 497 q 57 551 61 536 q 46 582 53 567 q 33 610 40 596 q 25 639 26 624 q 25 676 22 657 q 25 714 28 696 q 19 736 22 725 q 14 758 15 747 q 15 788 11 774 q 24 817 18 803 q 36 839 29 828 q 50 861 43 850 q 76 903 63 883 q 104 943 89 924 q 115 950 108 947 q 128 956 122 953 q 131 957 129 956 q 135 958 133 958 q 141 954 138 958 q 147 949 144 950 q 152 945 149 947 q 156 942 156 943 q 156 934 157 939 q 153 926 154 929 q 146 903 151 914 q 133 883 140 893 q 117 860 125 872 q 103 835 108 847 q 94 806 97 821 q 92 775 92 790 q 92 728 90 751 q 93 681 93 704 q 93 632 93 656 q 96 585 93 608 q 108 538 100 561 q 118 493 115 515 q 119 463 119 478 q 114 435 118 449 q 106 405 111 419 q 100 376 101 390 q 108 310 96 344 q 125 246 119 276 q 130 197 129 221 q 132 149 131 174 q 133 137 133 143 q 135 125 133 131 q 137 116 135 121 q 142 107 139 111 q 143 101 142 104 q 146 96 144 99 q 151 91 147 93 q 157 86 154 89 q 185 70 169 76 q 218 58 201 64 q 235 52 225 56 q 253 47 244 49 q 299 56 278 46 q 343 72 321 65 q 406 79 374 81 q 453 69 431 76 q 497 51 476 63 q 525 38 511 46 q 554 26 539 29 q 569 26 560 26 q 583 28 578 26 q 591 32 588 29 q 597 36 594 35 q 615 49 606 42 q 635 61 625 57 q 664 69 646 67 q 683 70 672 71 q 703 69 693 69 q 747 70 725 69 q 790 78 769 71 q 852 128 822 92 q 900 197 882 165 q 913 223 907 210 q 924 249 919 236 q 927 264 925 256 q 929 279 929 272 q 916 322 928 301 q 897 364 904 343 q 888 399 892 381 q 881 433 885 417 q 875 461 878 447 q 872 488 872 475 q 886 548 872 519 q 910 607 900 576 q 921 682 921 638 q 910 758 921 726 q 894 796 903 778 q 876 832 885 814 q 856 865 867 849 q 829 890 844 881 q 789 909 811 903 q 747 922 767 915 q 736 929 740 924 q 728 939 732 935 q 724 940 726 939 q 722 943 722 942 q 725 948 722 944 q 728 953 728 951 q 733 962 731 957 q 738 969 735 967 q 745 972 740 971 q 753 974 750 972 q 808 981 778 981 q 861 968 838 981 q 892 941 879 958 q 915 907 904 924 q 948 852 933 881 q 976 794 963 824 q 992 765 983 779 q 1007 738 1000 751 q 1013 724 1010 732 q 1017 708 1015 715 q 1013 683 1018 696 q 1003 658 1008 669 q 972 609 990 632 q 939 563 954 586 q 926 538 932 550 q 918 511 919 525 q 916 504 917 508 q 915 497 915 500 q 916 492 915 494 q 918 486 917 489 q 920 477 919 482 q 924 468 921 472 q 942 445 931 456 q 961 422 953 435 q 973 399 968 411 q 983 374 978 386 q 997 329 990 351 q 1004 281 1003 307 m 319 972 q 353 977 336 975 q 386 978 369 979 q 396 976 390 976 q 406 975 401 976 q 414 969 410 974 q 422 960 418 964 q 426 958 424 958 q 428 956 428 957 q 426 950 428 954 q 424 944 424 946 q 421 938 422 943 q 418 932 419 933 q 415 930 417 931 q 410 928 413 929 q 401 924 406 926 q 392 919 396 921 q 356 915 375 915 q 321 917 336 914 q 311 919 317 918 q 301 921 306 919 q 294 926 297 922 q 286 935 290 931 q 283 937 285 936 q 281 939 281 938 q 281 943 279 942 q 283 947 283 944 q 288 956 286 950 q 293 965 290 963 q 304 969 296 968 q 319 972 313 971 m 549 743 q 571 727 560 736 q 589 706 582 718 q 591 697 590 703 q 593 688 592 692 q 594 683 593 686 q 594 678 594 679 q 593 669 594 674 q 592 661 592 665 q 560 610 583 631 q 507 576 536 589 q 488 571 499 574 q 468 568 476 568 q 459 571 464 568 q 450 575 454 574 q 445 576 449 575 q 440 578 442 576 q 436 582 438 579 q 432 588 435 585 q 414 617 421 603 q 403 647 407 632 q 396 678 399 661 q 395 685 396 681 q 394 693 394 689 q 397 701 394 697 q 400 708 399 706 q 402 717 401 713 q 404 724 403 721 q 410 729 407 726 q 415 735 413 732 q 419 740 417 736 q 425 744 422 743 q 432 748 428 747 q 439 750 436 749 q 521 753 478 765 q 533 749 526 751 q 549 743 540 747 m 636 353 q 647 288 646 322 q 626 228 649 254 q 622 222 624 225 q 617 217 619 218 q 610 213 614 214 q 603 211 607 213 q 597 208 600 210 q 590 204 593 206 q 582 204 586 204 q 574 204 578 204 q 544 206 558 204 q 514 211 529 208 q 484 214 499 213 q 454 221 469 215 q 447 222 451 221 q 440 225 443 224 q 435 230 438 226 q 429 236 432 233 q 424 241 426 239 q 419 244 421 243 q 417 250 418 247 q 417 256 417 253 q 413 265 415 260 q 410 274 411 269 q 410 285 410 279 q 410 296 410 290 q 415 337 410 315 q 432 374 421 358 q 436 383 433 378 q 442 390 439 388 q 447 393 444 392 q 453 396 450 394 q 461 400 457 397 q 469 404 465 403 q 494 408 481 408 q 518 407 507 407 q 546 406 532 407 q 574 404 560 406 q 581 403 578 403 q 589 401 585 403 q 636 353 622 389 m 500 301 q 507 294 504 297 q 513 286 510 290 q 515 283 514 285 q 517 281 515 282 q 527 279 521 279 q 538 279 533 279 q 542 278 540 279 q 546 278 544 278 q 552 285 549 279 q 557 293 556 290 q 561 297 558 294 q 564 303 564 300 q 563 310 565 306 q 560 317 561 314 q 559 324 560 319 q 557 332 558 329 q 549 337 554 335 q 539 342 543 339 q 536 343 538 342 q 532 344 535 344 q 529 344 531 346 q 525 342 528 343 q 516 338 522 340 q 507 333 510 336 q 506 330 506 332 q 506 326 506 328 q 501 315 503 321 q 500 301 500 310 z "},"C":{"ha":1018,"x_min":3,"x_max":1017,"o":"m 1008 308 q 994 254 1003 281 q 982 201 986 228 q 977 153 978 178 q 964 108 976 129 q 918 72 949 83 q 889 67 904 68 q 860 60 874 65 q 851 54 856 57 q 844 50 847 51 q 810 13 822 36 q 776 -22 799 -10 q 751 -30 765 -28 q 724 -32 736 -32 q 681 -33 703 -33 q 638 -32 660 -32 q 612 -30 625 -31 q 586 -31 599 -29 q 544 -45 563 -33 q 506 -65 526 -57 q 447 -69 475 -75 q 394 -42 417 -62 q 343 -12 371 -22 q 288 -3 317 -4 q 231 -1 258 -3 q 193 3 213 0 q 158 18 174 7 q 130 58 138 35 q 108 103 122 82 q 103 112 106 107 q 96 121 100 117 q 74 143 86 133 q 53 165 63 153 q 27 212 36 186 q 11 263 18 238 q 6 286 8 274 q 3 311 4 299 q 11 358 3 332 q 27 410 19 383 q 33 457 35 436 q 26 502 32 479 q 19 549 19 525 q 22 596 18 572 q 26 643 25 619 q 28 691 28 667 q 38 738 29 715 q 61 774 46 758 q 89 808 76 790 q 103 835 97 821 q 117 861 108 849 q 143 892 128 879 q 174 919 158 906 q 199 942 186 931 q 226 960 211 953 q 251 967 238 965 q 276 971 264 969 q 326 976 301 974 q 375 986 351 978 q 403 997 389 990 q 431 1008 417 1004 q 475 1017 453 1015 q 521 1022 497 1019 q 567 1026 543 1024 q 614 1025 590 1028 q 659 1015 638 1024 q 700 994 681 1006 q 731 973 715 983 q 765 954 747 963 q 803 944 783 947 q 840 935 822 940 q 899 915 868 928 q 951 883 929 901 q 972 860 963 872 q 988 833 981 847 q 1007 791 999 814 q 1017 744 1015 768 q 1015 714 1017 729 q 1010 683 1013 699 q 1008 658 1010 671 q 1007 633 1007 646 q 1004 605 1006 619 q 997 578 1003 590 q 995 569 996 574 q 993 563 994 565 q 987 557 990 560 q 981 551 983 554 q 976 547 979 550 q 972 543 974 544 q 966 542 969 542 q 960 540 963 542 q 951 539 956 540 q 943 538 947 538 q 936 540 940 538 q 928 543 932 542 q 898 561 911 549 q 868 581 885 574 q 860 581 864 581 q 853 582 857 582 q 846 584 850 583 q 838 585 842 585 q 833 583 836 585 q 828 581 829 582 q 819 578 824 579 q 810 575 814 578 q 785 557 796 568 q 760 539 774 546 q 730 533 746 533 q 700 535 714 532 q 645 561 668 542 q 604 606 622 581 q 587 633 596 618 q 564 656 578 647 q 558 660 561 658 q 550 663 554 661 q 544 666 547 664 q 536 668 540 668 q 508 665 522 671 q 499 660 504 664 q 490 653 494 656 q 480 642 485 647 q 471 629 475 636 q 445 588 456 611 q 433 539 435 564 q 438 505 433 522 q 444 471 442 488 q 454 415 449 444 q 479 365 460 386 q 496 351 486 357 q 514 339 506 344 q 544 324 526 331 q 549 321 546 322 q 554 318 551 319 q 563 319 558 318 q 571 319 567 319 q 577 319 574 319 q 583 319 581 318 q 589 324 586 321 q 594 328 592 326 q 611 343 604 335 q 626 360 618 351 q 661 389 642 376 q 703 404 681 401 q 733 405 718 407 q 763 401 747 403 q 822 400 794 399 q 861 401 842 400 q 900 406 881 403 q 922 408 910 407 q 944 408 935 410 q 960 406 951 408 q 974 401 968 404 q 979 397 976 400 q 985 392 982 394 q 991 388 988 390 q 996 382 994 385 q 1004 365 1001 375 q 1008 346 1007 354 q 1010 328 1010 338 q 1008 308 1010 319 m 814 332 q 769 328 792 331 q 726 324 747 325 q 710 324 718 324 q 696 322 703 324 q 687 319 692 321 q 678 317 682 318 q 672 315 675 315 q 667 313 669 314 q 662 308 664 311 q 657 301 660 304 q 651 296 654 299 q 647 290 649 293 q 634 258 638 276 q 622 225 631 240 q 618 215 621 221 q 613 206 615 208 q 604 201 610 203 q 596 199 599 200 q 590 196 593 197 q 585 194 588 194 q 576 196 582 193 q 568 199 571 199 q 535 216 550 204 q 504 238 519 228 q 464 259 485 249 q 425 285 443 269 q 364 385 376 325 q 362 430 358 408 q 367 474 365 451 q 364 519 367 496 q 368 564 361 542 q 381 592 372 579 q 394 619 389 606 q 414 667 406 642 q 439 713 422 693 q 444 719 442 715 q 451 726 447 724 q 499 741 472 742 q 550 738 525 740 q 574 734 561 736 q 597 726 586 732 q 635 688 621 713 q 669 647 649 664 q 674 642 671 644 q 681 638 678 639 q 688 635 683 636 q 696 633 692 635 q 703 631 699 632 q 710 629 707 629 q 718 630 714 629 q 725 632 722 631 q 761 644 744 635 q 796 660 778 653 q 847 676 821 669 q 894 700 874 682 q 901 704 897 701 q 907 710 904 707 q 910 717 908 713 q 914 724 913 721 q 921 746 919 735 q 922 755 921 750 q 922 764 924 760 q 891 819 919 796 q 835 860 863 843 q 801 878 818 869 q 765 890 785 886 q 736 891 751 892 q 706 892 721 890 q 691 896 700 893 q 676 901 682 899 q 671 908 674 904 q 667 913 668 911 q 644 938 657 924 q 640 942 642 939 q 636 946 639 944 q 623 951 632 949 q 608 954 614 954 q 599 955 604 956 q 589 954 593 954 q 559 951 574 953 q 529 949 544 949 q 490 949 510 947 q 450 949 469 951 q 403 928 425 944 q 358 903 382 911 q 323 891 340 896 q 289 879 306 886 q 251 863 269 872 q 214 844 232 854 q 183 827 199 836 q 154 806 167 818 q 126 770 139 790 q 101 731 113 750 q 90 701 94 717 q 88 671 85 686 q 90 661 88 665 q 93 653 92 657 q 99 633 96 643 q 103 611 103 622 q 105 585 106 599 q 103 560 104 572 q 101 524 101 542 q 99 488 100 506 q 88 439 96 463 q 74 392 79 415 q 67 344 68 368 q 72 299 67 321 q 138 201 89 239 q 163 185 150 193 q 188 167 176 178 q 208 142 200 156 q 222 114 215 128 q 227 101 225 108 q 233 90 229 94 q 244 81 238 86 q 257 72 251 75 q 268 68 263 69 q 278 65 274 67 q 310 53 294 58 q 343 43 326 49 q 401 19 372 32 q 461 3 429 6 q 505 8 485 0 q 547 26 525 17 q 594 46 569 38 q 631 55 613 51 q 668 60 650 58 q 690 59 679 60 q 714 61 701 58 q 721 61 717 61 q 728 63 725 61 q 733 66 731 64 q 738 69 735 68 q 744 75 740 72 q 751 82 747 78 q 761 93 757 86 q 771 104 765 100 q 797 122 783 115 q 819 130 807 128 q 840 136 831 132 q 849 138 844 136 q 856 140 853 139 q 859 144 857 142 q 864 149 861 147 q 871 156 867 151 q 876 163 875 160 q 880 172 879 167 q 882 181 881 176 q 888 201 885 190 q 894 221 890 211 q 904 240 899 231 q 915 257 910 249 q 921 265 918 261 q 925 274 924 269 q 926 281 926 276 q 926 289 926 286 q 927 294 926 290 q 928 300 928 299 q 919 308 925 304 q 910 313 914 311 q 897 319 904 318 q 881 322 889 321 q 814 332 850 331 z "},"":{"ha":1018,"x_min":3,"x_max":1017,"o":"m 1008 308 q 994 254 1003 281 q 982 201 986 228 q 977 153 978 178 q 964 108 976 129 q 918 72 949 83 q 889 67 904 68 q 860 60 874 65 q 851 54 856 57 q 844 50 847 51 q 810 13 822 36 q 776 -22 799 -10 q 751 -30 765 -28 q 724 -32 736 -32 q 681 -33 703 -33 q 638 -32 660 -32 q 612 -30 625 -31 q 586 -31 599 -29 q 544 -45 563 -33 q 506 -65 526 -57 q 447 -69 475 -75 q 394 -42 417 -62 q 343 -12 371 -22 q 288 -3 317 -4 q 231 -1 258 -3 q 193 3 213 0 q 158 18 174 7 q 130 58 138 35 q 108 103 122 82 q 103 112 106 107 q 96 121 100 117 q 74 143 86 133 q 53 165 63 153 q 27 212 36 186 q 11 263 18 238 q 6 286 8 274 q 3 311 4 299 q 11 358 3 332 q 27 410 19 383 q 33 457 35 436 q 26 502 32 479 q 19 549 19 525 q 22 596 18 572 q 26 643 25 619 q 28 691 28 667 q 38 738 29 715 q 61 774 46 758 q 89 808 76 790 q 103 835 97 821 q 117 861 108 849 q 143 892 128 879 q 174 919 158 906 q 199 942 186 931 q 226 960 211 953 q 251 967 238 965 q 276 971 264 969 q 326 976 301 974 q 375 986 351 978 q 403 997 389 990 q 431 1008 417 1004 q 475 1017 453 1015 q 521 1022 497 1019 q 567 1026 543 1024 q 614 1025 590 1028 q 659 1015 638 1024 q 700 994 681 1006 q 731 973 715 983 q 765 954 747 963 q 803 944 783 947 q 840 935 822 940 q 899 915 868 928 q 951 883 929 901 q 972 860 963 872 q 988 833 981 847 q 1007 791 999 814 q 1017 744 1015 768 q 1015 714 1017 729 q 1010 683 1013 699 q 1008 658 1010 671 q 1007 633 1007 646 q 1004 605 1006 619 q 997 578 1003 590 q 995 569 996 574 q 993 563 994 565 q 987 557 990 560 q 981 551 983 554 q 976 547 979 550 q 972 543 974 544 q 966 542 969 542 q 960 540 963 542 q 951 539 956 540 q 943 538 947 538 q 936 540 940 538 q 928 543 932 542 q 898 561 911 549 q 868 581 885 574 q 860 581 864 581 q 853 582 857 582 q 846 584 850 583 q 838 585 842 585 q 833 583 836 585 q 828 581 829 582 q 819 578 824 579 q 810 575 814 578 q 785 557 796 568 q 760 539 774 546 q 730 533 746 533 q 700 535 714 532 q 645 561 668 542 q 604 606 622 581 q 587 633 596 618 q 564 656 578 647 q 558 660 561 658 q 550 663 554 661 q 544 666 547 664 q 536 668 540 668 q 508 665 522 671 q 499 660 504 664 q 490 653 494 656 q 480 642 485 647 q 471 629 475 636 q 445 588 456 611 q 433 539 435 564 q 438 505 433 522 q 444 471 442 488 q 454 415 449 444 q 479 365 460 386 q 496 351 486 357 q 514 339 506 344 q 544 324 526 331 q 549 321 546 322 q 554 318 551 319 q 563 319 558 318 q 571 319 567 319 q 577 319 574 319 q 583 319 581 318 q 589 324 586 321 q 594 328 592 326 q 611 343 604 335 q 626 360 618 351 q 661 389 642 376 q 703 404 681 401 q 733 405 718 407 q 763 401 747 403 q 822 400 794 399 q 861 401 842 400 q 900 406 881 403 q 922 408 910 407 q 944 408 935 410 q 960 406 951 408 q 974 401 968 404 q 979 397 976 400 q 985 392 982 394 q 991 388 988 390 q 996 382 994 385 q 1004 365 1001 375 q 1008 346 1007 354 q 1010 328 1010 338 q 1008 308 1010 319 m 814 332 q 769 328 792 331 q 726 324 747 325 q 710 324 718 324 q 696 322 703 324 q 687 319 692 321 q 678 317 682 318 q 672 315 675 315 q 667 313 669 314 q 662 308 664 311 q 657 301 660 304 q 651 296 654 299 q 647 290 649 293 q 634 258 638 276 q 622 225 631 240 q 618 215 621 221 q 613 206 615 208 q 604 201 610 203 q 596 199 599 200 q 590 196 593 197 q 585 194 588 194 q 576 196 582 193 q 568 199 571 199 q 535 216 550 204 q 504 238 519 228 q 464 259 485 249 q 425 285 443 269 q 364 385 376 325 q 362 430 358 408 q 367 474 365 451 q 364 519 367 496 q 368 564 361 542 q 381 592 372 579 q 394 619 389 606 q 414 667 406 642 q 439 713 422 693 q 444 719 442 715 q 451 726 447 724 q 499 741 472 742 q 550 738 525 740 q 574 734 561 736 q 597 726 586 732 q 635 688 621 713 q 669 647 649 664 q 674 642 671 644 q 681 638 678 639 q 688 635 683 636 q 696 633 692 635 q 703 631 699 632 q 710 629 707 629 q 718 630 714 629 q 725 632 722 631 q 761 644 744 635 q 796 660 778 653 q 847 676 821 669 q 894 700 874 682 q 901 704 897 701 q 907 710 904 707 q 910 717 908 713 q 914 724 913 721 q 921 746 919 735 q 922 755 921 750 q 922 764 924 760 q 891 819 919 796 q 835 860 863 843 q 801 878 818 869 q 765 890 785 886 q 736 891 751 892 q 706 892 721 890 q 691 896 700 893 q 676 901 682 899 q 671 908 674 904 q 667 913 668 911 q 644 938 657 924 q 640 942 642 939 q 636 946 639 944 q 623 951 632 949 q 608 954 614 954 q 599 955 604 956 q 589 954 593 954 q 559 951 574 953 q 529 949 544 949 q 490 949 510 947 q 450 949 469 951 q 403 928 425 944 q 358 903 382 911 q 323 891 340 896 q 289 879 306 886 q 251 863 269 872 q 214 844 232 854 q 183 827 199 836 q 154 806 167 818 q 126 770 139 790 q 101 731 113 750 q 90 701 94 717 q 88 671 85 686 q 90 661 88 665 q 93 653 92 657 q 99 633 96 643 q 103 611 103 622 q 105 585 106 599 q 103 560 104 572 q 101 524 101 542 q 99 488 100 506 q 88 439 96 463 q 74 392 79 415 q 67 344 68 368 q 72 299 67 321 q 138 201 89 239 q 163 185 150 193 q 188 167 176 178 q 208 142 200 156 q 222 114 215 128 q 227 101 225 108 q 233 90 229 94 q 244 81 238 86 q 257 72 251 75 q 268 68 263 69 q 278 65 274 67 q 310 53 294 58 q 343 43 326 49 q 401 19 372 32 q 461 3 429 6 q 505 8 485 0 q 547 26 525 17 q 594 46 569 38 q 631 55 613 51 q 668 60 650 58 q 690 59 679 60 q 714 61 701 58 q 721 61 717 61 q 728 63 725 61 q 733 66 731 64 q 738 69 735 68 q 744 75 740 72 q 751 82 747 78 q 761 93 757 86 q 771 104 765 100 q 797 122 783 115 q 819 130 807 128 q 840 136 831 132 q 849 138 844 136 q 856 140 853 139 q 859 144 857 142 q 864 149 861 147 q 871 156 867 151 q 876 163 875 160 q 880 172 879 167 q 882 181 881 176 q 888 201 885 190 q 894 221 890 211 q 904 240 899 231 q 915 257 910 249 q 921 265 918 261 q 925 274 924 269 q 926 281 926 276 q 926 289 926 286 q 927 294 926 290 q 928 300 928 299 q 919 308 925 304 q 910 313 914 311 q 897 319 904 318 q 881 322 889 321 q 814 332 850 331 m 781 1135 q 742 1102 761 1118 q 703 1072 724 1086 q 682 1059 693 1065 q 660 1049 671 1053 q 615 1039 638 1040 q 569 1029 592 1038 q 542 1017 556 1025 q 513 1006 528 1010 q 506 1004 510 1004 q 497 1004 501 1004 q 490 1003 494 1004 q 482 1003 486 1003 q 459 1010 471 1004 q 438 1024 447 1017 q 414 1039 425 1031 q 393 1058 403 1047 q 389 1064 392 1061 q 383 1069 386 1067 q 378 1092 379 1079 q 378 1114 378 1104 q 390 1166 379 1142 q 418 1211 401 1190 q 459 1247 436 1233 q 506 1275 482 1261 q 538 1291 522 1283 q 572 1303 554 1299 q 647 1308 603 1310 q 722 1308 692 1307 q 763 1316 743 1310 q 803 1324 782 1322 q 813 1324 807 1324 q 821 1325 818 1325 q 830 1320 825 1324 q 838 1314 835 1317 q 841 1312 839 1313 q 844 1310 843 1311 q 845 1302 846 1307 q 844 1294 844 1297 q 844 1289 844 1293 q 843 1283 844 1285 q 836 1277 842 1281 q 828 1271 831 1274 q 815 1265 821 1267 q 803 1264 810 1264 q 769 1260 786 1260 q 735 1260 751 1260 q 674 1249 704 1258 q 660 1243 667 1246 q 646 1238 653 1240 q 601 1234 624 1232 q 556 1231 578 1236 q 507 1210 531 1225 q 469 1175 483 1196 q 457 1144 461 1163 q 455 1139 456 1142 q 454 1133 454 1136 q 456 1128 454 1131 q 457 1122 457 1125 q 459 1114 458 1118 q 461 1106 460 1110 q 466 1102 463 1104 q 471 1099 469 1100 q 477 1093 474 1096 q 483 1089 481 1090 q 490 1088 486 1088 q 496 1086 493 1088 q 521 1085 508 1085 q 546 1086 533 1085 q 574 1090 560 1088 q 603 1097 589 1092 q 628 1113 617 1103 q 651 1131 640 1122 q 687 1158 668 1146 q 724 1183 706 1171 q 747 1203 735 1193 q 774 1217 760 1213 q 785 1220 779 1219 q 796 1221 790 1221 q 800 1223 799 1222 q 804 1222 801 1224 q 811 1216 807 1221 q 818 1208 815 1211 q 822 1206 819 1207 q 824 1203 824 1204 q 824 1199 825 1201 q 822 1194 822 1197 q 820 1185 821 1190 q 817 1175 819 1179 q 813 1168 815 1171 q 807 1163 810 1165 q 781 1135 797 1151 z "},"":{"ha":1018,"x_min":3,"x_max":1017,"o":"m 1008 308 q 994 254 1003 281 q 982 201 986 228 q 977 153 978 178 q 964 108 976 129 q 918 72 949 83 q 889 67 904 68 q 860 60 874 65 q 851 54 856 57 q 844 50 847 51 q 810 13 822 36 q 776 -22 799 -10 q 751 -30 765 -28 q 724 -32 736 -32 q 681 -33 703 -33 q 638 -32 660 -32 q 612 -30 625 -31 q 586 -31 599 -29 q 544 -45 563 -33 q 506 -65 526 -57 q 447 -69 475 -75 q 394 -42 417 -62 q 343 -12 371 -22 q 288 -3 317 -4 q 231 -1 258 -3 q 193 3 213 0 q 158 18 174 7 q 130 58 138 35 q 108 103 122 82 q 103 112 106 107 q 96 121 100 117 q 74 143 86 133 q 53 165 63 153 q 27 212 36 186 q 11 263 18 238 q 6 286 8 274 q 3 311 4 299 q 11 358 3 332 q 27 410 19 383 q 33 457 35 436 q 26 502 32 479 q 19 549 19 525 q 22 596 18 572 q 26 643 25 619 q 28 691 28 667 q 38 738 29 715 q 61 774 46 758 q 89 808 76 790 q 103 835 97 821 q 117 861 108 849 q 143 892 128 879 q 174 919 158 906 q 199 942 186 931 q 226 960 211 953 q 251 967 238 965 q 276 971 264 969 q 326 976 301 974 q 375 986 351 978 q 403 997 389 990 q 431 1008 417 1004 q 475 1017 453 1015 q 521 1022 497 1019 q 567 1026 543 1024 q 614 1025 590 1028 q 659 1015 638 1024 q 700 994 681 1006 q 731 973 715 983 q 765 954 747 963 q 803 944 783 947 q 840 935 822 940 q 899 915 868 928 q 951 883 929 901 q 972 860 963 872 q 988 833 981 847 q 1007 791 999 814 q 1017 744 1015 768 q 1015 714 1017 729 q 1010 683 1013 699 q 1008 658 1010 671 q 1007 633 1007 646 q 1004 605 1006 619 q 997 578 1003 590 q 995 569 996 574 q 993 563 994 565 q 987 557 990 560 q 981 551 983 554 q 976 547 979 550 q 972 543 974 544 q 966 542 969 542 q 960 540 963 542 q 951 539 956 540 q 943 538 947 538 q 936 540 940 538 q 928 543 932 542 q 898 561 911 549 q 868 581 885 574 q 860 581 864 581 q 853 582 857 582 q 846 584 850 583 q 838 585 842 585 q 833 583 836 585 q 828 581 829 582 q 819 578 824 579 q 810 575 814 578 q 785 557 796 568 q 760 539 774 546 q 730 533 746 533 q 700 535 714 532 q 645 561 668 542 q 604 606 622 581 q 587 633 596 618 q 564 656 578 647 q 558 660 561 658 q 550 663 554 661 q 544 666 547 664 q 536 668 540 668 q 508 665 522 671 q 499 660 504 664 q 490 653 494 656 q 480 642 485 647 q 471 629 475 636 q 445 588 456 611 q 433 539 435 564 q 438 505 433 522 q 444 471 442 488 q 454 415 449 444 q 479 365 460 386 q 496 351 486 357 q 514 339 506 344 q 544 324 526 331 q 549 321 546 322 q 554 318 551 319 q 563 319 558 318 q 571 319 567 319 q 577 319 574 319 q 583 319 581 318 q 589 324 586 321 q 594 328 592 326 q 611 343 604 335 q 626 360 618 351 q 661 389 642 376 q 703 404 681 401 q 733 405 718 407 q 763 401 747 403 q 822 400 794 399 q 861 401 842 400 q 900 406 881 403 q 922 408 910 407 q 944 408 935 410 q 960 406 951 408 q 974 401 968 404 q 979 397 976 400 q 985 392 982 394 q 991 388 988 390 q 996 382 994 385 q 1004 365 1001 375 q 1008 346 1007 354 q 1010 328 1010 338 q 1008 308 1010 319 m 814 332 q 769 328 792 331 q 726 324 747 325 q 710 324 718 324 q 696 322 703 324 q 687 319 692 321 q 678 317 682 318 q 672 315 675 315 q 667 313 669 314 q 662 308 664 311 q 657 301 660 304 q 651 296 654 299 q 647 290 649 293 q 634 258 638 276 q 622 225 631 240 q 618 215 621 221 q 613 206 615 208 q 604 201 610 203 q 596 199 599 200 q 590 196 593 197 q 585 194 588 194 q 576 196 582 193 q 568 199 571 199 q 535 216 550 204 q 504 238 519 228 q 464 259 485 249 q 425 285 443 269 q 364 385 376 325 q 362 430 358 408 q 367 474 365 451 q 364 519 367 496 q 368 564 361 542 q 381 592 372 579 q 394 619 389 606 q 414 667 406 642 q 439 713 422 693 q 444 719 442 715 q 451 726 447 724 q 499 741 472 742 q 550 738 525 740 q 574 734 561 736 q 597 726 586 732 q 635 688 621 713 q 669 647 649 664 q 674 642 671 644 q 681 638 678 639 q 688 635 683 636 q 696 633 692 635 q 703 631 699 632 q 710 629 707 629 q 718 630 714 629 q 725 632 722 631 q 761 644 744 635 q 796 660 778 653 q 847 676 821 669 q 894 700 874 682 q 901 704 897 701 q 907 710 904 707 q 910 717 908 713 q 914 724 913 721 q 921 746 919 735 q 922 755 921 750 q 922 764 924 760 q 891 819 919 796 q 835 860 863 843 q 801 878 818 869 q 765 890 785 886 q 736 891 751 892 q 706 892 721 890 q 691 896 700 893 q 676 901 682 899 q 671 908 674 904 q 667 913 668 911 q 644 938 657 924 q 640 942 642 939 q 636 946 639 944 q 623 951 632 949 q 608 954 614 954 q 599 955 604 956 q 589 954 593 954 q 559 951 574 953 q 529 949 544 949 q 490 949 510 947 q 450 949 469 951 q 403 928 425 944 q 358 903 382 911 q 323 891 340 896 q 289 879 306 886 q 251 863 269 872 q 214 844 232 854 q 183 827 199 836 q 154 806 167 818 q 126 770 139 790 q 101 731 113 750 q 90 701 94 717 q 88 671 85 686 q 90 661 88 665 q 93 653 92 657 q 99 633 96 643 q 103 611 103 622 q 105 585 106 599 q 103 560 104 572 q 101 524 101 542 q 99 488 100 506 q 88 439 96 463 q 74 392 79 415 q 67 344 68 368 q 72 299 67 321 q 138 201 89 239 q 163 185 150 193 q 188 167 176 178 q 208 142 200 156 q 222 114 215 128 q 227 101 225 108 q 233 90 229 94 q 244 81 238 86 q 257 72 251 75 q 268 68 263 69 q 278 65 274 67 q 310 53 294 58 q 343 43 326 49 q 401 19 372 32 q 461 3 429 6 q 505 8 485 0 q 547 26 525 17 q 594 46 569 38 q 631 55 613 51 q 668 60 650 58 q 690 59 679 60 q 714 61 701 58 q 721 61 717 61 q 728 63 725 61 q 733 66 731 64 q 738 69 735 68 q 744 75 740 72 q 751 82 747 78 q 761 93 757 86 q 771 104 765 100 q 797 122 783 115 q 819 130 807 128 q 840 136 831 132 q 849 138 844 136 q 856 140 853 139 q 859 144 857 142 q 864 149 861 147 q 871 156 867 151 q 876 163 875 160 q 880 172 879 167 q 882 181 881 176 q 888 201 885 190 q 894 221 890 211 q 904 240 899 231 q 915 257 910 249 q 921 265 918 261 q 925 274 924 269 q 926 281 926 276 q 926 289 926 286 q 927 294 926 290 q 928 300 928 299 q 919 308 925 304 q 910 313 914 311 q 897 319 904 318 q 881 322 889 321 q 814 332 850 331 m 789 1129 q 781 1119 785 1124 q 771 1108 776 1114 q 747 1090 760 1099 q 721 1074 733 1082 q 709 1064 715 1069 q 696 1054 703 1058 q 667 1046 683 1049 q 651 1045 660 1044 q 636 1046 643 1046 q 588 1044 613 1044 q 540 1036 563 1043 q 513 1023 525 1032 q 489 1006 501 1014 q 444 987 469 993 q 396 989 419 981 q 385 992 392 990 q 375 996 379 993 q 369 1002 372 999 q 365 1008 367 1006 q 346 1042 353 1024 q 328 1075 339 1060 q 302 1097 317 1089 q 274 1115 288 1106 q 264 1121 269 1118 q 256 1128 258 1124 q 240 1154 244 1139 q 228 1183 235 1169 q 218 1203 224 1193 q 207 1222 213 1213 q 203 1230 206 1226 q 199 1236 200 1233 q 198 1248 197 1242 q 199 1258 199 1254 q 198 1263 199 1261 q 199 1267 197 1264 q 205 1279 200 1271 q 214 1290 210 1288 q 218 1294 215 1293 q 224 1296 221 1294 q 254 1310 239 1306 q 307 1318 279 1317 q 358 1308 335 1319 q 398 1285 379 1299 q 439 1267 417 1272 q 481 1262 460 1261 q 522 1264 503 1263 q 560 1267 540 1265 q 596 1274 579 1268 q 638 1294 618 1281 q 679 1314 657 1308 q 702 1317 690 1317 q 725 1317 714 1318 q 749 1316 736 1317 q 771 1313 761 1315 q 777 1309 774 1311 q 783 1304 781 1307 q 790 1301 785 1304 q 796 1297 796 1299 q 796 1294 797 1296 q 793 1290 794 1292 q 790 1282 792 1288 q 785 1274 788 1276 q 780 1272 783 1272 q 775 1271 776 1271 q 724 1257 750 1263 q 672 1243 697 1251 q 642 1231 657 1238 q 611 1221 626 1225 q 558 1208 585 1213 q 504 1203 531 1204 q 478 1202 492 1203 q 453 1203 465 1201 q 394 1219 424 1206 q 375 1230 385 1224 q 354 1240 365 1236 q 347 1243 351 1240 q 340 1244 343 1246 q 331 1242 336 1244 q 324 1238 326 1239 q 320 1236 322 1236 q 317 1235 318 1236 q 315 1224 315 1231 q 314 1214 314 1218 q 315 1201 314 1207 q 318 1188 315 1194 q 329 1153 321 1169 q 349 1124 338 1138 q 379 1090 361 1107 q 418 1067 397 1072 q 464 1068 440 1061 q 510 1082 488 1075 q 570 1096 539 1090 q 631 1114 601 1101 q 663 1133 647 1122 q 692 1153 678 1143 q 747 1200 722 1174 q 757 1208 751 1204 q 768 1217 763 1213 q 772 1221 769 1218 q 778 1224 775 1224 q 787 1223 781 1225 q 797 1219 793 1221 q 801 1219 799 1219 q 806 1218 804 1219 q 807 1215 807 1217 q 807 1211 807 1213 q 812 1199 810 1206 q 814 1189 814 1193 q 813 1181 815 1185 q 811 1174 811 1176 q 803 1152 808 1163 q 789 1129 797 1142 z "},"":{"ha":1018,"x_min":10,"x_max":1004,"o":"m 950 147 q 923 99 939 121 q 889 54 907 76 q 866 27 878 40 q 840 4 854 14 q 815 -5 828 -1 q 789 -11 801 -8 q 757 -19 772 -15 q 726 -28 742 -24 q 713 -31 719 -29 q 699 -35 706 -33 q 692 -35 696 -35 q 688 -37 689 -36 q 680 -44 683 -40 q 674 -53 676 -49 q 670 -56 672 -54 q 668 -58 668 -57 q 667 -64 667 -60 q 668 -71 668 -68 q 668 -79 668 -75 q 669 -86 668 -83 q 673 -101 669 -94 q 679 -115 676 -108 q 688 -174 688 -144 q 675 -232 688 -204 q 662 -258 671 -244 q 642 -279 653 -271 q 606 -297 626 -292 q 567 -304 586 -301 q 496 -307 535 -308 q 429 -279 457 -306 q 423 -274 426 -276 q 418 -269 419 -272 q 406 -214 401 -247 q 412 -184 407 -199 q 414 -154 417 -169 q 412 -147 414 -150 q 408 -140 410 -143 q 399 -119 404 -129 q 388 -100 393 -110 q 373 -72 381 -87 q 356 -47 365 -57 q 330 -28 344 -35 q 301 -19 315 -22 q 256 -11 279 -14 q 217 11 233 -8 q 201 35 207 21 q 188 63 196 50 q 158 97 175 81 q 125 128 142 113 q 89 153 108 142 q 53 179 69 165 q 26 217 36 194 q 23 223 25 219 q 19 231 21 226 q 21 276 13 254 q 31 319 29 297 q 23 364 32 343 q 11 408 14 385 q 13 438 10 422 q 17 467 15 453 q 15 513 18 490 q 15 557 13 535 q 20 597 17 578 q 26 638 24 617 q 34 688 29 663 q 35 739 39 714 q 28 769 33 754 q 22 799 22 783 q 24 814 22 804 q 28 829 25 824 q 36 842 31 835 q 46 853 42 850 q 72 869 57 863 q 99 881 86 875 q 126 895 113 888 q 151 911 139 903 q 181 940 167 925 q 208 968 194 954 q 235 992 221 981 q 267 1008 250 1004 q 327 1010 296 1017 q 389 1000 358 1004 q 466 1001 419 996 q 544 1014 513 1007 q 619 1023 575 1022 q 696 1015 664 1024 q 708 1010 703 1014 q 719 1003 713 1007 q 724 1001 721 1003 q 729 997 728 1000 q 732 990 731 994 q 735 983 733 986 q 738 976 736 981 q 740 969 740 972 q 737 965 740 968 q 733 960 733 961 q 727 952 731 957 q 721 946 724 947 q 708 942 715 943 q 694 939 700 940 q 668 937 682 936 q 643 938 654 938 q 592 939 617 938 q 540 940 567 940 q 470 938 510 940 q 399 933 431 936 q 353 931 376 932 q 308 924 329 931 q 281 910 293 918 q 256 894 268 903 q 229 881 243 888 q 204 865 215 874 q 185 847 193 857 q 168 825 176 836 q 147 797 157 811 q 129 768 138 783 q 122 747 125 758 q 114 725 118 736 q 104 689 108 707 q 100 653 100 671 q 102 622 100 638 q 101 592 104 607 q 94 563 100 578 q 86 535 89 549 q 84 490 81 513 q 89 446 88 468 q 88 415 89 431 q 90 385 88 400 q 98 355 93 369 q 107 326 103 340 q 113 296 111 311 q 122 268 115 281 q 149 228 133 246 q 176 190 165 210 q 208 136 193 164 q 246 86 224 108 q 294 51 268 65 q 351 26 322 36 q 403 -6 379 17 q 435 -41 421 -22 q 468 -75 450 -60 q 503 -105 485 -90 q 536 -137 522 -119 q 552 -168 546 -151 q 569 -197 558 -185 q 576 -205 572 -199 q 583 -211 581 -211 q 590 -208 585 -211 q 597 -206 596 -206 q 603 -203 599 -204 q 608 -200 607 -201 q 610 -193 610 -199 q 611 -185 611 -187 q 613 -178 611 -182 q 614 -169 614 -174 q 606 -140 614 -156 q 586 -117 599 -126 q 561 -103 574 -108 q 547 -97 554 -99 q 532 -90 539 -94 q 525 -84 528 -87 q 518 -78 522 -81 q 514 -74 517 -76 q 511 -69 511 -72 q 509 -65 510 -68 q 508 -60 508 -61 q 505 -51 507 -56 q 503 -42 503 -46 q 504 -31 503 -36 q 506 -19 506 -25 q 521 14 508 0 q 552 35 533 29 q 590 40 571 42 q 644 36 617 40 q 699 35 671 32 q 760 50 728 39 q 815 81 792 61 q 848 115 833 96 q 874 156 863 135 q 888 192 882 174 q 899 231 893 211 q 913 274 904 251 q 918 317 921 296 q 917 325 917 321 q 915 333 917 329 q 897 354 910 346 q 889 358 893 357 q 881 361 885 360 q 834 369 860 369 q 785 368 808 369 q 735 364 760 368 q 688 346 710 360 q 650 319 668 335 q 615 290 632 304 q 592 270 603 281 q 568 251 581 260 q 530 238 550 242 q 490 233 510 235 q 455 235 474 232 q 422 247 436 238 q 406 265 413 254 q 394 286 399 275 q 382 354 381 318 q 386 421 383 390 q 388 451 388 436 q 386 481 388 465 q 381 509 383 494 q 378 539 378 524 q 384 569 379 554 q 394 600 389 585 q 403 628 399 614 q 414 654 407 642 q 479 718 435 696 q 537 731 507 731 q 592 714 567 732 q 615 695 604 706 q 640 679 626 685 q 670 671 654 672 q 701 663 686 669 q 726 647 715 657 q 750 628 736 636 q 763 622 754 625 q 778 618 772 618 q 785 619 781 618 q 793 619 789 619 q 828 632 811 622 q 857 654 844 642 q 869 666 863 660 q 878 678 875 672 q 890 700 886 688 q 897 724 894 713 q 904 790 904 754 q 876 847 904 825 q 850 862 865 857 q 822 876 835 867 q 817 883 819 879 q 813 888 815 886 q 808 894 811 890 q 803 900 804 897 q 804 906 803 901 q 807 911 806 910 q 808 919 807 914 q 811 925 808 924 q 815 928 813 928 q 818 929 817 928 q 827 933 822 931 q 836 936 832 936 q 858 938 846 939 q 878 935 869 936 q 902 928 890 932 q 922 917 914 924 q 939 898 932 908 q 951 876 946 888 q 971 810 968 846 q 978 744 974 775 q 983 681 981 714 q 963 624 985 649 q 924 599 947 607 q 883 579 901 590 q 847 551 864 567 q 810 526 831 535 q 719 532 764 508 q 694 548 706 538 q 671 567 683 558 q 644 584 658 576 q 619 603 631 592 q 595 627 607 614 q 569 647 583 640 q 563 653 567 650 q 556 656 558 656 q 549 656 553 657 q 543 656 546 656 q 535 656 539 656 q 526 656 531 656 q 518 651 522 654 q 510 647 514 649 q 460 606 482 635 q 435 547 438 578 q 440 503 432 525 q 450 458 449 482 q 447 422 451 440 q 443 383 442 403 q 442 375 443 379 q 443 368 442 371 q 449 358 444 363 q 456 347 453 353 q 458 344 457 346 q 460 342 458 342 q 469 338 464 339 q 479 335 475 336 q 484 332 481 333 q 490 331 488 331 q 496 331 493 329 q 501 332 499 332 q 511 334 506 333 q 521 336 517 335 q 546 352 533 342 q 569 371 558 363 q 595 386 582 379 q 622 400 608 393 q 664 420 643 410 q 707 435 685 431 q 759 444 733 442 q 810 451 785 447 q 865 458 836 456 q 919 447 894 461 q 958 414 943 436 q 983 369 974 392 q 999 332 993 351 q 1000 292 1004 313 q 990 264 997 278 q 978 236 983 250 q 965 193 971 215 q 950 147 958 171 z "}}}
